<svg xmlns="http://www.w3.org/2000/svg" width="475.498" height="523" viewBox="0 0 475.498 523">
  <g id="Group_11" data-name="Group 11" transform="translate(-90 -1695)">
    <g id="Rectangle_6" data-name="Rectangle 6" transform="translate(90 1695)" fill="#fff" stroke="#000" stroke-width="2.5">
      <rect width="336" height="336" stroke="none"/>
      <rect x="1.25" y="1.25" width="333.5" height="333.5" fill="none"/>
    </g>
    <rect id="Rectangle_7" data-name="Rectangle 7" width="418" height="494" transform="translate(133 1724)" fill="#fff"/>
    <g id="Layer_2" data-name="Layer 2" transform="translate(149.998 1742.494)">
      <g id="Objects" transform="translate(0.002 -0.006)">
        <path id="Path_5" data-name="Path 5" d="M150.5,18.82c-16.13-.28-32.42-.05-48.54.74a17.59,17.59,0,0,0-1.34-3.23.27.27,0,0,0-.48.21,8.26,8.26,0,0,0,.86,1.83c.25.41.48.8.7,1.2h-.4a.1.1,0,0,0,0,.2h.51c.09.18.19.37.27.57s.22,0,.17-.1-.14-.31-.2-.47c16.14-.09,32.32-.34,48.45-.71a.13.13,0,0,0,0-.24Z" transform="translate(65.086 0.006)"/>
        <path id="Path_6" data-name="Path 6" d="M74.64,24.11C60,22.32,45.47,20.88,31.14,17.25c.07-1.25,0-2.51,0-3.71a12.755,12.755,0,0,0-2.81-8.18c-.27-.31-.72.14-.45.45,3.62,4.13,3.27,13,1.12,17.77a.25.25,0,0,0,0,.19A.115.115,0,1,0,29,24c13.13,2.2,26.38,4.32,39.58,6a.121.121,0,0,0,0-.24c-12.91-2.45-26.1-4.33-39.14-5.93a14.07,14.07,0,0,0,1.69-6.31c14.09,4,28.94,5.64,43.51,6.78A.1.1,0,0,0,74.64,24.11Z" transform="translate(-0.002 0.006)"/>
        <path id="Path_7" data-name="Path 7" d="M213.84,41.31h0" transform="translate(113.186 0.006)" stroke="#273480" stroke-linecap="round" stroke-linejoin="round" stroke-width="0"/>
        <path id="Path_8" data-name="Path 8" d="M228.12,81.37c-6.88-.27-13.77-.39-20.65-.48s-13.86-.58-20.66.09a.13.13,0,1,0,0,.26c6.81.63,13.82.2,20.66.29s13.77.27,20.65.41a.29.29,0,0,0,0-.57Z" transform="translate(116.714 42.232)"/>
        <path id="Path_9" data-name="Path 9" d="M228,197.31c-.12-.23-.55-.14-.52.14.18,1.63.74,3.21.93,4.84a.07.07,0,0,0,.13,0,8.1,8.1,0,0,0-.54-4.98Z" transform="translate(143.808 104.617)"/>
        <path id="Path_10" data-name="Path 10" d="M29,211.75c-5.35,1.58-5.47-9.46-5.48-12.31a45.9,45.9,0,0,1,1.71-11.7c.1-.36-.42-.48-.54-.15a34.22,34.22,0,0,0-1.59,17.93c.46,2.67,2,9.19,6.14,6.79a.31.31,0,0,0-.24-.56Z" transform="translate(-0.002 106.817)"/>
        <path id="Path_11" data-name="Path 11" d="M163.41,259.2c-19.89.64-39.77,2.09-59.64,3.17q-14.73.79-29.46,1.55c-10.07.53-20.23.71-30.27,1.68a.305.305,0,0,0,0,.61c10.08-.08,20.21-.95,30.27-1.47l29.46-1.53c19.87-1,39.81-1.78,59.64-3.42C163.78,259.76,163.79,259.19,163.41,259.2Z" transform="translate(41.457 155.518)"/>
        <path id="Path_12" data-name="Path 12" d="M409.688,57.678a19.563,19.563,0,0,1,3.227.532.6.6,0,0,0,.642.2l1.132.365c.673.259,1.162-.882.489-1.171-.336-.152-.688-.274-1.055-.411-.26-4.96-10.048-5.933-15.171-6.329a.459.459,0,0,0-.275-.183c-4.71-1.08-9.65-1.263-14.437-1.9-4.282-.578-9.038-1.932-13.412-1.643a80.348,80.348,0,0,0,.229-16.735c-.352-4.564-1.636-9.493-5.307-12.612s-8.7-3.377-13.29-3.043a13.389,13.389,0,0,0-3.7-1.05.306.306,0,0,0-.229-.183C329.536,8.949,309.456,8.325,290.019,7.2,269.3,6.088,248.681,4.567,228.112,1.8a.66.66,0,0,0-.428.091.782.782,0,0,0-.551-.259C196.057-.225,164.691,0,133.554,0Q110.408,0,87.17.551C72.351.9,57.226.642,42.438,1.966c-2.172-.441-4.634-.532-5.735.745a2.094,2.094,0,0,0,.489,3.377.426.426,0,0,0,.291.609c8.992,1.628,18.229,2.206,27.3,3.286,9.895,1.171,19.789,2.525,29.653,3.91,18.841,2.662,37.591,6.085,56.432,8.657a1.249,1.249,0,0,0,.122.654.443.443,0,0,0,.5.365.413.413,0,0,0,.321.228c7,.958,14.3.563,21.41.563,8,0,16-.122,23.995-.137q23.077,0,46.139-.289,46.614-.609,93.181-2.282l13.764-.532c2.019-.076,4.037-.274,6.117-.259a7.637,7.637,0,0,1,7.4,5.948c2.554,8.2,1.208,17.739-1.743,25.62a.623.623,0,0,0,.367.822c-7.524,3.043-15.828,2.023-23.766,1.886q-12.846-.228-25.693,0c-17.434.228-34.868.913-52.287,1.643-17.128.715-34.241,1.521-51.37,2.039q-12.846.4-25.692.532-6.423.091-12.846.091a123.28,123.28,0,0,0-13.412,0,.7.7,0,0,0-.52-.35l-2.172-.38a2.322,2.322,0,0,0,1.958-1.521,5.193,5.193,0,0,0,.26-1.734c15.63,0,31.259-1.065,46.889-1.521s31.458-.624,47.164-1.232c31.932-1.232,63.91-1.521,95.827-3.043a.2.2,0,1,0,0-.4c-31.947.426-63.88,2.084-95.827,2.83-15.721.365-31.443,1.156-47.164,1.689s-31.259.472-46.858,1.415c.2-1.369.734-2.556,1.009-3.879a1.817,1.817,0,0,0,0-.7,220.617,220.617,0,0,0,34.15-.35c.183,0,.2-.319,0-.3-11.439.685-22.787.365-34.211.228v-.137c0-.441-.26.487-.138-.745s.168-.259.444-.943a.818.818,0,0,0,0-.228.243.243,0,0,0,0-.472,20.3,20.3,0,0,0,0-2.723,451.157,451.157,0,0,0,67.7-1.856c.153,0,.168-.259,0-.243-22.573,1.75-45.1,2.206-67.733,1.78,0-.167,0-.274-.107-.259.336-.152.214-.609,0-.73a4.1,4.1,0,0,1,.4-3.043l.2-.548c24.9.913,49.825-2.191,74.753-1.81s50.085,1.765,74.768-2.3c.245,0,.138-.38-.092-.35-25.417,3.56-50.911,2.48-76.466,2.13-24.331-.335-48.586,2.191-72.9,1.886h0a2.108,2.108,0,0,0-.428-1.08,3.447,3.447,0,0,1-.9-1.81,2.347,2.347,0,0,0,0-.319h3.15a.306.306,0,0,0,.184-.106c33.232-.593,66.479-2.343,99.7-3.514,33.89-1.2,67.871-1.81,101.73-3.666.245,0,.245-.4,0-.38-33.951.183-67.886,2.023-101.776,3.225-33.645,1.187-67.29,1.8-100.935,3.621l-2.156-.106a2.262,2.262,0,0,1,.627-1.308c.138-.2-.153-.472-.336-.335a2.373,2.373,0,0,0-1.07,1.613c-5.643-.228-11.286-.426-16.914-.791-.229,0-.214.319,0,.35A138.629,138.629,0,0,0,156.4,36.135a4.88,4.88,0,0,0,.459,1.521,3.393,3.393,0,0,1,.367,1.643h-.581a.213.213,0,0,0,0,.411h.535a1.17,1.17,0,0,1-.107.578,6.5,6.5,0,0,0-.4,1.019q-19.04-2.282-38.126-4.564a.206.206,0,0,0,0,.411c12.663,1.75,25.387,3.317,38.126,4.564a3.727,3.727,0,0,0,.459,1.932,1.351,1.351,0,0,0-.352.745c-.122.593.229.867.306,1.415a2.152,2.152,0,0,1,.4,1.43c-18.107-3.256-36.535-5.157-54.765-7.607-17.893-2.267-35.8-4.792-53.786-7.166a.152.152,0,0,0,0,.3c18.489,2.693,36.994,5.264,55.468,7.835,17.557,2.5,35.174,5.538,52.792,7.287a1.332,1.332,0,0,1-.382.228.29.29,0,0,0-.122.106c0,.137-.275.441-.352.639.138-.38.184,2.13.214,1.932-.107,1.521-1.162,7.15-2.37,7.2a.334.334,0,0,0-.245.532c-17.817-3.164-35.694-6.085-53.526-9.235-18.734-3.377-37.438-7.607-56.279-10.36-.612-.091-.887.776-.26.943C62.3,44.533,81.3,47.485,99.986,50.847c18.229,3.332,36.474,6.755,54.78,9.554a8.119,8.119,0,0,0-.214.822h0c-9.574.213-19.178-2.1-28.6-3.606L97.875,53.159c-18.015-2.86-36.092-6.253-54.23-8.276a.394.394,0,0,0,0-.167c-.52-.761-1.239-1.2-1.529-2.16a3.635,3.635,0,0,1,.444-3.043.318.318,0,0,0-.044-.4.322.322,0,0,0-.4-.043,3.521,3.521,0,0,0-1.438,3.575,4.147,4.147,0,0,0,1.3,2.373.318.318,0,0,0,.042.255.321.321,0,0,0,.218.141C57.18,48.686,72.412,50.953,87.6,53.25c-4.4.426-8.794,1.019-13.152,1.521A15.731,15.731,0,0,0,69,55.882a5.611,5.611,0,0,0-2.248,2.358c-2.309-2.328-6.469-1.521-8.518,1.171a15.733,15.733,0,0,0-2.386,7.8C55.207,72.237,54.779,77.3,54.6,82.43a93.418,93.418,0,0,0,1.315,21.132l-.489.183a.736.736,0,0,0-1.178.3v.122l-2,.715a.644.644,0,0,0-.887.335l-6.591,2.419a.552.552,0,0,0-.948,0c-.107.152-.184.3-.275.456l-1.85.654-6.882,2.312a55.7,55.7,0,0,1-6.7,2.373,8.112,8.112,0,0,0-1.927.152,2.289,2.289,0,0,1-.872-.2.353.353,0,0,0-.394.077.349.349,0,0,0-.064.395,4.378,4.378,0,0,0-2.946,1.71,4.334,4.334,0,0,0-.816,3.3.683.683,0,0,0,.264.526.691.691,0,0,0,.577.128l.6-.167a.337.337,0,0,0,.245.106l6.882.274a.424.424,0,0,0-.107.441,47.947,47.947,0,0,1,0,34.5.59.59,0,0,0,0,.35l-3.059.137a.38.38,0,1,0,0,.761c20.921,1.248,42.056.532,63.023.761s42.01.563,63.008,1.156c42.194,1.2,84.281,4.2,126.444,5.9,23.613.958,47.409,1.521,70.945.289a.958.958,0,0,0,.7-1.521,57.569,57.569,0,0,0,10.323-9.219c3.059-3.377,6.974-7.135,8.962-11.288,1.835-3.834,1.208-8.383.979-12.475-.321-5.827-.856-11.608-1.652-17.374l2.141-.243c.872,5.446,2.325,10.482,2.325,16.1,0,2.236-.122,4.473-.275,6.709-.107,1.4-.245,2.8-.382,4.184a37.072,37.072,0,0,1-1.315,5.142c-.153-.472-.933-.441-.948,0a.519.519,0,0,0-.474.38c-1.529,4.853-4.741,8.352-7.952,12.171-1.438,1.7-2.89,3.408-4.313,5.112s-3.166,4.747-5.551,5.492a.921.921,0,0,0-.688-.228c-42.377,2.236-84.724-1.111-127.056-2.814q-35.006-1.415-70.012-2.13l-.428-.274a.307.307,0,0,0-.3-.005.3.3,0,0,0-.161.249l-10.873-.228-.214-.122a.353.353,0,0,0-.489.122q-22.527-.456-45.038-.7l-6.393-.106a.737.737,0,0,0-.749,0H88.011v-.882a.713.713,0,0,0-1.392-.183c-.092.35-.168.685-.245,1.035h-2.4a.705.705,0,0,0-1.269,0c-19.055-.4-38.233-.943-57.166-.228-.535-1.384-.765-3.286.719-4.214a.365.365,0,0,0-.275-.654,3.052,3.052,0,0,0-2.6,2.389,2.764,2.764,0,0,0,1.453,3.21.353.353,0,0,0,.306,0c9.3.517,18.642.685,28,.73-7.509,1.521-14.957,3.5-22.4,5.218-8.824,2.023-17.786,3.773-26.442,6.451H4.1a.614.614,0,0,0-.52-.183,4.573,4.573,0,0,0-3.4,3.712A2.615,2.615,0,0,0,1.6,179.782a.3.3,0,0,0,.184.487c1.361.228,2.722.411,4.083.578a.349.349,0,0,0,.076.624c2.34.73,2.1,8.139,2.019,9.919a25.558,25.558,0,0,1-2.447,9.737L2.645,200.9a.38.38,0,0,0-.175-.263.384.384,0,0,0-.314-.041,2.82,2.82,0,0,0-.535.228H1.437a.4.4,0,0,0-.4.335c-2.416,1.689-.2,5.264,2.432,6.177,4.221,1.521,9.512,1.339,13.917,1.826l6.117.715a.44.44,0,0,0-.184.472,27.028,27.028,0,0,1-2.049,16.735.607.607,0,0,0,.245.79.614.614,0,0,0,.81-.181,19.745,19.745,0,0,0,1.529-2.754c15.645,5.005,31.81,8.748,47.684,12.992s31.749,7.911,47.623,11.912c32.529,8.2,65.21,15.883,97.876,23.322a.276.276,0,0,0,.321-.167,19.732,19.732,0,0,0,2.126,4.427l-.78.122a.67.67,0,0,0-.184-.228.395.395,0,0,0-.168-.685c-16.44-4.381-33.247-7.5-49.81-11.365-16.822-3.925-33.645-8.276-50.467-12.46-16.532-4.123-33.079-8.139-49.55-12.414s-33.2-9.3-49.993-13.114a.429.429,0,0,0-.581-.3c-2.1.532-3.41,4.047-1.376,5.279a.365.365,0,0,0,.245.441c14.574,4.853,29.913,8.033,44.931,11.623-2.737.5-5.46,1.171-8.2,1.643q-2.065.365-4.129.685a.369.369,0,0,0-.428,0,.276.276,0,0,0-.107,0q-5.918.913-11.867,1.689c-8.916,1.156-17.985,1.8-26.778,3.59a.471.471,0,0,0-.229.776H9.037v-.365a.308.308,0,0,0-.566-.243c-1.376,2.191-1.636,5.842.6,7.683a.645.645,0,0,0,.734.122l4.68.335a21.846,21.846,0,0,1,.581,14.225,4.932,4.932,0,0,0-3.665,1.9,4.879,4.879,0,0,0-.923,4.006.38.38,0,0,0,.107.685l.291.091.153.213a.568.568,0,0,0,.719,0,61.483,61.483,0,0,0,11.944,1.324c5.551.38,11.1.7,16.639,1.2,10.43.958,20.86,1.841,31.29,2.708a.5.5,0,0,0,0,.867c18.52,9.448,38.019,17.617,57.089,25.863h-.122c-.321,0-.245.578.076.548h.321a1.925,1.925,0,0,1,.092.426,4.072,4.072,0,0,1-.092,1.521,4.3,4.3,0,0,1-.78,1.521l-.52.076c-10.537-6.207-21.823-11.365-32.8-16.735C84.54,295.6,73.8,289.289,62.762,286a.252.252,0,0,0-.2.456c5.016,3.21,10.705,5.446,16.15,8s10.843,5.233,16.241,7.881c10.8,5.294,21.41,11.212,32.269,16.218a.353.353,0,0,0,.168,0,.552.552,0,0,0,.642.2,3.9,3.9,0,0,0,1.3-.958c11.1-.3,22.282-2.039,33.309-3.043l35.878-3.5c23.031-2.282,46.124-4.305,69.049-7.47.168,0,.122-.3,0-.289-23.674,1.521-47.271,4.184-70.853,6.587l-34.96,3.606c-10.506,1.232-21.288,1.75-31.764,3.514a4.049,4.049,0,0,0,.4-1,4.541,4.541,0,0,0,0-2.252c14.1-1.08,28.185-2.83,42.255-4.29s28.185-2.571,42.179-4.473c.413,0,.321-.776-.107-.745-14.651,1.065-29.286,2.967-43.891,4.564-13.58,1.43-27.222,2.6-40.756,4.4a1.677,1.677,0,0,0-.321-.335.532.532,0,0,0-.306-.639c-15.293-7.15-30.755-14.559-46.384-21.192a.516.516,0,0,0,.229-.852l-.107-.228,1.529,1.1c.336.228.9-.167.734-.563l-.413-1c1.376.9,2.707,1.871,3.992,2.891a24.4,24.4,0,0,1,2.248,2.023.568.568,0,0,0,.747.046.561.561,0,0,0,.14-.731l-1.1-2.023,3.4,2.693c.474.365,1.346-.137.918-.7a26.261,26.261,0,0,1-2.172-3.3,32.821,32.821,0,0,1,5.031,3.453c.459.38,1.239-.091.872-.669s-.948-1.521-1.438-2.328c2.08,1.384,4.16,2.784,6.255,4.138.489.32,1.025-.289.765-.761l-1.407-2.571,6.836,4.625c.474.319,1.147-.335.811-.806l-2.049-2.875,5.75,3.7c.566.35,1.239-.487.719-.928a16.764,16.764,0,0,1-3.181-3.575l8.564,5.6c.5.319,1.239-.35.856-.852L118.7,292.91l5.995,4c.551.365,1.178-.335.872-.867l-1.927-3.286a45.268,45.268,0,0,1,7.494,4.792.619.619,0,0,0,.872,0,.611.611,0,0,0,0-.867c-.856-1-1.713-2.023-2.585-3.043l6.836,3.895c.52.289,1.285-.35.887-.882l-1.529-2.145,5.429,3.21c.551.335,1.3-.35.918-.913L141,295.42l5.4,3.225c.566.335,1.346-.365.948-.943l-1.912-2.754a32.861,32.861,0,0,1,5.337,3.347.706.706,0,0,0,.9.041.7.7,0,0,0,.2-.878l-1.009-2.054,5.49,2.647c.6.289,1.346-.319.963-.958l-1.086-1.765,4.909,2.571c.489.259,1.285-.183,1.025-.776l-.474-1.156a29.9,29.9,0,0,1,5.888,2.83c.658.411,1.208-.365.948-.943-.367-.882-.749-1.75-1.116-2.617a29.683,29.683,0,0,1,5.567,3.043c.658.456,1.392-.548.841-1.1-2.355-2.373,4.037,1.2,3.64,1.05a9.2,9.2,0,0,0,2.2.9c.551.107,1.132-.472.78-1l-.551-1.324a12.135,12.135,0,0,1,2.936,1.521.674.674,0,0,0,.979-.4c1.529-.928,2.722-.745,3.441.517a.659.659,0,0,0,1.086-.274l2.233-.913a.615.615,0,0,0,.608,0,.608.608,0,0,0,.31-.52l81.971,6.907c24.974,2.1,49.947,4.412,75.013,5.066a.867.867,0,1,0,0-1.734c-43.876-1.263-87.676-5.629-131.4-9.25q-25.05-2.1-50.116-4.138l-.642-.259a.537.537,0,0,0-.642.152l-77.062-6.375a1.782,1.782,0,0,0-.856-.2,6.143,6.143,0,0,0-.826,0l-1.116-.091L48.83,283.781c-12.082-.958-24.683-1.248-36.7-3.332a5.557,5.557,0,0,1,.444-3.043,4.047,4.047,0,0,1,2.263-1.947,1.732,1.732,0,0,1-.138.456H14.39c-.321,0-.428.533-.076.593h.4a.8.8,0,0,0,1.208.183c9.5,1.521,19.269,1.658,28.828,2.373q16.088,1.187,32.116,2.449,32.116,2.525,64.323,5.325,63.834,5.553,127.591,12.171c23.934,2.465,47.929,4.473,72,3.286a4.445,4.445,0,0,0,2.217,1.81c.535.2.841-.35.719-.791a.414.414,0,0,0,.275-.107c9.069-7.789,17.618-16.142,26.365-24.342,8.381-7.8,17.128-15.137,25.754-22.653.627-.548-.2-1.643-.887-1.156l-.229.183c2.416-3.5,3.4-9.782.352-13.114-3.93-4.29-8.5,2.769-10.782,5.386-11.271,12.916-23.98,24.083-36.214,36.01a4.3,4.3,0,0,0-.459-1.841l-.688-1.917a.413.413,0,0,0-.8.213c.168.7.336,1.4.52,2.115a3.973,3.973,0,0,0,.642,1.75.414.414,0,0,0,.367.137h0a.278.278,0,0,0,.336.441c9.1-6.451,17.159-14.407,24.958-22.318q5.857-5.949,11.378-12.171c1.116-1.248,2.2-2.525,3.288-3.773,1.789-2.039,1.529-2.449,4.588-1.521s3.059,1.521,3.059,4.564a8.816,8.816,0,0,1-.107,1.111h-.107c-9.176,7.287-17.419,16.066-26,24.083s-17.251,16.111-25.693,24.342a.129.129,0,0,0,0,.183.13.13,0,0,0,.184,0c8.794-7.881,17.4-15.959,26-23.992s17.587-15.35,25.371-23.824a25.292,25.292,0,0,1-1.529,4.336.561.561,0,0,0,.229.669,291.116,291.116,0,0,0-24.24,20.979c-8.947,8.322-17.878,16.735-26.32,25.544v.091A10.155,10.155,0,0,1,341.5,296.5c17.924-15.64,35.725-32.04,52.272-49.109a.258.258,0,0,0-.01-.355.261.261,0,0,0-.357-.01c-17.419,16.172-34.578,32.679-51.9,48.957a26.946,26.946,0,0,1,.6-4.655,405.1,405.1,0,0,0,49.7-44.956c.306-.319-.168-.791-.474-.472a662.169,662.169,0,0,1-49.167,45.154c.382-1.841.872-3.621,1.285-5.188.107-.4-.5-.685-.7-.289a31.436,31.436,0,0,0-3.059,12.171c-14.33-1.354-28.873-1.187-43.249-2.176S267.66,293.29,253.284,292a.145.145,0,0,0,0,.289q21.517,2.6,43.142,4c14.406.958,28.95,2.6,43.264,2.191h0a10.6,10.6,0,0,0,.291,1.932c-42.056,2.389-84.51-4.458-126.276-8.489q-63.8-6.085-127.683-11.2-17.449-1.384-34.93-2.693c-11.5-.852-23.261-2.389-34.823-2.252a12.464,12.464,0,0,0,.612-1.643c15.156-.578,29.913.274,45.023,1.065a.213.213,0,0,0,0-.426,223.826,223.826,0,0,0-44.763-.928,18.438,18.438,0,0,0,.642-5.857c5.291-.426,10.583-.593,15.89-.578.138,0,.138-.213,0-.228a115.885,115.885,0,0,0-15.92.411,18.447,18.447,0,0,0-.933-4.4c8.381.213,16.822.487,25.173.578a.076.076,0,1,0,0-.152c-8.411-.319-16.822-.456-25.249-.654a17.858,17.858,0,0,0-1.132-2.6c9.084.532,18.214.593,27.3,1.065q17.067.867,34.134,1.658c22.435,1.019,44.916,2.4,67.366,2.815a.721.721,0,0,0,.566-.2.713.713,0,0,0,.214-.559c7.341,1.826,14.681,3.636,22.037,5.386,8.243,1.993,16.517,3.895,24.836,5.644,4.144.882,8.3,1.719,12.464,2.541,4.511.882,9.1,1.415,12.877,4.245a.552.552,0,0,0,.765-.122,1.241,1.241,0,0,0,.321.152.414.414,0,0,0,.52-.137c6.255.167,12.8-1.065,19.009-1.75q8.947-.989,17.862-2.16c4.588-.609,9.176-1.263,13.764-1.932a.319.319,0,0,0,.2.5c12.479,1.8,25.142,2.6,37.7,3.94,13.137,1.4,26.274,2.951,39.441,4.138,1.147.107,1.132-1.643,0-1.765-12.816-1.354-25.677-2.358-38.523-3.5-12.617-1.111-25.249-2.769-37.9-3.469,4.19-.624,8.4-1.278,12.586-1.947a.229.229,0,0,0,.153.107c10.078,1.8,20.753,1.674,30.984,2.4,10.828.791,21.869,2.252,32.727,2.206a.476.476,0,0,0,.2,0,.491.491,0,0,0,.7.2A135,135,0,0,0,369.7,261.57a4.592,4.592,0,0,0,4.1-2.358,13.028,13.028,0,0,0,1.529-3.834c7.647-6.77,14.437-14.194,21.716-21.3a.563.563,0,0,0,.107.183c12.77,15.031-5.949,32.466-16.578,41.959-9.176,8.2-19.5,16.065-26.656,26.2h-.229a.213.213,0,0,0-.076.411c-.994,1.445-1.942,2.936-2.8,4.473-.168.319.275.7.52.4,1.331-1.689,2.722-3.332,4.144-4.944,8.855-.624,17.266-3.621,26-5.325a51.77,51.77,0,0,1,15.293-.943c3.609.35,6.974.837,10.109-1.263a.32.32,0,0,0,.153-.2,41.765,41.765,0,0,0-1.392,4.96c-14.039,3.971-28.4,6.085-42.821,8.231q-22.664,3.347-45.375,6.451-46.751,6.374-93.655,11.456c-17.312,1.887-34.67,3.545-52,5.583-.214,0-.229.38,0,.35,31.06-2.449,62.029-6.39,92.952-10.163q45.528-5.568,90.948-12.019c16.624-2.358,33.461-4.366,49.672-8.824a64.524,64.524,0,0,0-1.071,15.214c.122,2.571.444,13.312,3.059,16.066h-.076q-106.823,14.331-214.2,24.342c-19.881,1.826-39.854,3.043-59.643,5.355a.5.5,0,0,0,0-.091,50.337,50.337,0,0,0,3.257-13.449l.994.35c.138,0,.245-.183.092-.243l-.979-.426c14.284-.669,28.613-2.5,42.821-3.895q21.869-2.176,43.708-4.64c28.476-3.21,57.227-6.085,85.473-11.06.306,0,.229-.578-.076-.548-28.812,3.164-57.5,7.607-86.3,10.954q-21.41,2.465-42.821,4.564c-14.269,1.445-28.659,2.267-42.821,4.062q.229-2.16.321-4.336a834.1,834.1,0,0,1,125.144-12.429.213.213,0,1,0,0-.426,611.745,611.745,0,0,0-125.129,12.247c0-1.384,0-2.769,0-4.138v-2.48c9.833-.745,19.147-3.986,29.057-4.016a.3.3,0,0,0,0-.593c-9.818-1.1-19.422,3.043-29.057,4.092a37.544,37.544,0,0,0-2.8-14.1c24.469,1.384,49.58-2.4,73.682-5.736,25.693-3.56,51.324-7.774,77.185-10.026.6,0,.6-.974,0-.928-24.76,2.176-49.29,6.085-73.881,9.6-12.953,1.826-26,3.53-38.967,4.731-12.754,1.171-25.478,1.308-38.233,1.841a16,16,0,0,0-1.529-2.48.414.414,0,0,0-.528-.094.41.41,0,0,0-.175.5,38.218,38.218,0,0,1,3.4,11.593c-14.743-6.572-29.623-12.719-44.151-19.778s-29.057-14.772-43.234-22.82a.212.212,0,0,0-.214.365c27.971,16.172,57.319,31.583,87.676,42.872a58.572,58.572,0,0,1,.107,12.034c-23.383-11.988-47.761-22.44-71.71-33.257-.153-.076-.306.167-.138.243,23.567,11.471,47.348,23.444,71.648,33.744q-.184,1.81-.413,3.606c-15.171-6.451-30.387-12.627-45.237-19.778C74.309,320.2,59.337,312.079,44.563,303.62V301.9l-.092-3.195a69.7,69.7,0,0,0,12.8,7.713c.245.122.459-.228.214-.35a120.754,120.754,0,0,1-13.03-7.926,34.81,34.81,0,0,1,.245-5.37c25.05,14.1,50.712,28.1,77.108,39.555.336.152.658-.335.306-.517-25.769-13.373-51.767-25.848-77.383-39.555a16.15,16.15,0,0,1,2.447-6.633c.4-.608-.535-1.339-1.009-.791-3.655,4.321-3.349,9.934-3.212,15.29.107,4.245-.382,9.372.459,13.89l-.367-.167c-.2,0-.367.183-.168.289l.612.335a15.783,15.783,0,0,0,1.529,4.321l-1.223-.593c-.413-.2-.765.38-.367.609,28.843,15.9,58.5,30.594,87.874,45.534.734.38,1.392-.715.658-1.111C103.35,348.333,74.8,333.073,45.7,319.107a.257.257,0,0,0,0-.274,19.693,19.693,0,0,1-.918-3.651c14.009,7.5,28.613,14.1,42.821,21.086,14.972,7.348,29.868,14.848,44.947,21.968.092,0,.168-.091,0-.137-14.819-7.607-29.852-14.833-44.794-22.227-14.345-7.09-28.583-14.7-43.188-21.3a31.392,31.392,0,0,1-.245-3.195,88.942,88.942,0,0,0,9.176,4.108c.214,0,.336-.259.153-.365a100.435,100.435,0,0,0-9.268-4.214v-7.09C59.107,312.763,74.37,320.9,89.892,328.4a459.311,459.311,0,0,0,44.7,19.367c-.214,1.43-.444,2.86-.688,4.275a648.745,648.745,0,0,1-75.64-34.306c-.2-.107-.367.2-.184.3a430.377,430.377,0,0,0,75.946,34.4c-.581,3.043-1.254,6.177-1.958,9.128a.621.621,0,0,0,.153.609c-.428.213-.4.928.168.913,35.832-1.521,71.771-5.918,107.45-9.508s71.541-7.607,107.236-11.836q30.219-3.651,60.377-7.607a.888.888,0,0,0,.7-.377.879.879,0,0,0,.115-.779,1.537,1.537,0,0,0,.459,0,.4.4,0,0,0,.306-.578,3.356,3.356,0,0,1,1.529.761c-.076.852-.138,1.7-.214,2.556.673,1.9.214,2.845-1.376,2.8-1.7.867-5.475.624-7.356.837l-13.764,1.521-27.65,3.043-56.233,6.085L192.433,362.177l-30.418,3.362c-10.17,1.111-20.447,1.765-30.586,3.438-.5.091-.4.913.122.9,10.476-.517,20.906-2.13,31.336-3.225l14.33-1.521a.352.352,0,0,0,.275.137c16.471,1.08,33.125.943,49.626,1.339s33.094.761,49.642,1.111,32.636.685,48.938,1.415c15.492.7,33.293.213,47.684,6.664,0,.685.092,1.354.107,2.054a.8.8,0,0,0,1.346.548l2.814,2.191v.639q-88.945-4.975-178.119-4.214a.114.114,0,1,0,0,.228q89.144,0,178.135,5.005v5.751a6.977,6.977,0,0,1-.107,1.689c.076,1.415-.887,1.993-2.86,1.765a.788.788,0,0,0-.153-.7.8.8,0,0,0-.657-.29c-44.992.958-89.954-.958-134.87-3.575-44.625-2.586-89.251-5.446-133.876-8.185-24.928-1.521-49.9-3.53-74.936-4.366a9.547,9.547,0,0,0,2.156-4.64c48.571,2.389,97.157,5.462,145.759,7.318.214,0,.214-.335,0-.35-48.449-3.621-97.157-5.507-145.7-7.516a15.135,15.135,0,0,0-.168-4.321c21.579,2.738,43.448,3.895,65.149,5.127s43.494,2.115,65.241,2.815c43.555,1.384,87.171,2.023,130.665,3.24,24.836.685,49.657,1.75,74.478,2.83a.32.32,0,0,0,0-.639c-87.263-5.31-174.816-3.864-262.109-8.58-24.622-1.445-49.015-3.727-73.56-5.4q-.214-1-.5-1.963c9.742.365,19.483.532,29.241.791,19.5.532,39.013,1.278,58.512,1.308a.352.352,0,0,0,.306-.167q5.307,2.632,10.705,5.233c.673.319,1.254-.654.581-1q-8.488-4.442-17.052-8.793a.606.606,0,0,0-.023-.565.612.612,0,0,0-.481-.3l-1.376-.107q-12.755-6.466-25.509-12.871c-3.334-1.689-6.714-3.332-10.109-4.975-.566-.715-1.1-1.521-1.636-2.221a.764.764,0,0,0-1.025-.335.757.757,0,0,0-.336,1.019s0,0,0,.076l-3.487-1.6-.489-.472a.66.66,0,0,0-.765-.137l-3.839-1.917c-.122-.152-.245-.289-.352-.441a.583.583,0,0,0-.78-.137q-2.4-1.2-4.771-2.465a.792.792,0,0,0-.153-.167.552.552,0,0,0-.535-.2c-4.588-2.495-9.176-5.127-13.565-8.033-.444-.289-.963.38-.566.73a50.351,50.351,0,0,0,5.077,3.712c.168,1.278.336,2.571.52,3.849-.535-1.415-1.071-2.83-1.529-4.245a.643.643,0,0,0-1.254.167v.32a.46.46,0,0,0-.688,0l-1.071,1.354a.534.534,0,0,0-.489.441v.243l-2.63,3.286A.534.534,0,0,0,41.7,334a.636.636,0,0,0,0,.091c-2.554,3.149-5.169,6.253-7.784,9.356a.738.738,0,0,0-.321-.106c-2.936-.107-5.873,0-8.794.167a24.911,24.911,0,0,0-7.647,1.05c-.214.091-.291.456,0,.517A30.885,30.885,0,0,0,24.8,345c2.692-.122,5.368-.183,8.059-.3-3.594,4.229-7.188,8.444-10.705,12.7a.5.5,0,0,0-.06.552.505.505,0,0,0,.488.269c.535,3.59,5.368,3.94,8.61,4.077a11.3,11.3,0,0,1,.4,1.947h0c-.336,0-.306.456,0,.487h0c.214,3.377-1.208,6.587-2.768,9.737a.606.606,0,0,0,.163.781.614.614,0,0,0,.8-.051h0a.58.58,0,0,0,.52.456c44.35,3.986,89.037,5.705,133.494,8.444,44.794,2.769,89.6,5.827,134.457,7.47,25.05.913,50.116,1.293,75.181.806a2.7,2.7,0,0,0,3.823,1.278c2.263-1.08,2.217-3.986,2.217-6.085,0-1.308.2-3.18.184-5.005h.184a.517.517,0,0,0,0-1.035h-.214a6.519,6.519,0,0,0-1.33-4.016,3.07,3.07,0,0,0-3.655-.746l-.214-.578a.668.668,0,0,0,.122-1.232c-5.827-3.164-12.143-4.351-18.688-5.081-8.2-.913-16.471-1.445-24.714-1.871-16.822-.852-33.767-1-50.666-1.339-17.159-.335-34.3-.745-51.461-1.065-15.293-.274-30.586-1-45.879-.9l11.195-1.171,56.86-6.085a.245.245,0,0,0,.184.137l4.741,1.263c.5.122.887-.669.367-.882a10.565,10.565,0,0,0,4.053,1.08.582.582,0,0,0,.482-.291.575.575,0,0,0,.007-.561c1.132-1.156,2.11-1.217,2.952-.2.444.335.9-.213.826-.639-.291-1.826,6.209.472,7.188.5a.563.563,0,0,0,.4-.958l-.367-.487a23.8,23.8,0,0,0,3.915,1,.582.582,0,0,0,.646-.267.576.576,0,0,0-.08-.691c-.184-.2-.367-.38-.566-.563l5.934,1.613a.6.6,0,0,0,.614-.209.591.591,0,0,0,.059-.643l-.581-1,5.857,1.856a.6.6,0,0,0,.613-.22.591.591,0,0,0,.044-.647l-1.162-1.613a31.164,31.164,0,0,0,5.062,1.263.613.613,0,0,0,.658-.291.606.606,0,0,0-.077-.713l-.52-.639a47.185,47.185,0,0,1,7.157,2.814c.535.259,1.254-.3.872-.867a13.859,13.859,0,0,0-.979-1.263l5.811,2.343c.658.259,1.009-.639.642-1.08l-2.462-2.784,7.234,2.83c.688.274,1.086-.791.489-1.156a10.06,10.06,0,0,1-3.257-2.967l10.353,4.169c.627.259,1.086-.654.642-1.08l-3.212-3.043c2.967,1.035,5.873,2.176,8.748,3.469.627.274,1.453-.532.811-1.05a24.418,24.418,0,0,1-2.967-2.769l9.054,3.53c.658.259,1.04-.654.642-1.1l-2.753-3.043a50.472,50.472,0,0,1,6.484,3.043.639.639,0,0,0,.658-1.1,24.088,24.088,0,0,1-3.3-2.951l10.8,4.807c.642.274,1.331-.456.8-1.019l-3.67-3.636a45.625,45.625,0,0,1,8.7,4.366c.7.456,1.269-.5.826-1.05l-3.059-3.834a32.2,32.2,0,0,1,8.014,3.56c.673.411,1.315-.517.811-1.065l-4.1-4.473a41.936,41.936,0,0,1,9.344,4.138.66.66,0,0,0,.87-.158.652.652,0,0,0-.075-.877l-2.814-2.708q4.1,1.689,8.105,3.651c.658.335,1.438-.517.826-1.08l-3.716-3.377a28.774,28.774,0,0,1,5.628,2.662.628.628,0,0,0,.765-.974l-2.432-2.541a20.746,20.746,0,0,1,4.986,2.221c.658.411,1.223-.456.78-.989l-1.759-2.054,2,.563c.551.426,1.331-.319.78-.776a5.654,5.654,0,0,0-3.059-1.521l10.782-1.156,2.523-.259a.575.575,0,0,0,0,.243,185.9,185.9,0,0,0-.489,33.774,8.321,8.321,0,0,0-1.239-2.434,5.03,5.03,0,0,0-5.964-1.917,263.022,263.022,0,0,0,2.248-26.608c0-.5-.7-.472-.765,0a262.036,262.036,0,0,0-2.309,26.776c-3.747-3.469-8.534-4.564-13.519-5.142-7.371-.822-14.8-1.2-22.19-1.765-15.614-1.171-31.259-1.8-46.9-2.282-15.293-.487-30.495-.715-45.742-.928-7.861-.107-15.706-.107-23.567-.152s-15.752-.7-23.551,0a.137.137,0,0,0,0,.259c7.2.73,14.513.243,21.747.335s14.5.335,21.747.487c14.62.289,29.225.73,43.845,1.217s29.439,1.141,44.151,1.963c7.05.4,14.1.745,21.135,1.263,7.647.563,15.951.548,22.221,5.4h0c-.535.441.138,1.156.688.9,7.647-3.636,6.316,10.147,5.781,13.8a35.618,35.618,0,0,1-1.193,5.812c-.964,3.043-4.94,7.059-6.974,2.48-.306-.685-1.315-.289-1.33.365a3.028,3.028,0,0,0,.076.852Q237.2,393.152,100.98,383.826q-38.279-2.48-76.512-5.446a16.707,16.707,0,0,1,1.239-2.236.2.2,0,0,0,.153-.228,19.347,19.347,0,0,1,3.3-3.864.552.552,0,0,0,.45-.124.546.546,0,0,0,.192-.423l.2-.183c.321-.259-.092-.761-.428-.563l-.138.091c-3.273-4.823-6.867-9.4-10.032-14.316a.353.353,0,0,0-.5-.137.491.491,0,0,0-.734.091c-2.952,4.153-2.386,9.98-2.049,14.788a134.445,134.445,0,0,0,2.34,18.256.289.289,0,0,0,.168.228c7.172,9.934,15.492,19.093,23.368,28.48q12.495,14.864,25.05,29.712c.489.593,1.33-.259.841-.837q-12.235-14.559-24.393-29.073c-8-9.508-15.706-19.428-24.377-28.358a.319.319,0,0,0,.092-.243c-.153-2.176-.352-4.336-.566-6.5,8.427,10.223,17.144,20.219,25.708,30.138,8.35,9.676,16.471,19.61,25.142,29.012a43.786,43.786,0,0,1-1.361,4.564c-.214.563.734.974.979.411a33.825,33.825,0,0,0,1.422-3.879c.184.2.459-.091.291-.3l-.138-.183a41.9,41.9,0,0,0,1.529-11.836h0c21.5-1.521,42.913-4.564,64.445-6.085s43.111-2.145,64.659-3.453a.2.2,0,0,0,0-.38c-21.839,0-43.8,1.658-65.577,3.286-21.12,1.521-42.637,2.769-63.558,6.192A100.2,100.2,0,0,0,68.6,408.213a.745.745,0,0,0-.153-.289c34.547-.639,69.14-2.845,103.657-4.564,36.566-1.78,73.407-3.271,109.759-7.3a.719.719,0,0,0,.535-.319l14.253.654q38.814,1.719,77.659,3.119h.122a4.744,4.744,0,0,0,4.4,1.019c4.206-1.08,5.108-6.785,5.72-10.284v-.137a82.648,82.648,0,0,0,10.629,1c.719,0,1.529.107,2.34.137a42.24,42.24,0,0,0-3.64,10.513c-82.583,6.846-165.166,12.095-247.749,16.872-23.429,1.354-46.889,2.4-70.348,4.062-.4,0-.413.639,0,.624,41.643-1.81,83.256-4.807,124.869-7.272s83.225-5.218,124.792-8.291q34.18-2.541,68.345-5.34a44.119,44.119,0,0,0-.352,13.966,1022,1022,0,0,1-107.129,8.657.237.237,0,0,0,0,.472,821.412,821.412,0,0,0,107.251-8.368,42.411,42.411,0,0,0,1.759,7.272.64.64,0,0,0,.382.426c-20.141,4.762-40.894,4.7-61.494,5.249q-32.269.867-64.552,2.4-64.965,3.043-129.793,8.733c-23.857,2.084-48.066,3.545-71.725,7.3a.441.441,0,0,0,.107.867c21.762-1.308,43.478-4.305,65.195-6.238s43.509-3.651,65.3-5.142q65.348-4.473,130.848-6.161c22.94-.609,46.4,0,68.712-6.085-.581,1.7-1.178,3.408-1.774,5.1a15,15,0,0,1-3.288.548c-1.132.122-2.294.152-3.441.228l-8.212.487c-5.475.3-10.95.609-16.41.882q-16.914.867-33.783,1.521c-21.93.913-43.845,1.689-65.761,2.556-44.09,1.75-88.2,3.834-132.1,8.307-11.562,1.187-23.093,2.525-34.593,4.092-12.235,1.673-25,4.975-37.285,2.1a.167.167,0,0,0,0-.183,199.265,199.265,0,0,0-20.2-29.149c-4.022-4.9-8.182-9.676-12.235-14.483s-8.136-10.391-12.938-14.651a.439.439,0,0,0-.08-.377.444.444,0,0,0-.348-.17c-3.762,0-1.376-24.6-1.254-27.384q.275-6.085.489-12.171c0-.958-.428-5.005.168-5.629,1.223-1.248,2.172-.35,3.212.137.321.152.749-.274.413-.532-1.193-.943-2.508-3.971-4.3-2.145-1.239,1.278-.535,6.587-.627,8.17-.2,3.743-.382,7.5-.535,11.243-.321,7.607-.78,15.32-1.1,22.988-.092,2.373-.275,6.816,3.059,6.3,3.059,4.747,7.356,8.869,11.057,13.145,4.16,4.777,8.35,9.524,12.464,14.362a299.377,299.377,0,0,1,22.267,30.534l-.841-.2a.308.308,0,1,0-.168.593c10.032,3.453,20.738,1.141,30.938-.228q18.933-2.541,37.912-4.564c24.469-2.525,49.076-4.305,73.682-5.705,48.663-2.769,97.387-3.879,146.08-5.994,13.993-.609,27.986-1.263,41.98-2.13,3.257-.2,7.891-.076,9.879-3.256a4.383,4.383,0,0,0-1.269-6.268.7.7,0,0,0-1.086.365l-1.728.411a.621.621,0,0,0,.122-.578,54.868,54.868,0,0,1-1.407-7.166c.336-.107.26-.715-.107-.715a50.37,50.37,0,0,1,.336-13.905h.2c.413,0,.413-.685,0-.639H395.6a55.911,55.911,0,0,1,2.921-10.391,5.648,5.648,0,0,0,3.609-1.171c1.682-1.521,1.789-4.99-.841-5.325-.474,0-.489.578-.214.791q.849,4.564-2.661,4.305h-.933c-1.407,0-2.829-.152-4.236-.213a76.045,76.045,0,0,0-8.534,0c.107-.639.229-1.324.352-2.023a65.016,65.016,0,0,0,14.957-1.521c.367-.091.306-.715-.092-.685-3.976.35-7.922.822-11.883,1.232a.485.485,0,0,0-.107-.487c-.306-.3-.581-.639-.856-.958h.336a.613.613,0,0,0,.658-.291.606.606,0,0,0-.077-.713,10.069,10.069,0,0,1-1.009-1.521,9.836,9.836,0,0,1,3.166.441c.734.259.994-.761.489-1.156a10.969,10.969,0,0,1-1.529-1.521,1.232,1.232,0,0,1,.566.091c.551.107,1.162-.639.627-1.065l-.688-.593a.667.667,0,0,0,.245-.852h.306c.749.654,1.529,1.308,2.263,1.932a27.348,27.348,0,0,0,6.775,4.686c.5.2.826-.517.5-.852a70.754,70.754,0,0,0-7.111-5.386c-2.263-1.81-4.359-3.788-6.561-5.659.459-9.828.811-19.778.765-29.53a.607.607,0,0,0-.122-.35L400.7,341.3c3.579-.38,8.61,0,11.806-2.023,5.827-3.575-.719-8.154-4.71-8.9h-.184a53.6,53.6,0,0,1-1.529-10.087,69.775,69.775,0,0,1-.26-9.128c.275-6.892,2.11-13.053,3.716-19.656a32.708,32.708,0,0,0,3.2-1.05.411.411,0,0,0-.214-.791,227,227,0,0,1-27.237,3.043c-7.845.335-15.706.761-23.276,3.043,1.376-1.369,2.768-2.708,4.175-4.047a193.379,193.379,0,0,0,43.142-4.975,21.786,21.786,0,0,1,3.655,2.738c.4.365.9-.183.581-.593a16.883,16.883,0,0,0-3.059-3.043h-.076a28.174,28.174,0,0,0-8.641-4.077c-6.209-1.886-12.235-2.936-18.229-5.583a.476.476,0,0,0-.352,0c1.958-1.826,3.915-3.666,5.842-5.538,9.681-9.493,20.019-24.859,9.176-37.456a.6.6,0,0,0-.153-.122l.214-.2c.413-.4-.138-1.156-.612-.791s-.474.365-.719.563h0c-4.588-1-9.421-.761-14.054-1.111l-6.943-.532h-5.138a3.592,3.592,0,0,0-4.68-.563.6.6,0,0,0-.459-.365,56.858,56.858,0,0,1-12.571-2.008c3.456-1.278,6.913-2.556,10.369-3.788,4.5-1.613,9.176-3.043,13.55-4.838a12.4,12.4,0,0,0,6.194-4.442c3.4-5.218,3.166-13.6,2.34-19.778l6.515-.593c4.45-.411,8.962-.669,13.4-1.217a7.993,7.993,0,0,0,4.955-1.826c2.126-2.191,1.009-6.085-2.248-6.085a1,1,0,1,0,0,2.008c.184,2.814-.9,4.092-3.273,3.849l-3.67.35-6.423.609L381.043,193.6q-12.846,1.187-25.662,2.4-22.94,2.191-45.879,4.305a.369.369,0,0,0-.428,0l-5.995.563c-17.281,1.613-34.563,3.362-51.859,4.838-16.639,1.415-33.186,1.628-49.856,2.084.092-1.065.168-2.13.2-3.195a.636.636,0,0,0,0-.3c8-1.126,15.63-.472,23.75,0a148.667,148.667,0,0,0,25.876-1.187l51.14-5.675c34.685-3.849,69.4-7.5,104.085-11.365,1.3-.137,1.315-2.191,0-2.039l-2.034.228c-2.737-6.511-1.988-12.582.872-18.956a.469.469,0,0,0,0-.2c2.325-.319,4.664-.624,6.974-.958a.759.759,0,0,0,.428-1.187h0c1.682-2.891-1.025-3.834-4.879-3.956a184.908,184.908,0,0,0-39.946-6.3,14.889,14.889,0,0,0,3.426-7.47,1.536,1.536,0,0,0,1.361.183c1.912-.472,1.728-4.64,1.85-5.842.918-8.535,2.386-20.112-2.172-27.947,3.624-.411,7.234-.806,10.858-1.141,9.375-.867,32.789,1.4,32.039-13.692a.9.9,0,0,0-1.789,0,3.188,3.188,0,0,1,0,.38h0a6.5,6.5,0,0,0-6.454,0c-1.529-13.3-1.116-26.3,2.768-39.342a.74.74,0,0,0-.031-.152ZM183.181,296.059c-.214.274-.413.563-.551.578a12.042,12.042,0,0,1-2.1-.806Zm-5.2-.441a.621.621,0,0,0,0,.335c.076.4.138.685.184.9-.581-.441-1.178-.943-1.8-1.369Zm-5.169-.472a1.886,1.886,0,0,0-.658.974c-.7-.441-1.407-.837-2.126-1.2Zm-7.234-.609c.291.669.566,1.324.856,1.978a31.045,31.045,0,0,0-5.811-2.389h0Zm-5.154-.426a.69.69,0,0,0-.544.272.682.682,0,0,0-.114.595l.321.806c-1.269-.685-2.554-1.354-3.839-2.023Zm-6.882-.487a1,1,0,0,0,.092.335l1.178,1.917-5.184-2.51a.706.706,0,0,0-.836.124.7.7,0,0,0-.112.834c.229.487.459.958.7,1.43a35.422,35.422,0,0,0-5.628-3.012ZM140.268,292.5l2.845.243a.713.713,0,0,0-.336.989l1.529,2.191-5.368-3.164c-.551-.335-1.315.35-.918.913l.994,1.445c-1.789-1.065-3.594-2.115-5.4-3.164Zm-7.494-.624a.577.577,0,0,0-.214.852l1.682,2.282-6.285-3.545Zm-6.653-.563a.637.637,0,0,0,.138.578l1.7,1.993a48.024,48.024,0,0,0-5.138-2.845Zm-4.588-.38a.576.576,0,0,0-.092.73l1.529,2.738-5.643-3.819Zm-6.224-.517a.47.47,0,0,0,.092.335l2.967,3.94-7.2-4.564Zm-5.444-.456a.606.606,0,0,0,0,.563,18.8,18.8,0,0,0,1.529,2.6l-4.5-2.86c-.459-.3-1.116.3-.78.776l1.927,2.586q-3.059-2.1-6.117-4.169c-.489-.335-1.025.3-.765.776.489.867.963,1.75,1.529,2.632l-6.347-4.123Zm-20.676-1.81,6.377.532a.561.561,0,0,0-.168.715l1.193,1.947a32.669,32.669,0,0,0-4.466-2.678.583.583,0,0,0-.671.108.576.576,0,0,0-.109.668c.321.685.673,1.339,1.025,1.963l-2.737-2.16a.645.645,0,0,0-.627-.107A1.908,1.908,0,0,0,89.189,288.148Zm-.535,1.521a.455.455,0,0,0,.076.213l.749,1.384a14.229,14.229,0,0,0-1.392-1.141,2.065,2.065,0,0,0,.612-.411Zm-14.941-2.875,12.082,1.019a1.514,1.514,0,0,0,.092.624h0a1.2,1.2,0,0,0,0,.35l-1.529-.974c-.474-.274-.872.259-.688.7l.321.745-1.713-1.217c-.382-.259-.841.183-.749.578a5.593,5.593,0,0,0,.275.852c-1.269-.578-2.554-1.156-3.839-1.7-.566-.243-1.071.548-.489.837s.8.4,1.208.578c-2.11-.867-4.221-1.734-6.347-2.571ZM62.7,245.961a.227.227,0,0,0,0,.107c-.413,1.019-.826,2.039-1.223,3.043v-2.784Zm-3.747,1,.811-.2c-.367.715-.8,1.521-1.055,1.993a14.653,14.653,0,0,0,.168-1.8Zm-3.059.624,1.178-.213c-.413.745-.811,1.521-1.208,2.236a14.823,14.823,0,0,1-.107-2.023Zm-3.67.654h0l1.3-.259-1.7,1.6c.061-.441.168-.9.26-1.339Zm-2.845.35,1.529-.2c-.444.624-1.04,1.4-1.529,1.384s-.336-.563-.138-1.187Zm-10.4,1.263c2.508-.335,5.123-.624,7.784-.943A11.882,11.882,0,0,0,46,250.023c-.229.38.352.715.6.35a15.68,15.68,0,0,1,1.178-1.521h.52a12.769,12.769,0,0,1-.6,2.449.5.5,0,0,0,.19.508.507.507,0,0,0,.544.04,14.028,14.028,0,0,0,2.4-1.871c-.092.365-.168.715-.245,1.08a.5.5,0,0,0,.245.546.507.507,0,0,0,.6-.074c2.4-2.252,4.007-5.249,3.212.472,0,.517.612.928.918.38.765-1.415,1.529-2.83,2.309-4.245,0,.867-.138,1.719-.214,2.571a.487.487,0,0,0,.9.243,39.327,39.327,0,0,0,2.2-3.727c.107,0-.7,6.268-.535,5.2a.491.491,0,0,0,.948.259l1.789-4.321a27.35,27.35,0,0,1,.122,3.362c0,.533.8.806,1.04.289a26.946,26.946,0,0,0,1.315-3.484l.642,3.682c.092.578,1.025.548,1.147,0,.306-1.43.612-2.86.9-4.29a29.243,29.243,0,0,1,1.529,4.442.628.628,0,0,0,1.208,0,11.163,11.163,0,0,0,.6-2.556c.979,1.521,1.958,3.043,2.921,4.564a.658.658,0,0,0,1.193-.5l-.459-3.438c.673.989,1.361,1.963,2.034,2.936a.657.657,0,0,0,1.208-.5c-.138-.73-.26-1.521-.4-2.176l2.875,3.195c.489.563,1.223,0,1.132-.654l-.459-2.693,2.4,2.556a.7.7,0,0,0,1.178-.487,7.164,7.164,0,0,0-.229-1.43l2.753,2.389a.706.706,0,0,0,.857.114.7.7,0,0,0,.321-.8l-.138-.654,2.569,2.084a.736.736,0,0,0,1.208-.319c-.153.5,3.059,1.643,3.655,1.643a.732.732,0,0,0,.734-.715v-.243c1.208.685,2.508.669,4.1,1.521a.721.721,0,0,0,.963-.259l1.178-.335a.737.737,0,0,0,.711-.055.729.729,0,0,0,.329-.63l13.657,3.362,8.059,2.008c-18.352-1.08-36.872-1.673-55.285-2.8-10.124-.624-20.279-1.247-30.4-1.978-9.176-.654-18.352-2.312-27.528-2.693,8.809-.472,17.572-1.8,26.243-2.967Zm24.469-4.123,1.82-.609h.138a.489.489,0,0,0-.474.38,27.268,27.268,0,0,1-.918,3.423c-.076-.958-.184-1.917-.336-2.891a.427.427,0,0,0-.306-.3Zm2.386-.472,1.529.38a.41.41,0,0,0-.107.2c-.214,1.019-.428,2.039-.658,3.043-.2-1.111-.413-2.236-.627-3.362a.381.381,0,0,0-.214-.259Zm8.059,5.933c-.826-1.248-1.652-2.5-2.462-3.758a.628.628,0,0,0-1.147.32,8.385,8.385,0,0,1-.107,2.236,35.239,35.239,0,0,0-1.728-4.092l5.4,1.354a.487.487,0,0,0-.4.563c.076,1.126.214,2.252.367,3.377Zm2.34-2.617.275,1.521-1.881-2.647h0l1.835.533a.7.7,0,0,0-.306.593Zm1.285-.4,2.309.578c.138.791.26,1.521.4,2.373Zm12.342,3.043,5.4,1.354a.924.924,0,0,0,0,.228c.076,1.841-1.346-.867-2.829-.654a1.78,1.78,0,0,0-.933.35Zm7.218,1.8,3.854,1.05a4.329,4.329,0,0,1-3.93-.989ZM77.2,261.646q-16.608-.669-33.217-1.293c-11.256-.426-22.527-1.521-33.783-1.613A10.311,10.311,0,0,1,9.053,255.7a8.854,8.854,0,0,1,0-2.3c9.574,1.886,19.713,1.81,29.424,2.693,10.43.943,20.86,1.932,31.32,2.723,20.845,1.521,41.827,3.271,62.7,3.575a.827.827,0,0,0,.749-.411l7.968,1.978c-21.426-1-42.79-1.43-64.124-2.282Zm140.7,15.929h-.107a.395.395,0,0,0-.245.578,3.907,3.907,0,0,0-.428,2.176,6.378,6.378,0,0,0,.138.745c-5.383-3.651-13.183-3.925-19.361-5.188q-12.464-2.571-24.882-5.4c-13.382-3.043-26.687-6.3-39.992-9.63a.859.859,0,0,0-.535-.228h-.459l-11.21-2.769-36.7-9.311-.2-.167a.691.691,0,0,0-.826-.091L69.522,244.85l-2.845-.715a.425.425,0,0,0-.151-.332.43.43,0,0,0-.354-.094l-.8.076c-15.737-4.092-31.6-8.9-47.562-11.73a.545.545,0,0,0,0-.38c-.6-1.08-.948-2.769.214-3.545h.122c16.226,5.051,32.926,8.824,49.382,13.023,16.822,4.29,33.568,8.672,50.467,12.764,16.547,4.032,33.156,7.744,49.733,11.684s33.492,8.58,50.467,11.714a.934.934,0,0,0-.4.319ZM84.922,346.659,89.51,349a.683.683,0,0,0-.26.776v.259c-1.636-1.171-3.242-2.358-4.833-3.59Zm-10.705-5.386c.138.35.275.715.4,1.08l-1.835-1.81ZM68.3,338.231c.2.685.413,1.354.612,2.023l-2.294-2.875Zm-6.117-3.043,1.208.609c.352,1.05.688,2.115,1.04,3.18-1.086-1.521-2.187-2.936-3.364-4.351Zm-4.588-2.282c.336,1.339.673,2.662.994,4l-3.059-5.081Zm-4.068-2.16a.742.742,0,0,0,0,.259l.78,4.777-3.212-6.42C52,329.848,52.776,330.3,53.525,330.746Zm-6.714-1.734v4.29c-.336-1.019-.673-2.023-.994-3.043a12.707,12.707,0,0,0,1.055-1.248Zm-2.737,3.621-.688,3.819a12.017,12.017,0,0,1-.642-2.069Zm-3.227,4.214c-.122.685-.214,1.369-.275,2.1s.856.639.918.122a26.608,26.608,0,0,1,.566-2.875,17.237,17.237,0,0,0,1.086,2.48.628.628,0,0,0,1.132-.152c.352-1.917.7-3.834,1.071-5.751.52,1.613,1.04,3.21,1.529,4.823a.643.643,0,0,0,1.254-.167q0-2.944,0-5.888c.78,2.069,1.529,4.153,2.325,6.238.229.609,1.346.578,1.254-.167l-.78-5.751c1.392,2.815,2.8,5.614,4.175,8.413.352.73,1.315.183,1.208-.5-.306-1.9-.627-3.8-.933-5.705l4.4,7.242A.673.673,0,0,0,61,340.787l-1.361-5.8a84.915,84.915,0,0,1,6.408,8.641c.413.624,1.529.243,1.269-.533l-1.529-4.473,4.389,5.523c.459.578,1.392,0,1.193-.685-.321-1.08-.642-2.16-.979-3.24l5.276,5.127a.737.737,0,0,0,.888.111.729.729,0,0,0,.335-.826c-.107-.441-.245-.882-.367-1.324a49.231,49.231,0,0,0,3.961,4.229.76.76,0,0,0,1.193-.913l-.352-.822c2.783,2.252,5.628,4.412,8.564,6.466.52.38,1.116-.137,1.162-.654a3.208,3.208,0,0,1,.076-.806l2.325,1.1a.812.812,0,0,0,1.529-.259l13.2,6.679c-13.244-.837-26.534-1.141-39.762-1.521-14.666-.411-29.47-1.08-44.151-.426a239.364,239.364,0,0,0,16.639-19.534Zm-9.619,24.342-.184-.487a.306.306,0,1,0-.551.228l.092.243c-3.242-.091-6.653-.685-7.647-3.56l.566-.593c14.88.867,29.852.669,44.748,1.1,14.238.426,28.476,1.217,42.714,1.689l7.6,3.8c-15.859-.791-31.749-1.08-47.638-1.521l-23.766-.624-11.9-.3c-1.071.015-2.493.091-3.976.076Zm223.708-3.606-2.172-.411,2.233-.243a2.12,2.12,0,0,0,0,.7Zm4.588.2c-.428.076-1.453-.609-2.416-1.065l3.212-.335c-.5.669-.979,1.476-.8,1.445Zm8.87-2.267,1.361-.137v.122l.566.715c-.52-.213-1.162-.426-1.927-.654Zm3.456-.365,1.529-.167v.091l.749.761a23.526,23.526,0,0,1-2.279-.639Zm4.313-.456,3.9-.426a.591.591,0,0,0,0,.578l.627,1.065Zm5.077-.548,3.716-.4a.575.575,0,0,0,0,.228l1.269,1.765Zm5.628-.593,3.059-.335a.667.667,0,0,0,.122.639l.7.852a30.909,30.909,0,0,1-3.884-1.111Zm9.619-.837c-.719-.289-1.055.776-.5,1.171a9.736,9.736,0,0,1,1.652,1.278,50.271,50.271,0,0,0-6.117-2.115l8.992-.958a.7.7,0,0,0,.153.517l2.416,2.754Zm5.766-.806,3.548-.38a12.513,12.513,0,0,0,1.529,2.4Zm6.117-.639,4.053-.441a.607.607,0,0,0,.184.533l2.89,2.754Zm5.995-.639,5.307-.578a.637.637,0,0,0-.138.822,27.6,27.6,0,0,0,1.973,2.373c-2.4-.913-4.787-1.81-7.2-2.571Zm12.724-1.278c-.658-.213-1.055.639-.642,1.1.887.974,1.774,1.932,2.646,2.906l-8.625-3.377,9.665-1.034a.622.622,0,0,0,.107.259,27.79,27.79,0,0,0,1.82,2.13,52.77,52.77,0,0,0-5.031-1.932Zm25.662,1.354a32.736,32.736,0,0,0-6.851-2.343.69.69,0,0,0-.76.325.682.682,0,0,0,.1.816l2.065,2.571a47.821,47.821,0,0,0-8.534-3.56.674.674,0,0,0-.735.318.667.667,0,0,0,.093.792l3.181,3.225-9.283-4.108,17.587-1.871a.637.637,0,0,0,.153.593Zm-1.254-4.032,4.833-.517a.7.7,0,0,0-.138,1.065l1.912,1.826a42.618,42.618,0,0,0-6.668-2.328ZM367,345.244a.628.628,0,0,0-.683.3.621.621,0,0,0,.086.737l1.285,1.354a31.563,31.563,0,0,0-5.246-1.826.629.629,0,0,0-.722.285.621.621,0,0,0,.111.765l2.569,2.4c-2.478-1.111-4.986-2.16-7.54-3.043l13.764-1.521a.621.621,0,0,0,0,.806l.979,1.171a21.93,21.93,0,0,0-4.664-1.324ZM127.942,387.234a4.026,4.026,0,0,1-3.364-.228Zm-4.924-.319a.924.924,0,0,0-.138.609,4.378,4.378,0,0,0,.122.761,7.174,7.174,0,0,0-2.279-.456c-3.15-.259,1.116.685-2.845.076-1.529-.228-3.059-1.126-4.695-1.369-.535,0-1.162.335-.948.943l.367,1.08a30.288,30.288,0,0,0-5.827-2.419.783.783,0,0,0-.667.129.775.775,0,0,0-.312.6c0,.228,0,.4,0,.548l-3.334-1.871C109.3,386.017,116.227,386.427,123.017,386.914Zm-23.475-1.521a.531.531,0,0,0,.092.259l.245.441a14.5,14.5,0,0,0-1.713-.791Zm-6.117-.426a.954.954,0,0,0,0,.472l1.422,3.134-6.3-3.21c-.6-.3-1.529.365-1.009,1.019l.887,1.248L83.3,384.48a.737.737,0,0,0-.883.124.727.727,0,0,0-.111.88l1.8,2.754-5.582-3.453c-.5-.319-1.285.213-1.055.806s.336.791.5,1.156c-1.728-1.1-3.487-2.13-5.307-3.119-.566-.3-1.346.35-.933.943s.749,1.065,1.132,1.521c-1.529-.989-3.212-1.917-4.894-2.784-.566-.3-1.376.335-.948.943l2.156,3.043q-3.028-2.282-6.117-4.564,15.2,1.156,30.326,2.176ZM61.462,382.7a.621.621,0,0,0,0,.517c.887,1.445,1.8,2.891,2.707,4.351a68.235,68.235,0,0,0-7.356-5.051.66.66,0,0,0-.807.194.652.652,0,0,0,.027.825,38.883,38.883,0,0,1,3.15,3.8,42.142,42.142,0,0,0-7-4.564.6.6,0,0,0-.8.139.591.591,0,0,0,.082.8c.52.654,1.055,1.308,1.529,1.978-1.361-1.248-2.692-2.525-3.992-3.849ZM18.213,361.4c2.539,3.119,5.169,6.238,7.907,9.128.184.183.444-.091.291-.274-2.585-3.18-5.353-6.283-8.151-9.3.184-1.2.413-2.419.7-3.636a55.207,55.207,0,0,0,9.528,14.164,14.944,14.944,0,0,0-3.426,3.119,45.234,45.234,0,0,0-7.31-8.124,49,49,0,0,1,.428-5.157Zm52.073,63.258c-13.03-15.016-26.748-29.5-40.527-43.815-.184-.183-.459.091-.291.289,13.764,14.651,27.252,29.606,40.909,44.393a61.01,61.01,0,0,1,.321,6.466,281.044,281.044,0,0,0-25.845-30.138c0-.091-.2,0-.122.137,8.5,10.345,17.22,20.614,26,30.762a35.969,35.969,0,0,1-.214,3.636c-15.721-18.256-31.764-36.132-47.837-54.023-.138-.152-.352,0-.214.213,15.767,18.241,31.7,36.543,47.883,54.556-.168,1.43-.4,2.875-.7,4.321-8-9.828-16.578-19.215-24.882-28.784-8.656-10.026-17.235-20.158-26.151-29.986a124.984,124.984,0,0,1-.9-15.807c2.493,2.617,4.71,5.386,6.989,8.154a17.716,17.716,0,0,0-2,3.5c-1.392-1.521-2.783-3.134-4.16-4.731,0,0-.168,0-.122.091a150.4,150.4,0,0,0,21.961,24.935.282.282,0,0,0,.4,0,.279.279,0,0,0,0-.4c-5.7-6.085-11.317-12.293-16.822-18.545,4.664.365,9.329.7,13.993,1.05h0c7.524,9.25,14.834,18.8,22.726,27.734a.2.2,0,0,0,.321-.243,211.188,211.188,0,0,0-22.144-27.384l6.989.517a.622.622,0,0,0-.122.958,224.3,224.3,0,0,1,19.315,22.166h0a11.677,11.677,0,0,1-.4,1.9,7.916,7.916,0,0,1-.367.822l-1.178.076a.29.29,0,0,0,0,.578h.811a6.994,6.994,0,0,1-.734.928.258.258,0,0,0,.028.324.261.261,0,0,0,.324.041,7.715,7.715,0,0,0,1.223-1.308h2.753a.637.637,0,0,0-.184.624,141.037,141.037,0,0,1,2.952,15.913Zm101.9-22.82c-35.633,1.734-71.388,2.723-106.945,5.507a4.3,4.3,0,0,0,.581-3.043.337.337,0,0,0-.5-.2A194.962,194.962,0,0,0,46.6,381.65h0l1.361.107A80,80,0,0,0,56.584,390c.428.365,1.269-.122.856-.654v-.107h0l-3.059-3.986a41.256,41.256,0,0,1,7.647,6.085.63.63,0,0,0,.822.043.622.622,0,0,0,.157-.8,41.616,41.616,0,0,0-3.365-4.731,65.921,65.921,0,0,1,6.775,5.294.676.676,0,0,0,.9.067.667.667,0,0,0,.152-.889l-2.936-4.716,7.341,5.583c.551.426,1.33-.4.948-.943l-2.967-4.26a66.537,66.537,0,0,1,6.928,4.564c.642.487,1.407-.563.856-1.111a35.043,35.043,0,0,1-2.768-3.043c2.1,1.232,4.1,2.571,6.117,3.986a10.03,10.03,0,0,0,1.009.73c.78.5,1.422-.685.719-1.217l-1.529-1.019a7.725,7.725,0,0,1-1.453-1.689l6.24,3.895a.752.752,0,0,0,.873-.136.743.743,0,0,0,.136-.869l-1.789-2.8,5.521,3.423c.612.365,1.453-.4,1.025-1.019l-1.178-1.734,5.506,2.8a.768.768,0,0,0,.895-.142.758.758,0,0,0,.13-.892c-.566-1.263-1.147-2.541-1.728-3.8a12.793,12.793,0,0,1,6.362,3.271.768.768,0,0,0,1,.052.758.758,0,0,0,.191-.98l-.627-1.111,4.435,2.465a.768.768,0,0,0,.912-.127.758.758,0,0,0,.128-.908l-.138-.593a29.589,29.589,0,0,1,5.98,3.012.783.783,0,0,0,.851-.066.774.774,0,0,0,.281-.8l-.612-1.765a14.1,14.1,0,0,1,4.313,1.765.753.753,0,0,0,.78,0l4.236.3a.783.783,0,0,0,.917.1.774.774,0,0,0,.368-.841l-.138-.943a9.391,9.391,0,0,0,4.007.35c1.942,0,3.808.715,5.934.456.979-.122.994-1.658,0-1.521a6.146,6.146,0,0,1-4.313-.548q71.3,4.564,142.67,7.972c-33.584,2.358-67.122,4.671-100.751,6.359Zm214.1-17.982-.566-.107h-.107v-.822a5.422,5.422,0,0,1,.658.9Zm-.811,1.217.214.213a.38.38,0,0,0-.092.7,9.467,9.467,0,0,0,1.285.761l-1.667.167c.076-.624.168-1.247.245-1.871Zm1.942-9.524h0a.66.66,0,0,0-.831.175.652.652,0,0,0,.036.844l.642.669c-.474.076-.811.745-.367,1.08a12.383,12.383,0,0,1,.948.837h-.214c-.581-.107-1.116.578-.612,1.05a14.864,14.864,0,0,1,1.392,1.521,23.316,23.316,0,0,1-2.508-.091h-.122a16.647,16.647,0,0,0-.2-2.784.246.246,0,0,0,.179-.077.243.243,0,0,0,.066-.182c0-1.521.153-2.967.214-4.458.382.365.872.882,1.361,1.384Zm1.223-81.7c6.3-.259,13.2-.274,19.5-1.78-.428.958-.826,1.963-1.193,2.967a.364.364,0,0,0-.142-.381.369.369,0,0,0-.409-.014c-4.251,2.525-9.069.867-13.764.806a55.04,55.04,0,0,0-11.485,1.2c-8.457,1.673-16.624,4.305-25.157,5.523q2.477-2.769,5.093-5.416a.323.323,0,0,0,.245,0,145.045,145.045,0,0,1,27.3-2.936Zm-21.869-2.586,1.621-1.521a4.906,4.906,0,0,0,1.743,1.278ZM370.353,289a4.961,4.961,0,0,0,.5,1.278,3.892,3.892,0,0,1-1.942-.989c3.777-3.514,7.647-6.968,11.47-10.467a.729.729,0,0,0,.107.3c.2.319.413.639.627.958a5.933,5.933,0,0,0-.719,0,.73.73,0,0,0-.5,1.217l2.263,2.206-4.037-1c-.459-.107-1.086.35-.856.867a8.871,8.871,0,0,0,.856,1.613l-3.059-.806a.7.7,0,0,0-.764.332.7.7,0,0,0,.091.824l1.224,1.369a5.975,5.975,0,0,0-2.615.517.683.683,0,0,0-.306,1.126l.2.274-1.682-.441a.645.645,0,0,0-.7.11.637.637,0,0,0-.174.681Zm16.012-9.98c6.943,3.317,15,3.59,21.823,7.211-11.837,1.826-23.551,3.606-35.45,4.564a.561.561,0,0,0-.153-.335c-.107-.228-.229-.441-.352-.654l2.019.548a.69.69,0,0,0,.7-.249.682.682,0,0,0,.062-.74,9.545,9.545,0,0,0-.7-1.156,5.3,5.3,0,0,1,3.059.289c.688.289,1.071-.685.673-1.141l-1.147-1.278,3.426.9a.7.7,0,0,0,.535-1.278l-1.116-1.369,4.588,1.141a.705.705,0,0,0,.8-.319.7.7,0,0,0-.114-.852l-2.248-2.191a.751.751,0,0,0,.675-.332.742.742,0,0,0,.044-.748l-1.193-1.8a6.977,6.977,0,0,1,3.15.365.764.764,0,0,0,.9-.609Zm-2.462-1.354a.773.773,0,0,0-.107.259,10.237,10.237,0,0,0-2.539.106l1.529-1.521a.455.455,0,0,0,.2.548c.321.228.612.4.872.578Zm-224.152-114.1c1.071,2.312.367,1.628-1.376.685-.428-.228-.856-.5-1.285-.745Zm-7.1-.183h1.866c.612,1.08,1.269,2.3.933,2.632a33.707,33.707,0,0,1-5.2-2.723Zm-3.992-.091c1.086,1.521,4.251,4.4.994,2.678-1.529-.822-3.059-1.78-4.511-2.738Zm-5.766-.107c1.071,1.521,2.936,4.245,2.982,4.2-.428.319-6.117-3.484-7.387-4.29Zm1.04,4.138-2.462-.532c-1.009-1.126-3.839-3.59-.581-1.308a33.676,33.676,0,0,0,3.028,1.871Zm-6.117-4.245a.455.455,0,0,0,0,.578l1.652,2.176h-.214a32.853,32.853,0,0,1-5.169-2.708Zm.413,3.043-1.789-.4c-.245-.259-.474-.532-.719-.806h.092a25.333,25.333,0,0,1,2.355,1.156Zm-4.787-3.043a.424.424,0,0,0,0,.609c.627.715,2.065,1.521,1.988,1.856l-3.915-.958c-1.04-.517-2.049-1.126-2.875-1.521-.352-.167-.658.319-.306.517l.9.456-4.97-1.126a.356.356,0,1,0-.2.685c3.533.974,7.065,1.917,10.705,2.845.658.259,1.331.487,2,.715a.338.338,0,0,0,.4-.091,590.2,590.2,0,0,0,64.354,13.084.659.659,0,0,0,.581-.228,8.208,8.208,0,0,0-.2,1.369,6.8,6.8,0,0,1-.092,1.354c-16.578-3.575-33.186-7.059-49.81-10.345-16.088-3.18-32.116-7.12-48.326-9.843q14.788.335,29.7.548Zm-37.376-.624h4.42c-4.833,6.42-5.444,16.431,0,22.82.321.38.841-.091.658-.487h0c7.968,2.845,16.93,3.849,25.218,5.538,7.83,1.521,15.66,3.195,23.49,4.853q24.362,5.142,48.785,10.026a.8.8,0,0,0,.841-.335h.352v2.236c-32.941-5.446-65.256-13.89-98.136-18.8a.458.458,0,0,0-.444-.426c-10.537-1.019-10.828-18.53-5.322-25.011a.455.455,0,0,0,.076-.487Zm-4.343,0c-.107.411-.214.806-.336,1.217v-1.217Zm-2.8,0h.642l-1.239,4.564c0-1.521-.092-3.043-.2-4.564Zm-2.89,0c-.489,2.023-.979,4.032-1.453,6.085-.168-2.023-.321-4.047-.474-6.085Zm-3.686,0c-.474,2.1-.948,4.184-1.407,6.283-.352-2.1-.734-4.2-1.178-6.3Zm-4.068,0c-.4,2.191-.872,4.336-1.453,6.481-.336-2.176-.749-4.336-1.254-6.481Zm-4.328,0L72.718,167.9c-.26-1.81-.535-3.621-.8-5.446Zm-3.456,0c-.382,1.871-.78,3.727-1.162,5.583-.321-1.856-.642-3.712-.948-5.568Zm-12.617.335a.657.657,0,0,0,.4-.319h8.794l-.979,4.792a22.508,22.508,0,0,0-1.361-4.214c-.275-.624-1.071-.213-1.132.3-.122,1.141-.26,2.282-.382,3.423a25.891,25.891,0,0,0-1.346-3.925.644.644,0,0,0-1.162.152c-.291,1.613-.535,3.225-.719,4.838l-.642-3.362c-.107-.548-1.071-.578-1.147,0-.2,1.521-.413,3.043-.612,4.564a29.078,29.078,0,0,0-1.025-3.56.582.582,0,0,0-1.1,0l-.5,2.358a30.283,30.283,0,0,0-.658-3.788.562.562,0,0,0-.107-.213,16.671,16.671,0,0,1,3.624-1.308Zm-4.726,1.248c-.459,1.826-.933,3.651-1.392,5.477-.336-1.1-.673-2.206-.994-3.317a.659.659,0,0,0-1.239,0c-.168.761-.336,1.521-.52,2.252a7.728,7.728,0,0,0-1.529-2.176.628.628,0,0,0-1.055.274,10.268,10.268,0,0,1-.6,2.814,12.9,12.9,0,0,0-1.285-2.617.644.644,0,0,0-1.086,0,10.5,10.5,0,0,0-1.529,2.708l-1.1-2.1a.6.6,0,0,0-1.025,0c-.948,1.521-1.636,1.613-2.386,0,5.23-1.126,10.491-2.252,15.675-3.575Zm-22.037,4.838,4.114-.928-.061,1.734a.392.392,0,0,0,.765.107c.811-2.221,1.529,0,2.34.852a.568.568,0,0,0,.887-.106c1.223-1.886,1.331-1.521,2.4.426a.628.628,0,0,0,1.116-.137,7.479,7.479,0,0,1,1.269-3.043,8.111,8.111,0,0,1,1.132,3.271.628.628,0,0,0,1.147.152,15.589,15.589,0,0,0,1.009-2.678c.352.9.688,1.8,1.04,2.708a.627.627,0,0,0,1.239.167l.688-2.921c.321,1.065.642,2.13.979,3.195a.628.628,0,0,0,1.193,0c.428-1.734.856-3.453,1.269-5.173a24.928,24.928,0,0,1,.321,5.462.566.566,0,0,0,1.116.152l1.009-4.655a26.391,26.391,0,0,1,.887,5.4c0,.609,1.04.837,1.132.152.245-1.689.474-3.377.719-5.066.26,1.384.52,2.754.765,4.138.138.7,1.162.487,1.208-.167.138-2.252.382-4.564.734-6.74a22.989,22.989,0,0,1,1.147,5.736.628.628,0,0,0,1.239,0c.184-1.78.382-3.56.581-5.34a19.593,19.593,0,0,1,.856,4.868c0,.639,1.04.852,1.193.152.367-1.765.734-3.53,1.086-5.294l1.009,5.933c.092.593,1.086.578,1.208,0l1.239-5.872.872,5.736c.076.609,1.055.563,1.193,0l1.529-6.831c.5,2.419.933,4.838,1.239,7.318a.628.628,0,0,0,1.223.167c.7-2.252,1.3-4.564,1.8-6.816.444,2.389.826,4.762,1.116,7.166.092.685,1.147.989,1.33.183.52-2.221,1.025-4.427,1.529-6.648.2,2.328.382,4.655.566,6.968,0,.73,1.162.974,1.346.183q.994-4.016,1.958-8.048.153,3.819,0,7.607a.719.719,0,0,0,1.407.2c.6-2.191,1.208-4.382,1.789-6.572a27.251,27.251,0,0,1-.8,5.812c-.214.9,1.193,1.293,1.407.38.658-2.617,1.361-5.249,1.958-7.881a.626.626,0,0,0,.642-.578A1.848,1.848,0,0,0,93,162.18h2.172c-4.037,3.712-5.353,13.312-2.936,19.778-14.681-1.141-29.378-2.267-44.029-3.7-13.412-1.05-27.008-3.3-40.557-4.214C15.552,172.631,23.352,170.593,31.121,168.874ZM3.3,179.675a.454.454,0,0,0-.069-.409.46.46,0,0,0-.374-.184c-1.361,0-1.529-1.765-.9-2.617s1.438-1.156,2.034-1.856a.4.4,0,0,0,.306,0H4.48c13.963,2.906,28.69,3.712,42.821,5.188,15.293,1.521,30.433,3.043,45.681,4.169a8.14,8.14,0,0,0,7.952,4.838.336.336,0,0,0,.275.228c1.208.3,2.416.578,3.624.867-15.8-2.556-31.779-4.29-47.608-5.812q-13.58-1.339-27.191-2.541c-8.824-.822-17.8-2.023-26.732-1.947Zm4.726,19.032h.153c14.788,1.932,29.76,2.769,44.595,4.564s29.638,3.773,44.472,5.553a.152.152,0,0,0,0-.3c-14.483-2.191-29.057-3.864-43.616-5.507-15.094-1.719-30.311-4-45.467-4.868.291-.943.52-1.9.719-2.875a317.15,317.15,0,0,1,57.135,7.47.22.22,0,1,0,.107-.426,251.446,251.446,0,0,0-57.166-7.424,25.536,25.536,0,0,0,.352-3.256c75.961,9.98,152.259,17.693,228.388,26.274,21.7,2.434,43.387,5.081,65.118,7.318a.257.257,0,0,0,0,.106c-.382.243-.765.5-1.116.776-.076,0,0,.2,0,.2h1.009a14.483,14.483,0,0,0,2.141,9.63c-78.775-6.877-157.321-17.161-235.775-26.943-20.646-2.586-41.4-5.9-62.151-7.607.459-1,.8-1.871,1.1-2.754ZM302.8,225.529v.624a5.935,5.935,0,0,1-.749-.091C302.314,225.894,302.574,225.711,302.8,225.529ZM217.269,272.6h0c-32.651-7.759-65.363-15.214-98-23.079-15.9-3.819-31.687-8.139-47.531-12.171s-31.718-8.946-47.73-12.719a20.182,20.182,0,0,0,1.269-4.564c10.415,4.412,22.053,4.29,32.406,8.976.214.107.4-.213.184-.319-10.2-4.96-21.93-5.188-32.544-8.991a20.811,20.811,0,0,0,.122-4.777c19.881,6.4,40.007,12.582,60.255,17.83.214,0,.291-.274.092-.335-20.172-5.9-40.343-11.684-60.408-17.906a17.889,17.889,0,0,0-1.071-4.458.623.623,0,0,0-.107-.167l9.8,1.156,10.369,1.232a.273.273,0,0,0,.076.5c29.057,7.607,58.634,13.783,87.89,20.8s58.221,14.073,87.309,21.116a.624.624,0,0,0,.275.365A20.3,20.3,0,0,0,217.3,272.6ZM107.158,220.356a13.971,13.971,0,0,0-7.647.137,206.677,206.677,0,0,0-27.635-4.823.16.16,0,0,0,0,.32C84.112,219.337,96.82,221,109.146,223.6s24.775,5.553,37.116,8.55c24.362,5.888,48.678,12.566,73.27,17.48a13.4,13.4,0,0,0,0,4.138q-43.264-11.3-86.819-21.558c-28.95-6.861-57.992-14.164-87.171-19.778l54.887,6.511,9.711,1.156a.348.348,0,0,0,0,.243c1.5,3.3-1.422.426-2.982.015Zm2.952,2.419-1.529-.32c-2.4-.5-4.8-1.035-7.234-1.521a11.1,11.1,0,0,1,8.763,1.841Zm5.873.9c.26.243.826,0,.658-.38-.275-.73-.963-2.115-.734-2.206.489-.2,4.359,3.408,4.894,3.819.245.2.765,0,.612-.35-.581-1.384-1.407-1.841-.153-1.521.887.243,2.554,2.069,3.2,2.571.275.228.841,0,.673-.38-.275-.7-1.025-2.556-1.009-2.571.336-.152,3.839,3.469,4.1,3.7s.688.091.642-.259a25.748,25.748,0,0,0-.6-2.815c.826,1.019,3.732,3.636,4.083,3.971a.415.415,0,0,0,.495.061.41.41,0,0,0,.194-.457c-.245-1.248-.7-3.18-1.3-3.56,1.254.791,3.227,3.317,4.695,4.458.306.228.887,0,.719-.411-.551-1.521-2.126-2.967-.382-2.51,1.407.35,3.364,2.571,4.588,3.469.306.243.765-.152.658-.5a10.442,10.442,0,0,1-.719-2.373c.581-.289,3.732,3.3,4.114,3.743a.461.461,0,0,0,.535.048.455.455,0,0,0,.215-.49,17.411,17.411,0,0,1-.948-3.164,32.779,32.779,0,0,1,3.992,3.119.4.4,0,0,0,.488.075.4.4,0,0,0,.185-.455c-.5-2.054-1.254-2.358.6-1.658a24.907,24.907,0,0,1,4.833,3.514c.336.243.7-.228.535-.532-.52-.989-.872-1.521-1.086-1.963a3.4,3.4,0,0,0,.811.867,36.161,36.161,0,0,0,3.365,2.16.414.414,0,0,0,.47-.08.409.409,0,0,0,.081-.468c-.52-1.126-2.493-3.24-.994-2.708a21.212,21.212,0,0,1,4.144,3.195c.336.259.918,0,.765-.441s-.673-1.643-1.1-2.6a40.486,40.486,0,0,0,3.548,3.332.476.476,0,0,0,.559.057.471.471,0,0,0,.221-.513c-.443-1.521-1.713-2.571-.291-2.069s2.921,2.358,4.053,3.256c.336.274,1.055,0,.841-.487-.4-.943-.8-1.871-1.178-2.815-.229-.3,0-.213.52.274,1.147-.213,3.992,3.149,4.894,4.077.336.335,1.071,0,.856-.5-.321-.806-.658-1.613-.994-2.419l4.42,3.575c.352.289,1.071,0,.872-.517l-.642-1.8c-.306-.73-.306-.806,0-.243.535-.2,3.884,2.617,4.282,2.891a.538.538,0,0,0,.6-.029.531.531,0,0,0,.2-.565c-.214-.761-.443-1.521-.658-2.282l4.114,3.164a.553.553,0,0,0,.663.082.546.546,0,0,0,.254-.615c-.336-1.187-.658-2.373-.979-3.56a17.953,17.953,0,0,1,5.108,4.062.584.584,0,0,0,.669.06.577.577,0,0,0,.279-.608l-.673-2.16,4.129,2.662a.6.6,0,0,0,.637-.057.592.592,0,0,0,.219-.6l-.321-1.308,4.037,2.465a.6.6,0,0,0,.586,0,.593.593,0,0,0,.3-.5q-.642-3.043,2.34-.335a.614.614,0,0,0,.948-.122c1.529-2.039,2.707-1.521,4.924-.837a.567.567,0,0,0,.688-.335l20.065,2.4c17.878,2.13,35.755,4.442,53.648,6.557q-16.241,2.48-32.559,4.351c-5.735.654-11.485,1.232-17.235,1.78-4.986.456-10.537.335-15.415,1.719a1.927,1.927,0,0,0-.092-.274.445.445,0,0,0-.765,0,.845.845,0,0,0,0,.183c-24.347-7.074-49.305-12.612-74-18.332q-17.067-3.94-34.211-7.607c0-.578,0-2.4-.245-2.13.459-.669,4.267,2.632,4.4,2.723Zm-3.976-3.332,2.829.335a12.238,12.238,0,0,1,.52,1.248l-.413-.152a24.8,24.8,0,0,1-3.013-1.43Zm4.771.563,2.478.289a.348.348,0,0,0,0,.243c.994,2.328,1.254,2.16-.459,1.019a22.6,22.6,0,0,1-2.1-1.552Zm3.517.426,2.523.289a18.45,18.45,0,0,1,.918,2.434,37.672,37.672,0,0,1-3.517-2.723Zm3.976.472,2.646.3c2.065,4.442-.963,1.537-2.722-.3Zm4.007.472,2.325.274c.734,1.187,2.768,3.864.673,2.556a16.285,16.285,0,0,1-3.074-2.83Zm3.64.441,2.692.32a.166.166,0,0,0,0,.076c.6,1.521,2.248,3.514,0,2.069a12.916,12.916,0,0,1-2.768-2.465Zm7.907,1.689c.291.822.566,1.628.841,2.449a2.5,2.5,0,0,0-.872-.776,17.089,17.089,0,0,1-3.823-2.891l7.738.928a.439.439,0,0,0,0,.243l.826,2.51-.52-.365c-1.208-.685-2.325-1.841-3.517-2.6a.461.461,0,0,0-.586-.061.455.455,0,0,0-.163.563Zm8.335.517c.275,1.141.719,2.008.245,2.16s-2.661-1.978-3.579-2.83l3.364.4a.561.561,0,0,0-.107.274Zm8.427,1.1c.321.7,1.529,2.662,1.529,3.24s-3.609-3.18-3.609-3.18a.428.428,0,0,0-.765.335,9.685,9.685,0,0,0,.765,2.419c.107.243,0,.137-.184-.335-.352.183-3.869-2.723-5.123-3.727l7.448.882a.5.5,0,0,0-.138.365Zm1.025-.243,2.569.3v.076c.612.806,2.646,2.921,1.132,2.434a14.584,14.584,0,0,1-3.793-2.814Zm4.282.517,2.493.289a.393.393,0,0,0,0,.228c.184.563.367,1.126.535,1.689l-.566-.243a24.47,24.47,0,0,1-2.539-1.962Zm3.869.456,2.615.319a.348.348,0,0,0,0,.167c.336.822.688,1.643,1.04,2.465Zm7.754,1.521.856,2.1a28.881,28.881,0,0,0-4.206-3.043l3.563.426a.4.4,0,0,0-.291.456Zm9.772,3.575c-.489.2-3.884-2.632-4.282-2.891a.527.527,0,0,0-.78.593l.673,1.871-4.557-3.636,8.946,1.08a.582.582,0,0,0-.454.205.576.576,0,0,0-.127.48c.336,1.111.811,2.176.5,2.282Zm.168-2.967,3.594.426c.26.974.535,1.932.8,2.906l-4.328-3.271Zm6.729.806,1.988.243a.741.741,0,0,0,0,.183l.459,1.43a17.967,17.967,0,0,0-2.523-1.81Zm6.79,1.232c.092.426.2.852.306,1.278l-3.212-2.039,2.967.35a.485.485,0,0,0-.138.4Zm1.438-.243,3.732.441c-.076,2.556-2.218.669-3.808-.456Zm88.456,43.648,5.49-.882h.2a12.115,12.115,0,0,1,2.86,1.2c-2.936-.228-5.8-.35-8.625-.335Zm8.686-.669c-.443-.2-.872-.365-1.315-.517l4.328-.7c0,2.571-.933-.35-2.416.593a1.343,1.343,0,0,0-.673.609Zm52,5.081a.458.458,0,0,0-.4-.319c-10.216-1.43-20.768-1.521-31.06-2.145-6.316-.411-12.77-1.141-19.193-1.521a.456.456,0,0,0-.245-.5h0c1.285.4,1.881.974,3.2.456.291-.107.551-.487.321-.791-.551-.776,4.328.578,4.71.685a.553.553,0,0,0,.542-.133.546.546,0,0,0,.146-.536,2,2,0,0,0-.2-.578,15.264,15.264,0,0,0,2.615.624.567.567,0,0,0,.622-.261.561.561,0,0,0-.071-.667l-.673-.822,3.716,1.293c.52.183.811-.426.627-.822l-.321-.745,4.206,1.521c.551.2.887-.563.535-.943l-.229-.259,2.1.685a.568.568,0,0,0,.6-.2.561.561,0,0,0,.045-.625c-1.422-2.51,1.529-.745,2.646-.076a.568.568,0,0,0,.682-.084.561.561,0,0,0,.1-.677l-.734-1.111a29,29,0,0,1,4.588,1.856.568.568,0,0,0,.735-.14.561.561,0,0,0-.047-.743l-.474-.593a25.319,25.319,0,0,1,3.257.958c.474.183.887-.426.642-.822s-.673-1.065-.994-1.6l3.992,1.932c.413.2,1.055-.137.856-.654a7.873,7.873,0,0,0-.566-1.248c.963.4,1.942.761,2.967,1.08a.6.6,0,0,0,.627-.21.591.591,0,0,0,.046-.657l-.428-.822,4.771,1.886c.474.183.994-.472.673-.867s-.489-.609-.734-.9c.979.441,1.988.837,3.059,1.217.551.2.948-.472.719-.928s-.321-.639-.489-.943l3.334.913a.659.659,0,0,0,.693-.312.652.652,0,0,0-.066-.753l-.734-.776c.963.319,1.942.609,2.936.882a.659.659,0,0,0,.673-.236.651.651,0,0,0,.061-.708l-.551-1,1.086.183a.691.691,0,0,0,.571-.123.684.684,0,0,0,.27-.516,13.264,13.264,0,0,0,4.4-1.308c.658-.533-.275-1.521-.933-.928,0,0-3.961.761-4.481.9-1.147.274.566.7-1.942.32a.659.659,0,0,0-.686.237.651.651,0,0,0-.048.721l.443.791c-1.315-.38-2.6-.791-3.869-1.293-.627-.243-1.009.624-.627,1.05l.994,1.065-2.585-.715a.659.659,0,0,0-.66.245.651.651,0,0,0-.059.7c.138.259.275.517.4.776a36.328,36.328,0,0,1-4.588-2.145c9.558-1.521,19.132-3.043,28.491-5.37h0a3.45,3.45,0,0,0,.535.426c-6.912,5.781-13.626,11.9-20.569,17.709Zm-43.662-6.238c.26.745-2.11.107-3.579-.35l5.4-.882a.377.377,0,0,0,0,.107l.979,1.217a10.587,10.587,0,0,1-2.049-.715c-.306-.2-.948.091-.78.609Zm6.454-1.293c.107.243.214.5.336.761l-2.952-1.019,2.737-.456a.682.682,0,0,0-.153.7Zm6.408-.989.642,1.141-2.737-.882a.562.562,0,0,0-.551.928l.138.152-3.212-1.156,6.117-.989a.578.578,0,0,0-.428.791Zm3.242-.761.382.563a10.216,10.216,0,0,0-3.059-.639l2.692-.426a.5.5,0,0,0-.046.487Zm4.8.563a29.354,29.354,0,0,0-3.7-1.247l6.347-1.035a.727.727,0,0,0,0,.213l1.193,1.932a22.674,22.674,0,0,0-3.334-.761.567.567,0,0,0-.557.267.56.56,0,0,0,.022.615Zm6.5-2.16.8,1.141-3.15-1.521.948-.167,1.346-.213a.5.5,0,0,0,.031.746Zm3.915-.259.489.928A30.98,30.98,0,0,1,332.121,267l5.613-.882a.622.622,0,0,0,.245.563,14.313,14.313,0,0,1,2,1.689l-4.1-1.613a.568.568,0,0,0-.7.822Zm46.751-34.246a83.46,83.46,0,0,0,13.366.639,165.972,165.972,0,0,0-19.606,19.549,38.126,38.126,0,0,0,0-9.889,29.545,29.545,0,0,0-3.732-11.167c3.258.548,6.882.593,9.941.852Zm-13.764-1.9.138.091,1.07.335c3.426,2.145,4.588,11.182,4.7,13.327.122,2.389.168,10.756-2.722,13.51a.568.568,0,0,0-.627.076l-.887.745a3.212,3.212,0,0,1-1.086,0,1.017,1.017,0,0,0-.346-.851,1.028,1.028,0,0,0-.893-.23c-24.729,5.31-49.749,9.3-74.676,13.57q-18.841,3.24-37.774,5.705-9.39,1.232-18.765,2.312c-5.643.639-11.592.761-17.174,1.932a11.763,11.763,0,0,1-.627-1.643,4.284,4.284,0,0,1,.122-1.917h1.636a.338.338,0,0,0,.321,0c24.087-1.187,48.372-5.751,72.092-9.706,25.325-4.229,50.85-7.5,76.068-12.262a1.063,1.063,0,0,0,.489-1.856,15.526,15.526,0,0,0,1.652-15.214c-2.432-5.173-6.561-4.4-11.684-4.062a298.265,298.265,0,0,0-37.3,4.169l8.931-3.043a.425.425,0,0,0,.183.322.43.43,0,0,0,.367.058,112.425,112.425,0,0,1,32.391-3.8.629.629,0,0,0,.489-.2.537.537,0,0,0,.734,0,4.2,4.2,0,0,1,3.135-1.384Zm-3.059-.3a8.123,8.123,0,0,0-.749.715.643.643,0,0,0-.535-.335,85.58,85.58,0,0,0-26.717,2.51c4.97-1.841,9.925-3.712,14.865-5.568a26.436,26.436,0,0,0,13.03,2.662Zm-7.494-33.363,22.4-2.039a23.181,23.181,0,0,1-1.422,15.989c-5.781,2.176-11.24,5.02-17.189,6.892s-11.975,3.408-17.954,5.127c-12.235,3.53-24.79,7.7-35.908,14-.459.259-.153,1.065.367.867,12.754-4.884,25.173-10.056,38.386-13.692,10.873-3.043,24.561-5.233,33.645-12.338a.622.622,0,0,0,0-.974,18.763,18.763,0,0,0,1.453-15.974l2.386-.213a49.508,49.508,0,0,1-.275,12.308c-.887,5.386-3.059,8.337-8.411,10.436-7.448,2.906-15.094,5.386-22.619,8.078-14.559,5.2-29.684,9.721-43.815,15.989h0a3.029,3.029,0,0,0,.107-3.164.4.4,0,0,0-.627,0,3.27,3.27,0,0,0-.138,1.674,6.9,6.9,0,0,1-.153,2.176.2.2,0,0,0,.352.152c.076-.122.138-.259.214-.411a.577.577,0,0,0,.239.407.583.583,0,0,0,.465.095c1.407-.38,2.814-.791,4.206-1.2,10.919-1.232,21.716-3.271,32.666-4.321a120.959,120.959,0,0,1,15.89-1.156c2.615.107,6.01.943,7.356,3.362v.167c-20.952,2.586-41.919,5.264-62.7,8.885-10.185,1.78-20.279,3.94-30.433,5.781a255.522,255.522,0,0,1-33.874,3.423.068.068,0,1,0,0,.137c20.783.122,40.588-4.442,60.928-7.987,22.022-3.849,44.228-6.481,66.388-9.265h.138a12.01,12.01,0,0,1,.642,3.164c-4.114.852-7.952,2.51-11.99,3.621-4.588,1.278-9.359,1-14.054,1.689-10.124,1.521-19.713,5.279-30.036,5.583a.167.167,0,1,0,0,.335c9.864.228,18.994-3.3,28.6-4.9,4.726-.791,9.573-.5,14.238-1.521s8.778-2.83,13.29-3.864a15.447,15.447,0,0,1-2.722,8.535.788.788,0,0,0-.122.5c-24.9,3.56-49.6,8.611-74.417,12.642-12.387,2.008-24.775,4.062-37.193,5.9-11.822,1.734-23.7,2.891-35.511,4.564a27.278,27.278,0,0,1-2.279-7.713c15.186-1.826,30.3-4.564,45.405-6.907,15.568-2.4,31.611-3.91,46.95-7.409.291-.076.229-.563-.076-.532-15.14,1.232-30.326,4.473-45.344,6.785-15.645,2.4-31.489,4.366-46.981,7.607a21.762,21.762,0,0,1-.153-3.453c10.2-3.91,22.527-3.879,33.293-5.2s21.64-2.48,32.406-4.047c.229,0,.184-.426,0-.411-12.005,1.232-23.98,2.906-35.954,4.4-9.528,1.187-20.722,1.111-29.684,4.96a25.5,25.5,0,0,1,2.707-10.284.348.348,0,0,0,0-.167.727.727,0,0,0,.092-.274,16.5,16.5,0,0,0,.092-4.762c4.955.578,10.292-.411,15.2-.867q9.543-.882,19.055-2.008,17.725-2.008,35.4-4.868a.643.643,0,0,0,.413-.228l6.974.791c-11.332,1.308-22.664,3.423-33.89,5.1-14.36,2.145-28.766,4.229-43.05,6.785-.413,0-.321.761.092.715,13.9-1.521,27.772-3.469,41.628-5.386,14.33-1.993,29.057-3.332,43.188-6.329h0l.994.122c1.193.122,1.147-1.689,0-1.841-39.563-5.218-79.31-9.356-118.95-14.042q-59-6.983-118.017-13.951L36.7,209.844c-5.536-.654-11.072-1.293-16.593-1.978l-8.3-1.05L8.12,206.39l-2.952-.365c-2.126-.107-3.059-1.521-2.783-4.214l3.059.5a.691.691,0,0,0,.933.152c17.74,2.83,35.8,4.4,53.618,6.511q29.76,3.514,59.49,7.2c39.93,4.914,79.846,10,119.807,14.635,22.557,2.617,45.145,5.051,67.779,6.968,1.147.091,1.132-1.673,0-1.78h-.413a.976.976,0,0,0,0-.107,14.406,14.406,0,0,1-1.667-4.4c16.624-1.217,31.106-10.847,46.583-16.126a.183.183,0,1,0-.107-.35c-15.92,4.427-29.776,14.514-46.522,16.233a21.038,21.038,0,0,1-.291-5.2,9.89,9.89,0,0,0,1.254-.289h0c-.4.122-.826.213-1.254.3v-.2c11.577-5.051,22.94-10.421,34.731-15.122,11.378-4.564,22.94-8.474,34.471-12.688.321-.122.2-.639-.153-.548-12.235,3.606-24.3,8.307-36.168,13.1-11.088,4.488-22.206,9.128-32.819,14.62a43.911,43.911,0,0,1,.688-4.564c17.5-7.226,35.083-14.666,52.211-22.714C357.63,197.779,357.63,197.779,357.645,197.779Zm-10.889.989,9.39-.852c-17.067,6.983-33.981,14.651-50.712,22.394.581-2.951,1.361-5.842,1.927-8.55l2.569.228v.091a.367.367,0,0,0,.734,0v-.274a.551.551,0,0,0,.627.365A123.357,123.357,0,0,0,346.466,199a.55.55,0,0,0,.291-.213Zm-14.009,1.278,10.445-.943a264.7,264.7,0,0,1-32.116,12.049.474.474,0,0,0-.275.2l-.092-.2a7.6,7.6,0,0,1,.076-1.308,5.071,5.071,0,0,0-.076-2.039h0a23.5,23.5,0,0,0,8.671-2.586,46.87,46.87,0,0,1,12.923-4.412.593.593,0,0,0,.443-.745Zm-15.828,1.445c0,1.126-.612.73-1.529.152Zm-2.906.274c.336,1.384,0,.837-1.376.441-.184,0-.6.578-.673.563a7.352,7.352,0,0,1-.8-.745Zm-4.863.441c0,.867-.229.806-1.331.122Zm-2.493.228h0c.6,2.5-.658,1.187-2.386.654a.4.4,0,0,0-.347.066.4.4,0,0,0-.158.315c.2,1.7-1.1.4-2.263-.593Zm-5.781,2.951c.214,0,.52-.107.489-.38-.352-2.936,1.7,0,2.783,1.08.214.228.7,0,.658-.274-.229-2.084,1.636-.9,2.737-.107.306.213.673-.152.6-.472-.5-2.206,0-1.521,1.7-.441.336.243.719-.137.642-.487-.658-3.195-.245-2.084,1.529-.487a.413.413,0,0,0,.7-.289l1.453.669a.414.414,0,0,0,.749-.091c.367-1.978.428-1.4,2.508-.259a.451.451,0,0,0,.688-.38c-.153-1.415-.336-1.734,1.116-1.521a.475.475,0,0,0,.418-.169.47.47,0,0,0,.087-.44l4.771-.441c-5.093,1.932-10.032,5.462-15.14,6.374-4.374-.624-8.763-1.187-13.167-1.658a.318.318,0,0,0,0-.335c-.841-2.176.7-.228,1.713.411a.43.43,0,0,0,.427,0,.426.426,0,0,0,.216-.366C298.522,204.154,300.066,205.158,300.877,205.386Zm-1.988-2.16-.489.213a.413.413,0,0,0-.688.274c0,.928-1.055.319-1.8-.213Zm-4.221.38c.658,1.339.26,1.369-1.208.122Zm-1.973.183a12.992,12.992,0,0,0,2.462,1.6c-3.686-.38-7.371-.7-11.072-.913Zm-45.879,4.047c11.317-.867,22.619-1.886,33.9-2.936a.458.458,0,0,0,.382.35c9.436,1.171,18.9,2.145,28.353,3.347a.522.522,0,0,0,.367-.107,9.079,9.079,0,0,0,0,1.445v1.019q-11.722-1.164-23.475-2.221c-7.83-.7-16.043-2.191-23.934-1.7a.2.2,0,1,0,0,.4c7.448,1.826,15.446,1.932,23.062,2.541,6.974.578,13.932,1.217,20.906,1.8a59.324,59.324,0,0,0-2.615,8.231.307.307,0,0,0-.214-.091c-27.1-1.643-53.786-4.564-80.687-8.124-.168,0-.245.228-.076.259a543.092,543.092,0,0,0,80.748,8.565h.076c-.275,1.278-.52,2.586-.673,3.879-76.145-9.326-152.519-17.024-228.724-25.863-21.625-2.51-43.218-5.249-64.843-7.607a23,23,0,0,0-.138-2.891c0-.152,0-.335,0-.517,32.207,6.527,65.225,7.394,97.876,10.087a501.335,501.335,0,0,1,51.11,6.542c15.9,2.967,32.008,6.892,48.28,7.1a.244.244,0,0,0,0-.487c-17.159-1.384-33.8-4.762-50.7-7.85-15.523-2.845-31.183-4.564-46.919-5.933-33.339-2.921-66.739-4.2-99.711-9.934a22.511,22.511,0,0,0-.4-2.754,450.117,450.117,0,0,0,75.089,6.435.289.289,0,0,0,0-.563,654.283,654.283,0,0,1-75.181-6.283,3.97,3.97,0,0,0-2.049-3.043c6.851.791,13.84,1.05,20.692,1.658q14.07,1.232,28.109,2.784c18.352,2.023,36.7,4.564,55.132,6.557a.506.506,0,0,0,.4-.182.5.5,0,0,0,.1-.426c29.393,6.527,59.368,10.649,88.7,17.359a.474.474,0,0,0,.444.3c15.416,1.217,31.167-.03,46.537-1.217Zm154.308-29.469c-11.455.624-22.94,1.521-34.318,2.465-.306,0-.321.5,0,.472,11.455-.73,22.94-1.521,34.364-2.556a20.175,20.175,0,0,0,1.942,5.933c-34.211,3.819-68.376,7.82-102.586,11.638-17.618,1.963-35.251,4.016-52.884,5.9a138.923,138.923,0,0,1-24.9.624c-7.647-.563-15.614-1.521-23.047.761l-.184-1.521c8.105-1.765,16.165-1.445,24.469-1.187a232.136,232.136,0,0,0,23.46-.4c15.125-1.05,30.112-3.408,45.115-5.462,31.84-4.336,63.635-7.166,95.674-9.3a.206.206,0,0,0,0-.411,872.771,872.771,0,0,0-93.992,9.022c-16.15,2.343-32.3,4.731-48.6,5.69-7.815.472-15.614.456-23.429.2s-15.293-.365-22.664,1.521c-.184-1.339-.367-2.738-.52-4.153,12.969,0,25.555-2.48,38.386-3.8s25.891,0,38.814-1.232c26.212-2.632,51.66-9.539,78.1-10.269a.183.183,0,1,0,0-.365c-26.35-.426-52,7.485-78.1,10.1-12.647,1.263-25.341,0-37.973,1.126-13.137,1.247-26.075,3.149-39.273,3.91-.092-.943-.168-1.886-.2-2.83,25.387-2.023,50.773-4.564,76.083-7.333.245,0,.26-.426,0-.4-25.371,2.328-50.758,4.564-76.1,7.211a25.019,25.019,0,0,1,.245-4.564c33.2-2.176,66.388-6.085,99.543-9.128,33.461-2.906,66.953-5.477,100.415-8.276.4,0,.4-.654,0-.624-33.492,2.48-66.953,5.462-100.415,8.413-33.125,2.921-66.51,5.081-99.5,9.28a14.351,14.351,0,0,1,1.178-3.864c.245-.5-.367-1.065-.8-.624a11.43,11.43,0,0,0-2.508,8.154c-15.568-4.564-31.642-7.713-47.409-11.06-16.165-3.408-32.376-6.587-48.663-9.4-.153,0-.214.213,0,.243,16.257,2.936,32.467,6.085,48.6,9.615s31.687,7.774,47.623,11.228a44.475,44.475,0,0,0,.841,6.618q-48.4-10.36-97.1-19.778c-.245,0-.367.319-.107.38,32.116,7.5,64.751,14.088,97.264,19.778.229,1.171.474,2.282.673,3.286-16.348-3.423-32.727-6.679-49.122-9.919q-12.235-2.419-24.469-4.914c-7.754-1.521-15.783-3.971-23.689-4.427a.229.229,0,0,0-.245.183c-3.456-7.333-3.884-14.286.321-21.436,16.562,4.245,33.553,7.135,50.253,10.8s33.783,7.226,50.712,10.649a.751.751,0,0,0,.826-.35.506.506,0,0,0,.413.213c17.633,0,35.587-2.51,53.144-4s34.792-3.043,52.18-4.731c31.657-3.043,63.528-5.72,95.078-9.98a17.97,17.97,0,0,0-3,12.795Zm10.613-15.776a.53.53,0,0,0,0,.335c-34.945,3.164-69.767,7.789-104.7,11.167q-26,2.51-52.18,4.747c-17.052,1.521-34.517,1.841-51.446,4.366a.537.537,0,0,0-.229.106.3.3,0,0,0,0-.122c.122-.532.245-1.05.336-1.521a4.344,4.344,0,0,0-.122-2.145.69.69,0,0,0-1.254-.152.191.191,0,0,1-.076.152.472.472,0,0,0-.413-.487c-18.214-3.606-36.367-7.166-54.49-11.015-.841-1.171-1.743-2.358-2.493-3.575s-1.652-1.217-.306-.852c2.477.685,5.444,3.362,7.647,4.716a.368.368,0,0,0,.451-.053.364.364,0,0,0,.053-.449c-.5-.745-2.478-3.469-2.233-3.651s5.735,3.043,6.347,3.347a.353.353,0,0,0,.427-.061.349.349,0,0,0,.047-.426,26.677,26.677,0,0,1-1.835-3.56h.872c1.438.791,4.16,2.738,4.588,3.043a.353.353,0,0,0,.4-.022.349.349,0,0,0,.125-.374c-.612-2.5-.979-3.043,1.789-1.156a.353.353,0,0,0,.489-.122c.138-.2,3.579.73,4.435.517a.4.4,0,0,0,.275-.472c-.336-.806,1.1,0,2,0a.4.4,0,0,0,0-.806l-.52-.167c36.7,1.141,73.407,3.043,110.218,4.731,11.47.517,22.94.9,34.425,1.05-17.924,1.187-35.847,2.921-53.74,4.382-18.872,1.521-37.835,2.906-56.661,5.066-.443,0-.474.73,0,.715,18.9-.913,37.8-2.632,56.661-4.153s37.8-2.754,56.585-4.564a.851.851,0,0,0,.6-1.354c11.286.091,22.588,0,33.874-.563a1.038,1.038,0,0,0,.979-.837,7.89,7.89,0,0,0,4.114-2.145c9.176-.913,18.26-2.3,27.421-3.286,4.175-.441,8.35-.776,12.525-1.111,2.187-.167,4.374-.365,6.561-.578.7-.152,9.635-1.369,8.4,1.263Zm-9.6-3.043c-3.793.365-7.31,1-8.289,1.111-12.02,1.4-24.178,2.48-36.077,4.792,2.325-2.358,4.3-5.553,5.873-7.409,1.116-1.308,2.34-2.647,3.487-4.032,11.684,1.537,23.322,3.149,34.945,5.4ZM412.593,56.841c-7.02-1.826-15.584,0-22.512.35-4.833.259-9.65.487-14.483.685-4.466.183-9.543-.2-13.886,1.126a3.6,3.6,0,0,0,.291-.532.83.83,0,0,0,.642,0,10.14,10.14,0,0,0,5.628-3.895,127.443,127.443,0,0,1,21.334-2.556c3.426-.152,20.722-.152,22.924,4.686Zm-41.811-8.9c3.992,1.75,8.962,1.978,13.2,2.556l2.279.335a94.885,94.885,0,0,0-17.541,3.043,14.722,14.722,0,0,0,1.85-5.188c.061-.259.107-.578.153-.882ZM150.606,20.891c-18.2-3.469-36.7-5.766-55.055-8.215C85.916,11.4,76.266,10.211,66.616,9.009,57.18,7.853,47.653,6.241,38.232,5.845a.516.516,0,0,0-.26-.578c.4-1.765,1.285-2.434,2.707-1.993l3.67.411c2.462.289,4.909.609,7.356.913L66.417,6.423,93.945,9.877c18.948,2.3,37.9,5.112,56.921,6.861A7.963,7.963,0,0,0,150.606,20.891Zm.8-5.142a.459.459,0,0,0-.367-.243c-23.169-3.545-46.629-5.842-69.981-8.657C70.745,5.6,60.438,4.4,50.13,3.137,62.181,3.015,74.278,2.27,86.283,2.1c15.752-.213,31.5-.411,47.256-.411,31.213,0,62.4,1.232,93.579,1.521a.66.66,0,0,0,.474-.152.446.446,0,0,0,.153,0c19.652,3.5,39.762,4.321,59.643,5.477C305.862,9.6,324.214,11.55,342.566,13.7c-1.927.106-3.793.274-5.429.3l-25.662.5q-26.564.532-53.159,1.05c-17.725.35-35.465.776-53.2.9s-35.465-1.369-53.174-1.232a.491.491,0,0,0-.394.14.485.485,0,0,0-.141.392Zm3.548,47.025h.168a.774.774,0,0,0,.245-1.354h0a5.042,5.042,0,0,0,.153-.837l.78.122a.857.857,0,0,0,.933-.5c8.136,1.293,17.128.4,25.371.365,9.176,0,18.352-.259,27.528-.517,17.755-.532,35.48-1.339,53.22-2.039s35.465-1.263,53.2-1.354q13.764,0,27.528.319c6.714.183,13.687.761,19.483-3.18a.426.426,0,0,0-.184-.806h0a42.512,42.512,0,0,0,2.309-20.767c-.612-4.4-1.453-10.406-6.3-12.171a19.429,19.429,0,0,0-7.325-.335L338.3,20.3q-12.464.5-24.913.913-51.614,1.613-103.29,1.765c-9.543,0-19.086.076-28.613-.106s-19.881-1.1-29.47,0v-.578a.773.773,0,0,0,0-.928c0-.593.092-1.171.138-1.765a9.6,9.6,0,0,0,.122-3.164.47.47,0,0,0,0-.152c16.088,2.358,33,1.613,49.213,1.521,17.128,0,34.257-.441,51.385-.715L304.2,16.3l25.662-.4,11.913-.2c4.007-.076,8.7-.822,12.112,1.734.7.532,1.621-.654.948-1.248l-.4-.3c3.242.2,6.591.472,9.3,2.312,4.511,3.043,5.536,8.793,5.674,13.829.2,7.409,1.82,22.09-7.295,24.6a.751.751,0,0,0-.291.152.812.812,0,0,0-1.407.3c-.122.472,0,.9-.367,1.324a1.529,1.529,0,0,1-.734.548h-.153c-16.822,0-33.645,1.354-50.376,2.039q-25.769,1.035-51.523,1.8t-51.538.852c-13.091,0-26.2-.426-39.288-.365-3.823-.167-7.647-.289-11.439-.4ZM226.506,67.9h0a103.991,103.991,0,0,0,12.235-1.978.246.246,0,1,0-.076-.487,96.193,96.193,0,0,0-9.971,1.156c-.076-.2-.168-.38-.26-.578l2.554.2a.567.567,0,0,0,.444-.227.56.56,0,0,0,.091-.488l.168-.167a.476.476,0,0,0,.474-.042.471.471,0,0,0,.2-.43q12.387-.2,24.775-.487c17.174-.411,34.348-1.035,51.523-1.673,5.9-.213,11.822-.365,17.755-.532-1.529.289-3.059.654-4.481,1.065-7.845-.7-16.073.38-23.873.852s-15.828.837-23.75,1.521c-15.783,1.308-31.794,2.647-47.409,5.568a.5.5,0,0,0-.229-.274,3.165,3.165,0,0,0-.107-3Zm-10.185-2.48a9.583,9.583,0,0,0,4.588,1.1c2.049.167,6.117,1.187,4.894,4.016a248.8,248.8,0,0,0-32.192-5.355h12.1c3.5,0,6.989,0,10.491-.076a.334.334,0,0,0,.122.319Zm1.025-.4h3.227a.289.289,0,0,0,.138.167l.489.259c-1.3-.137-2.63-.167-3.854-.4Zm4.435,0h1.529a.47.47,0,0,0,.138.441l.612.593-.26-.091Zm3.15,0h2.34a.667.667,0,0,0-.122.73l.168.335ZM184.679,66.41c11.959,1.065,23.72,2.967,35.557,4.762a.488.488,0,0,0-.168.183,49.519,49.519,0,0,0-6.744,17.222c-23.521-2.769-47.317-3.956-70.93-5.614-24.469-1.734-48.938-3.758-73.407-4.929-.138,0-.138.213,0,.228,24.469,1.9,48.938,3.21,73.407,5.112,23.6,1.826,47.241,4.4,70.838,5.659a54.2,54.2,0,0,0-.887,10.071c-39.762-3.043-79.616-5.8-119.287-10.391-.214,0-.214.319,0,.35,39.579,4.686,79.524,8.961,119.287,10.558a52.749,52.749,0,0,0,2.248,14.712c-24.668-1.43-49.336-2.723-73.958-4.929s-49.244-5.538-73.866-8.5a.152.152,0,1,0,0,.3c24.133,3.986,48.632,6.466,72.979,8.763,24.928,2.343,49.993,4.305,75.043,4.9.336,1.08.719,2.145,1.132,3.21-10.048-.837-20.294-.837-30.265-1.521q-20.279-1.232-40.542-2.708t-40.542-3.164c-13.259-1.141-26.61-3.043-39.9-3.666-.535-.837-2.156-3.545-2.325-3.94a27.9,27.9,0,0,1-1.529-4.792,40.686,40.686,0,0,1-.811-11.79c.428-7.135,1.269-14.879,5.108-21.056,26.717-.426,53.4-1.719,80.121-1.187,13.137.274,26.32.9,39.441,2.084ZM56.2,104.977c.122.5.229.989.352,1.521a.644.644,0,0,0-.459.183,8.991,8.991,0,0,0-.245-1.521Zm-2.6,1.05c-.138.487-.275.974-.4,1.521-.092-.4-.184-.791-.291-1.187Zm-2.692,1.05-.321,1.521c-.122-.441-.275-.867-.444-1.308Zm-2.416.943-.5,1.993-.581-1.628Zm-9.849,3.347,3.747-1.248a.506.506,0,0,0,.918.152l.413-.609.52-.183c.2.563.4,1.126.612,1.673a.6.6,0,0,0,1.132,0,12.313,12.313,0,0,1,.581-1.521c.321.9.627,1.78.933,2.678a.628.628,0,0,0,1.193,0c.245-.974.489-1.947.749-2.921a12.64,12.64,0,0,1,.352,3.347.643.643,0,0,0,1.269.167c.321-1.43.627-2.845.918-4.275a21.19,21.19,0,0,1,.306,3.286c0,.776,1.239,1,1.392.2.275-1.521.642-3.119,1.055-4.655a18.313,18.313,0,0,1,0,3.545c-.076.837,1.223.958,1.438.183l.413-1.369a3.073,3.073,0,0,0,.26.882.766.766,0,0,0,1.223.335,11.255,11.255,0,0,0,1.529,2.252c-9.038.183-18.046.639-27.1.289h-.092C34.516,112.842,36.611,112.036,38.645,111.366Zm-15.048,7.3a.3.3,0,0,0-.26-.319c.7-2.236,1.85-3.469,3.41-3.743H29.79l3.594.122q4.932.137,9.895,0c5.781,0,11.577-.259,17.358-.639a2.87,2.87,0,0,0,4.129-.319c4.267,3.043,11.5,2.221,16.379,2.632,7.952.669,15.9,1.324,23.842,2.039l2.676.228c-10.705-.243-21.517-.137-32.116-.152C58.251,118.562,40.817,117.893,23.6,118.669Zm324.827,42.6a.939.939,0,0,0,.168,1c-41.414,1.643-82.675-.426-124.027-2.769-42.224-2.389-84.464-3.666-126.75-4.169-22.144-.259-44.534-1.217-66.709-.35.428-1.1.8-2.191,1.147-3.286h0c4.588,0,9.283-.426,13.932-.776a.137.137,0,0,0,0-.274c-4.588,0-9.176.137-13.764.472a47.09,47.09,0,0,0,1.866-10.939c15.461.563,30.877,1.156,46.308,2.449.122,0,.122-.183,0-.2a439.643,439.643,0,0,0-46.277-2.723,46.782,46.782,0,0,0-.138-5.477,563.64,563.64,0,0,1,84.908,4.214.092.092,0,0,0,0-.183A430.16,430.16,0,0,0,34.134,133.7h0a44.073,44.073,0,0,0-3.655-14h0c15,.456,30.066.183,45.038.563,17.5.456,35.174,1.521,52.715.974a.7.7,0,0,0,.719-.654l26.289,2.328,49.305,4.351,11.867,1.05c2.615.228,6.117,1.111,8.656,0a5.4,5.4,0,0,0,1.407-.9.4.4,0,0,0,.275,0c11.485-.532,23.016-1.278,34.517-2.191a.336.336,0,0,0,.291.274c14.8,1.765,30.112,1.521,45.008,2.069,13.519.532,27.054,1.126,40.588,1.126a.591.591,0,0,0,0,.274,48.545,48.545,0,0,1,2.233,5.446c-46.552-1.841-93.135-2.906-139.688-4.077a.137.137,0,1,0,0,.274c46.583,1.719,93.2,3.545,139.81,4.564h.107a39.544,39.544,0,0,1,1.529,7.2h0a36.325,36.325,0,0,1,.138,7.181c-38.065-2.358-76.282-3.362-114.378-4.868-38.478-1.521-77-2.678-115.494-1.111-.153,0-.153.259,0,.243,76.71-2.921,153.191,4.412,229.81,6.359A35.889,35.889,0,0,1,348.423,161.267Zm2.6-33.8a3.61,3.61,0,0,1-.811-2.1,162.023,162.023,0,0,0,15.66-12.779l2.248-.289h0A155.819,155.819,0,0,0,351.5,128.177a.429.429,0,0,0-.321-.183h0a.637.637,0,0,0-.153-.578Zm-1.009-2.951a.429.429,0,0,0-.535.213,1.367,1.367,0,0,1-.122.38l-.336.3a.38.38,0,0,0,.229.624,3.487,3.487,0,0,0,.627,1.963c-14.437-.563-28.9-.9-43.341-1.521-13-.5-26.243-1.719-39.3-1.628,20.829-1.78,41.613-4.153,62.213-7.15,11.286-1.643,22.588-3.362,33.9-4.823-4.68,3.53-9.038,7.668-13.336,11.593Zm19.606,4.138c.2,4.9.734,10.208-2.141,14.468a89.088,89.088,0,0,1-17.052,17.922,36.656,36.656,0,0,0,2.493-19.778c4.879-4.671,9.818-9.311,14.406-14.255.184-.183-.092-.441-.275-.274-4.909,4.473-9.543,9.311-14.207,14.073a33.142,33.142,0,0,0-2.294-7.774,162.952,162.952,0,0,1,13.06-12.49.153.153,0,0,0-.183-.243,74.293,74.293,0,0,0-13.106,12.171,29.494,29.494,0,0,0-2-3.666h2.845a.322.322,0,0,0,.535.137c5.444-5.218,10.935-10.421,16.547-15.457.673,5.036,1.178,10.071,1.376,15.122Zm37.743-27.628c-.107-.791-.2-1.521-.306-2.358a7.022,7.022,0,0,1,2.263-.426,17.179,17.179,0,0,1,3.41.578,1.061,1.061,0,0,0,.551,0c-1.529,9.326-14.483,8.946-21.946,9.508-8.151.609-16.272,1.521-24.362,2.449H366.9a.384.384,0,0,0-.459,0h-.092c-14.88,1.81-29.7,4.214-44.549,6.374-31.382,4.473-63.038,5.69-94.481,9.387a3.608,3.608,0,0,0-.489-4.914.554.554,0,0,0-.78,0,.547.547,0,0,0,0,.776c.275,3.225-.749,4.747-3.059,4.564a8.962,8.962,0,0,1-2.921,0c-1.529,0-3.059-.259-4.588-.4l-10.048-.852-20.1-1.7-39.258-3.347-39.257-3.377q-10.093-.852-20.156-1.75L77.49,114.7c-3.533-.3-8.763,0-11.944-1.886a.532.532,0,0,0-.236-.488.538.538,0,0,0-.543-.03c-.535-.259-1.147.3-.841.791a2.561,2.561,0,0,1-1.315.532.409.409,0,0,0-.108-.326.414.414,0,0,0-.32-.13h-.856c-2.1-1.521-3.319-6.542-3.579-7.607-.092-.365-.168-.73-.26-1.111h0c.642-.289.306-1.263-.306-1.308-.382-1.871-.688-3.743-.918-5.644a91.354,91.354,0,0,1-.52-13.418c.122-4.564.5-8.991.994-13.479a41.089,41.089,0,0,1,1.04-7.09c.811-2.83,5.429-8.322,8.319-4.26-.092.122-.168.243-.275.365s0,.548.291.38l.321-.213c0,.137.153.274.229.441.352.7,1.392.091,1.055-.609a4.582,4.582,0,0,0-.321-.548,11.468,11.468,0,0,1,4.19-2.449,58.746,58.746,0,0,1,8.2-.913c4.435-.487,8.9-.882,13.305-1.521l7.937,1.263,29.057,4.716c3.946.639,8.3,1.734,12.693,2.434-25.647-.472-51.37.137-76.97,1.521a.75.75,0,0,0-1.239-.426c-2.921,2.723-3.93,6.6-4.68,10.406a79.427,79.427,0,0,0-1.774,16.02A35.692,35.692,0,0,0,60.407,103c.765,1.932,1.759,5.492,4.175,5.72a.566.566,0,0,0,.535-.3v-.076c12.387,1.917,25.142,2.465,37.621,3.59q20.233,1.826,40.5,3.377t40.542,2.875c13.351.867,27.207,2.693,40.573,2.1a.582.582,0,0,0,.413-.183c30.586-1.035,61.341-3.453,91.851-6.085,15.156-1.324,30.28-2.86,45.375-4.731s30.586-3.438,45.329-6.816a.775.775,0,0,0,.046-1.491Zm-.979-36.771a.292.292,0,0,0-.229,0c-31.4,4.96-63.191,4.214-94.818,7.181-15.293,1.445-30.464,4-45.711,5.933a252.509,252.509,0,0,1-46.6,1.765c-.245,0-.229.35,0,.38,31.275,4.153,63.1-5.005,94.114-7.774s62.335-1.719,93.074-6.892a86.853,86.853,0,0,0-1.988,13.768c-11.286.715-22.619,2.4-33.844,3.758-.138,0-.138.243,0,.228,11.24-1.065,22.649-1.856,33.813-3.56a73.111,73.111,0,0,0,.076,10.026c-27.528,2.556-54.933,5.386-82.384,8.094-27.834,2.723-55.881,6.6-83.868,6.892a.106.106,0,1,0,0,.213c14.009.289,27.986-1.2,41.919-2.571l41.949-4.062c27.528-2.632,54.964-5.112,82.43-7.881a66.941,66.941,0,0,0,1.208,8.322c-.2.122-.367.259-.551.38-.5.411.153,1.232.7.9h.122c.138.624.291,1.263.444,1.886-14.788,1.81-29.485,4.564-44.35,6.466-15.4,1.917-30.831,3.514-46.292,4.884-30.586,2.708-61.173,3.925-91.759,6.542-2.34-.335-4.68-.578-7.035-.791a54.541,54.541,0,0,1-1.529-6.344c31.06-3.3,62.029-6.77,93.2-9.128,31.534-2.465,63.1-4.823,94.512-8.626.4,0,.413-.685,0-.639-31.718,3.91-63.574,6.283-95.429,8.778-30.724,2.4-61.937,4.153-92.355,9.265a60.1,60.1,0,0,1-1.055-9.95c29.852-.943,59.75-3.712,89.45-6.74s58.986-6.192,88.349-10.178c.214,0,.168-.411,0-.38-29.684,3.012-59.353,6.892-89.144,9.934-29.5,2.951-58.986,5.005-88.563,6.861,0-1.613,0-3.225.122-4.823,12.235-1.4,24.117-2.83,36.413-3.119s24.882-.289,37.285-1.293c25.234-2.054,50.162-6.466,75.411-8.5a.175.175,0,0,0,0-.35c-25.555,0-50.9,6.39-76.313,8.428-12.4.989-24.836.913-37.269,1.187-11.684.259-24.148.3-35.511,3.377a55.842,55.842,0,0,1,.872-6.937h.489a.2.2,0,1,0,0-.4h-.413c.229-1.126.5-2.267.8-3.393,29.806-.685,59.567-4.214,89.2-7.211s59.444-5.386,89.22-7.607c.4,0,.4-.639,0-.609C334.9,73.317,275.719,81.2,216.168,85.153A66.814,66.814,0,0,1,221.2,71.948a.636.636,0,0,0,0-.715l5.123.761a.752.752,0,0,0,.581-.183.307.307,0,0,0,.291.106c16.379-1.6,32.666-3.925,49.106-5.2,7.907-.609,15.813-1.308,23.735-1.521s16.119.243,23.888-1.05a.289.289,0,0,0,.229-.426l2.432-.365h0c2.493-.365,5-.669,7.509-1.08a.276.276,0,0,0,.186-.1.273.273,0,0,0,.058-.2c8.3-.259,16.578-.624,24.806-1.324a.842.842,0,0,0,.673-.411,2.94,2.94,0,0,0,1.407-.776h0c3.992.882,8.4.137,12.464-.122,4.588-.259,9.038-.563,13.565-.791l13.58-.669c2.447-.106,4.879-.289,7.295-.213-.627,2.1-1.223,4.305-1.743,6.542Z" transform="translate(-0.002 0.006)"/>
        <path id="Path_13" data-name="Path 13" d="M100.68,34.92c-9.87-1.61-19.87-2.69-29.78-4a.085.085,0,0,0,0,.17c9.83,1.63,19.84,3.24,29.78,4C100.75,35.09,100.77,34.94,100.68,34.92Z" transform="translate(42.123 0.006)"/>
        <path id="Path_14" data-name="Path 14" d="M89.45,22.77c-19.42-2.52-38.75-5-58-8.65-.11,0-.16.15-.05.18,19.13,3.8,38.6,7.11,58.05,8.79C89.66,23.11,89.65,22.8,89.45,22.77Z" transform="translate(-0.002 0.006)"/>
        <path id="Path_15" data-name="Path 15" d="M78.19,16.16C70.07,15.4,62,14.8,53.89,13.68c-7.71-1.07-15.31-2.68-23-3.83-.12,0-.17.14,0,.17a200.527,200.527,0,0,0,23,3.94c8.06,1.08,16.2,2.11,24.34,2.47C78.37,16.44,78.36,16.17,78.19,16.16Z" transform="translate(-0.002 0.006)"/>
        <path id="Path_16" data-name="Path 16" d="M97.35,17.92c-5.92-.68-12-1-17.92-1.18-.12,0-.11.17,0,.18,5.93.6,12,1.15,17.92,1.29C97.53,18.21,97.52,17.94,97.35,17.92Z" transform="translate(45 0.006)"/>
        <path id="Path_17" data-name="Path 17" d="M72.43,12.6c-10.67-1.07-21.26-2.46-31.86-4-.1,0-.14.13,0,.15C51.11,10.66,61.8,12,72.47,12.89,72.59,12.87,72.59,12.61,72.43,12.6Z" transform="translate(-0.002 0.006)"/>
        <path id="Path_18" data-name="Path 18" d="M134.71,32.92h-1.83v.07h1.83Z" transform="translate(70.81 0.006)"/>
        <path id="Path_19" data-name="Path 19" d="M177.53,30.41a163.651,163.651,0,0,0-34.33,1.9c-.07,0,0,.13,0,.12a269.353,269.353,0,0,1,34.31-1.9C177.61,30.53,177.6,30.41,177.53,30.41Z" transform="translate(86.771 0.006)"/>
        <path id="Path_20" data-name="Path 20" d="M237.35,28.83A408.865,408.865,0,0,0,180,30h0c19.17-.82,38.21-1.31,57.4-1C237.52,29.1,237.52,28.84,237.35,28.83Z" transform="translate(143.808 0.006)"/>
        <path id="Path_21" data-name="Path 21" d="M155.06,27.38a.41.41,0,1,0,.346.405A.41.41,0,0,0,155.06,27.38Z" transform="translate(82.099 0.006)"/>
        <path id="Path_22" data-name="Path 22" d="M160.83,27.75v0Z" transform="translate(85.127 0.006)"/>
        <path id="Path_23" data-name="Path 23" d="M164.78,27.75v.07S164.82,27.75,164.78,27.75Z" transform="translate(87.224 0.006)"/>
        <path id="Path_24" data-name="Path 24" d="M159.31,27.38a.41.41,0,1,0,.346.405A.41.41,0,0,0,159.31,27.38Z" transform="translate(84.355 0.006)"/>
        <path id="Path_25" data-name="Path 25" d="M238.58,24.78a454.561,454.561,0,0,0-57.39,2.34c-.15,0-.15.25,0,.23C200.3,25.52,219.4,25,238.58,25a.11.11,0,1,0,0-.22Z" transform="translate(143.808 0.006)"/>
        <path id="Path_26" data-name="Path 26" d="M139.25,72.76C113.79,71.14,88.37,69.32,63,66.42h0c25.28,3.26,50.75,5.79,76.23,6.69A.176.176,0,1,0,139.25,72.76Z" transform="translate(46.397 35.432)"/>
        <path id="Path_27" data-name="Path 27" d="M137.72,68.68c-15.9-1.8-31.93-2.8-47.87-4.27s-31.84-3.33-47.76-5a.05.05,0,0,0,0,.1c15.68,2.11,31.44,3.7,47.18,5.33,16.08,1.66,32.29,3.48,48.46,4.14C137.94,69,137.92,68.71,137.72,68.68Z" transform="translate(34.377 32.01)"/>
        <path id="Path_28" data-name="Path 28" d="M137.75,60.1C115.18,58.82,92.58,58.38,70,56.86a.1.1,0,0,0,0,.2c22.47,1.72,45.2,3.48,67.74,3.34a.15.15,0,0,0,.01-.3Z" transform="translate(49.348 30.01)"/>
        <path id="Path_29" data-name="Path 29" d="M141.1,50.43c-30.93-1.75-62-2.54-93-3.37a.1.1,0,0,0,0,.19c30.94,1.47,62,3,93,3.55C141.34,50.81,141.33,50.44,141.1,50.43Z" transform="translate(38.706 0.006)"/>
        <path id="Path_30" data-name="Path 30" d="M135.32,46.11c-20-2.69-40.58-2.76-60.73-1.4-.17,0-.17.28,0,.27,20.33-1.21,40.47-.35,60.73,1.39C135.5,46.39,135.49,46.13,135.32,46.11Z" transform="translate(50.82 0.006)"/>
        <path id="Path_31" data-name="Path 31" d="M136.53,45.91a.41.41,0,1,0,.346.405A.41.41,0,0,0,136.53,45.91Z" transform="translate(72.266 0.006)"/>
        <path id="Path_32" data-name="Path 32" d="M196.73,70c-9.18-.43-18.27,2.94-27.34,4.06s-18.4,1.27-27.62,1.7a.105.105,0,0,0,0,.21,265.352,265.352,0,0,0,27.62-1.68c9.1-1.1,18.14-4.34,27.34-4.13A.08.08,0,1,0,196.73,70Z" transform="translate(94.081 37.234)"/>
        <path id="Path_33" data-name="Path 33" d="M251.05,66.08q-25.92,2.91-52,4.52v.08q26.06-1.17,52-4.53S251.09,66.07,251.05,66.08Z" transform="translate(143.808 34.999)"/>
        <path id="Path_34" data-name="Path 34" d="M263.79,49.29c-18.51-1.19-36.72,3.79-55.12,4.89-17.95,1.06-36.28.14-53.84,4.64a.08.08,0,0,0,0,.15c18.1-4.08,36.55-3.34,54.95-4.5,18-1.13,35.82-6,54-4.78C264,49.7,264,49.3,263.79,49.29Z" transform="translate(143.808 0.006)"/>
        <path id="Path_35" data-name="Path 35" d="M226.44,105.64c-48.43-2-96.9-3.24-145.34-5.11l-41.17-1.6c-.07,0-.07.11,0,.12q72.64,3.24,145.32,5.69c13.73.48,27.46,1.06,41.19,1.39C226.75,106.14,226.75,105.66,226.44,105.64Z" transform="translate(-0.002 52.862)"/>
        <path id="Path_36" data-name="Path 36" d="M35.38,96c-4.44-.1-8.92-.19-13.36,0a.07.07,0,0,0,0,.14c4.44.24,8.92.15,13.36,0a.12.12,0,0,0,0-.14Z" transform="translate(-0.002 50.068)"/>
        <path id="Path_37" data-name="Path 37" d="M227,102.44c-21.55-1.09-43.14-1.72-64.71-2.59C140.53,99,118.74,98,97,97.67c-12.53-.18-25-.29-37.56,0v.07c43.53-.38,87,1.79,130.48,3.59,12.38.51,24.77,1.16,37.15,1.55C227.32,102.92,227.32,102.45,227,102.44Z" transform="translate(82.284 51.772)"/>
        <path id="Path_38" data-name="Path 38" d="M61.2,93.7h0l2.43.31h0Z" transform="translate(32.684 48.911)"/>
        <path id="Path_39" data-name="Path 39" d="M74,94.27,69.71,94c-.06,0-.06.08,0,.09l4.25.29S74,94.28,74,94.27Z" transform="translate(37.47 49.079)"/>
        <path id="Path_40" data-name="Path 40" d="M154.14,91.82c-18.68-1.28-37.46-1.55-56.19-1.2v.09c18.75-.08,37.47.48,56.19,1.28a.09.09,0,0,0,0-.17Z" transform="translate(65.381 47.421)"/>
        <path id="Path_41" data-name="Path 41" d="M228.86,94.32q-31.59-.85-63.16-2.42v.07q31.53,2.18,63.16,2.71a.18.18,0,1,0,0-.36Z" transform="translate(114.369 48.372)"/>
        <path id="Path_42" data-name="Path 42" d="M67.88,85.75a446.088,446.088,0,0,1-44.62-1.86.145.145,0,0,0,0,.29,321.2,321.2,0,0,0,44.62,1.69.06.06,0,0,0,0-.12Z" transform="translate(-0.002 44.062)"/>
        <path id="Path_43" data-name="Path 43" d="M115.57,85.7c-13.88.36-27.73.56-41.61.13v.06c13.85.44,27.76.59,41.61,0a.095.095,0,1,0,0-.19Z" transform="translate(46.245 44.776)"/>
        <path id="Path_44" data-name="Path 44" d="M239.5,77.27Z" transform="translate(143.808 40.294)"/>
        <path id="Path_45" data-name="Path 45" d="M240.62,79.28A93.591,93.591,0,0,0,230,89.1c-.11.1.05.26.16.16,3.47-3.32,7.12-6.45,10.57-9.78C240.87,79.38,240.73,79.2,240.62,79.28Z" transform="translate(143.808 42.77)"/>
        <path id="Path_46" data-name="Path 46" d="M241,87c-3.31,3-6.29,6.52-9.32,9.81,0,.06,0,.14.08.09,3.16-3.18,6.52-6.32,9.39-9.76A.1.1,0,0,0,241,87Z" transform="translate(143.808 46.914)"/>
        <path id="Path_47" data-name="Path 47" d="M237.57,94.2a70.828,70.828,0,0,0-7,7.86c-.08.09,0,.22.12.13,2.34-2.62,4.86-5.09,7.16-7.74a.188.188,0,1,0-.28-.25Z" transform="translate(143.808 50.455)"/>
        <path id="Path_48" data-name="Path 48" d="M128.67,128.82c-16.07-3.4-32.24-6.33-48.35-9.51h0c16.08,3.28,32.12,6.82,48.25,9.87C128.81,129.24,128.91,128.87,128.67,128.82Z" transform="translate(51.748 64.342)"/>
        <path id="Path_49" data-name="Path 49" d="M127.5,122.18c-9.15-2-18.44-3.53-27.65-5.27s-18.41-3.65-27.65-5.25c-.18,0-.26.24-.08.27,9.18,1.92,18.44,3.53,27.64,5.31s18.4,3.79,27.65,5.29C127.63,122.56,127.73,122.23,127.5,122.18Z" transform="translate(47.929 60.426)"/>
        <path id="Path_50" data-name="Path 50" d="M255.6,119.77c-17.83.76-35.68,2.92-53.4,5-17.52,2-35,5-52.62,5.6a.1.1,0,0,0,0,.19c17.62-.2,35.15-3.46,52.62-5.48,17.77-2.06,35.61-3.21,53.4-5C255.79,120.05,255.8,119.76,255.6,119.77Z" transform="translate(143.808 64.795)"/>
        <path id="Path_51" data-name="Path 51" d="M259.81,114.51c-24.77,3-49.5,5.77-74.34,8.11-.13,0-.13.22,0,.21,24.82-1.83,49.76-4.41,74.38-8C260,114.8,260,114.48,259.81,114.51Z" transform="translate(143.808 61.422)"/>
        <path id="Path_52" data-name="Path 52" d="M67.58,137a.41.41,0,1,0,.41.41.41.41,0,0,0-.41-.41Z" transform="translate(35.659 71.631)"/>
        <path id="Path_53" data-name="Path 53" d="M196.09,152.34c-10.06-1.55-20.19-2.71-30.28-4s-20.34-2.66-30.59-3.15A136.809,136.809,0,0,1,119,143.83c-5.05-.84-10.05-2-15.1-2.84a265.216,265.216,0,0,0-30.29-3.24s0,0,0,.05A254,254,0,0,1,105,141.48c5,.9,10,2.07,15.11,2.89a125.8,125.8,0,0,0,14.52,1.22c20.59.93,40.93,4.85,61.41,7C196.21,152.65,196.25,152.36,196.09,152.34Z" transform="translate(70.991 75.588)"/>
        <path id="Path_54" data-name="Path 54" d="M196.7,149.38c-24-3-48.11-5.37-72.14-8.13S76.48,135.69,52.44,133c-.15,0-.15.22,0,.24q36,4.45,72.12,8.52c24,2.74,48.06,5.76,72.14,8.1A.24.24,0,0,0,196.7,149.38Z" transform="translate(59.207 73.503)"/>
        <path id="Path_55" data-name="Path 55" d="M194.89,142.73c-13.83-2-27.77-3.47-41.63-5.27a.14.14,0,0,0,0,.28C166.93,140,181,142.07,194.85,143,195,143,195.06,142.75,194.89,142.73Z" transform="translate(95.814 73.031)"/>
        <path id="Path_56" data-name="Path 56" d="M196.11,141.16c-8.19-1.23-16.42-2.19-24.64-3.21a.055.055,0,1,0,0,.11c8.2,1.18,16.4,2.43,24.62,3.4C196.24,141.48,196.28,141.19,196.11,141.16Z" transform="translate(99.846 72.787)"/>
        <path id="Path_57" data-name="Path 57" d="M200,148.38h0" transform="translate(105.861 77.368)" stroke="#273480" stroke-linecap="round" stroke-linejoin="round" stroke-width="0"/>
        <path id="Path_58" data-name="Path 58" d="M247.94,129.67c-14.45,6.1-29.2,11.69-43.47,18.18-.09,0,0,.19.06.16,14.76-5.16,29.23-11.77,43.49-18.16C248.11,129.8,248,129.63,247.94,129.67Z" transform="translate(143.808 72.041)"/>
        <path id="Path_59" data-name="Path 59" d="M247.94,132.78a165.145,165.145,0,0,1-15.78,6.3c-.13,0-.08.24.05.2A68.6,68.6,0,0,0,248.05,133,.123.123,0,0,0,247.94,132.78Z" transform="translate(143.808 70.774)"/>
        <path id="Path_60" data-name="Path 60" d="M248.06,136.6c-8.58,3-17,6.61-25.57,9.65-.11,0-.07.23.06.19,8.61-2.65,17.53-5.58,25.62-9.57C248.31,136.8,248.21,136.55,248.06,136.6Z" transform="translate(143.808 73.655)"/>
        <path id="Path_61" data-name="Path 61" d="M137.53,175.62q-49.26-11.4-98.16-24a.08.08,0,0,0,0,.15c32.35,9.23,65.2,17.32,98.18,24a.076.076,0,1,0-.02-.15Z" transform="translate(-0.002 86.021)"/>
        <path id="Path_62" data-name="Path 62" d="M139.84,173.44q-37.73-8.94-75.32-18.29a.18.18,0,0,0-.09.34c24.93,6.64,50.12,12.77,75.34,18.2C139.93,173.73,140,173.48,139.84,173.44Z" transform="translate(47.177 86.26)"/>
        <path id="Path_63" data-name="Path 63" d="M106.53,161.73c-14.93-3.83-30-7-45-10.81s-29.76-8.09-44.6-12.3a.13.13,0,0,0-.06.25c14.72,4.58,29.63,8.57,44.55,12.46s29.91,7.86,45,10.61C106.61,162,106.67,161.76,106.53,161.73Z" transform="translate(-0.002 78.411)"/>
        <path id="Path_64" data-name="Path 64" d="M109.8,162.24a.41.41,0,1,0,.41.41A.41.41,0,0,0,109.8,162.24Z" transform="translate(58.075 84.827)"/>
        <path id="Path_65" data-name="Path 65" d="M141.41,169.86c-7.35-1.88-14.8-3.37-22.2-5-.11,0-.15.14,0,.16,7.39,1.72,14.75,3.61,22.19,5.1a.13.13,0,0,0,.01-.26Z" transform="translate(68.717 87.503)"/>
        <path id="Path_66" data-name="Path 66" d="M204.28,161.46c-10.34,1.67-20.65,3.23-31.05,4.45q-7.68.9-15.36,1.76c-4.69.54-9.83.57-14.37,1.87h0c5.09.24,10.51-1,15.57-1.58,5.3-.61,10.6-1.21,15.9-1.83,9.81-1.16,19.74-2.23,29.42-4.27C204.67,161.82,204.55,161.42,204.28,161.46Z" transform="translate(97.969 86.539)"/>
        <path id="Path_67" data-name="Path 67" d="M234.35,156.42c-4.21.51-8,.17-12.15,1.31a79.089,79.089,0,0,1-14.91,2.48.16.16,0,1,0,0,.32,51.48,51.48,0,0,0,13.57-1.87,35.929,35.929,0,0,1,6.95-1.52c2.23-.14,4.39.23,6.59-.29C234.63,156.79,234.59,156.39,234.35,156.42Z" transform="translate(143.808 82.698)"/>
        <path id="Path_68" data-name="Path 68" d="M241,159.25c-8,1-15.91,2.84-23.86,4.12-8.33,1.35-16.69,2.53-25,3.87-.11,0-.09.2,0,.18,8-.92,16-2.16,24-3.44,8.28-1.34,16.81-2.35,25-4.34C241.25,159.59,241.21,159.22,241,159.25Z" transform="translate(143.808 85.373)"/>
        <path id="Path_69" data-name="Path 69" d="M241,163.77c-30.56,5.24-61.18,10.39-91.61,16.29v.08c30.65-4.76,61.23-10.28,91.77-15.7C241.65,164.37,241.46,163.69,241,163.77Z" transform="translate(143.808 90.348)"/>
        <path id="Path_70" data-name="Path 70" d="M155.91,191.9c-18.48-2.47-37.15-3.93-55.69-5.87s-37.1-4-55.68-5.59c18.53,2.27,37.12,4.09,55.68,6s37.11,4.35,55.69,5.74C156.14,192.27,156.13,191.93,155.91,191.9Z" transform="translate(39.992 97.942)"/>
        <path id="Path_71" data-name="Path 71" d="M74.57,177.42c-15.79-.87-31.59-1.36-47.38-2a.1.1,0,0,0,0,.19c15.79.71,31.58,1.6,47.38,2.1A.146.146,0,0,0,74.57,177.42Z" transform="translate(-0.002 92.173)"/>
        <path id="Path_72" data-name="Path 72" d="M220.37,191.32c-24.48-.84-49-1.64-73.38-3.58s-48.4-5.49-72.65-7.7c-13.81-1.25-27.57-1.79-41.42-2.08a.1.1,0,1,0,0,.19c24.25-.15,48.63,3,72.69,5.76,24.27,2.73,48.57,4.89,73,6.16,13.92.73,27.85,1.21,41.79,1.7C220.66,191.79,220.66,191.33,220.37,191.32Z" transform="translate(-0.002 97.293)"/>
        <path id="Path_73" data-name="Path 73" d="M222.81,189.54c-11-1-22-1.36-33-2s-22-1.62-33-2a.17.17,0,0,0,0,.34c11,1,22,1.36,33,2s22,1.59,33,2a.17.17,0,1,0,0-.34Z" transform="translate(109.695 98.169)"/>
        <path id="Path_74" data-name="Path 74" d="M186.36,185.42c-5.57-.67-11.16-1.21-16.74-1.75a.1.1,0,0,0,0,.2c5.58.65,11.15,1.31,16.74,1.84C186.55,185.73,186.54,185.44,186.36,185.42Z" transform="translate(95.709 96.426)"/>
        <path id="Path_75" data-name="Path 75" d="M109.2,177.82c-23.92-.37-47.75-6.2-71.69-3.69-.13,0-.14.22,0,.21,24.06-2.43,47.68,4.5,71.69,3.95a.24.24,0,0,0,0-.47Z" transform="translate(-0.002 91.951)"/>
        <path id="Path_76" data-name="Path 76" d="M88,220.49c-2.17-1.06-4.46-1.91-6.69-2.82-.17-.07-.3.22-.13.3,2.21,1,4.41,2,6.68,2.84a.18.18,0,0,0,.14-.32Z" transform="translate(44.056 114.699)"/>
        <path id="Path_77" data-name="Path 77" d="M84.46,211.22c-12.57-5.48-25.15-10.71-37.34-17-.18-.09-.34.18-.16.28C59,200.79,71.42,207,84.25,211.73,84.54,211.84,84.75,211.35,84.46,211.22Z" transform="translate(28.813 107.585)"/>
        <path id="Path_78" data-name="Path 78" d="M206.7,202c-18.82,2.24-37.58,5.09-56.4,7.41q-14,1.71-28,3.3c-9.11,1-18.37,1.57-27.42,3.07-.17,0-.13.29,0,.29,9.53-.43,19.09-2,28.57-3s18.64-2.15,28-3.29c18.42-2.25,36.95-4.33,55.27-7.31C207,202.36,207,201.94,206.7,202Z" transform="translate(85.426 110.535)"/>
        <path id="Path_79" data-name="Path 79" d="M262.23,201.67c-14.47,2.35-28.82,5.33-43.32,7.5q-11.15,1.67-22.31,3.09c-7.08.91-14.25,1.39-21.3,2.5-.18,0-.14.34,0,.33,7.29-.38,14.59-1.58,21.84-2.48,7.09-.88,14.17-1.88,21.25-2.93,14.63-2.18,29.49-4.24,43.92-7.52A.248.248,0,1,0,262.23,201.67Z" transform="translate(143.808 110.103)"/>
        <path id="Path_80" data-name="Path 80" d="M261,206.2c-15.92,2.15-31.85,4.83-47.63,7.85-.17,0-.1.28.06.25,15.9-2.55,31.8-5.08,47.67-7.74C261.36,206.52,261.25,206.17,261,206.2Z" transform="translate(143.808 110.514)"/>
        <path id="Path_81" data-name="Path 81" d="M262.22,210.47c-10.72,1.34-21.37,3.64-32.05,5.32q-16.83,2.66-33.73,4.83c-22.19,2.88-44.44,5.21-66.71,7.35-12.52,1.2-25.1,2-37.59,3.55-.17,0-.18.29,0,.28,22.29-1.36,44.6-4,66.81-6.34,21.86-2.32,43.7-4.93,65.45-8.23,12.6-1.91,25.44-3.58,37.88-6.38C262.49,210.8,262.45,210.44,262.22,210.47Z" transform="translate(143.808 118.19)"/>
        <path id="Path_82" data-name="Path 82" d="M258.31,215.73c-42.14,7.52-85,10.62-127.53,14.83-12.27,1.22-24.57,2.3-36.82,3.7-.2,0-.21.34,0,.32,21.75-1.81,43.46-4.25,65.18-6.39,21.42-2.11,42.87-4,64.24-6.59,11.72-1.42,23.49-3,35.06-5.37C258.77,216.16,258.63,215.67,258.31,215.73Z" transform="translate(143.808 120.068)"/>
        <path id="Path_83" data-name="Path 83" d="M240.13,246.61c-10.85-1-21.84-1.1-32.72-1.58q-16.07-.69-32.12-1.3c-21.62-.81-43.25-1.58-64.88-1.92a.09.09,0,0,0,0,.17c21.62.81,43.25,1.42,64.88,2.26q16.05.62,32.12,1.31c10.89.48,21.83,1.37,32.72,1.47A.2.2,0,1,0,240.13,246.61Z" transform="translate(143.808 155.518)"/>
        <path id="Path_84" data-name="Path 84" d="M389.433,254.85q-142.845-2.17-285.541-7.78c-26.839-1.07-53.645-2.4-80.484-3.34-.411,0-.395.36,0,.38,47.576,2.68,95.383,4.14,143.075,5.79q71.11,2.46,142.285,4.11,40.308.94,80.582,1.62c.354.014.66-.15.682-.365s-.246-.4-.6-.415Z" transform="translate(-0.002 155.518)"/>
        <path id="Path_85" data-name="Path 85" d="M188.14,262.16c-11.76,1.57-23.61,1.91-35.45,2.49l-35.16,1.72c-23.85,1.17-47.71,2.2-71.54,3.57a.225.225,0,0,0,0,.45c24.05-1,48.1-2.29,72.15-3.46l35.77-1.76c11.44-.56,22.92-1.05,34.28-2.62C188.41,262.52,188.36,262.13,188.14,262.16Z" transform="translate(50.97 155.518)"/>
        <path id="Path_86" data-name="Path 86" d="M86.43,271.21c-13.21.57-26.67,1-39.8,2.6-.17,0-.18.28,0,.27,13.22-.16,26.63-1.47,39.8-2.62C86.59,271.44,86.59,271.2,86.43,271.21Z" transform="translate(28.866 155.518)"/>
        <path id="Path_87" data-name="Path 87" d="M212.07,261.48c-9.46,1.36-18.9,2.86-28.41,3.88-9.1,1-18.24,1.4-27.39,1.81-18.92.86-37.9,1.38-56.79,2.68-.11,0-.11.18,0,.17,19.33-.4,38.68-1.61,58-2.47a471.071,471.071,0,0,0,54.69-5.7C212.42,261.81,212.31,261.44,212.07,261.48Z" transform="translate(90.026 155.518)"/>
        <path id="Path_88" data-name="Path 88" d="M255.16,265.1c-18.44,4.64-37.54,4.55-56.4,5.58s-37.52,4.75-56.46,5.28a.12.12,0,0,0,0,.24c9.69.26,19.38-1.15,29-2.43s19.05-2.29,28.66-2.78c18.55-1,37.21-1.06,55.36-5.47C255.56,265.46,255.44,265,255.16,265.1Z" transform="translate(143.808 155.518)"/>
        <path id="Path_89" data-name="Path 89" d="M198.46,273.88c-12.79.49-25.6,1.85-38.36,2.89Q141.52,278.3,123,280c-25.13,2.25-50.37,4.23-75.4,7.48-.28,0-.29.48,0,.45,25.16-2.08,50.26-5.06,75.4-7.35q18.57-1.68,37.15-3.22c12.77-1.06,25.63-1.71,38.36-3.12C198.67,274.18,198.68,273.87,198.46,273.88Z" transform="translate(56.574 155.518)"/>
        <path id="Path_90" data-name="Path 90" d="M254.68,271.21q-23.085,1.38-46.16,3.2a.09.09,0,0,0,0,.18c15.39-.92,30.79-1.89,46.16-3C254.9,271.53,254.9,271.19,254.68,271.21Z" transform="translate(143.808 155.518)"/>
        <path id="Path_91" data-name="Path 91" d="M180.27,279.83c-10.8.56-21.65,1.65-32.43,2.55l-32.43,2.72L83,287.82c-10.79.9-21.69,1.45-32.43,2.84-.21,0-.23.35,0,.34,10.81-.42,21.64-1.7,32.43-2.61l32.43-2.73,32.43-2.73c10.79-.91,21.68-1.64,32.43-2.89C180.4,280,180.41,279.82,180.27,279.83Z" transform="translate(51.145 155.518)"/>
      </g>
    </g>
  </g>
</svg>
