<svg xmlns="http://www.w3.org/2000/svg" width="439.158" height="697.105" viewBox="0 0 439.158 697.105">
  <g id="Group_10" data-name="Group 10" transform="translate(-1307.842 -938.576)">
    <g id="Rectangle_8" data-name="Rectangle 8" transform="translate(1411 971)" fill="none" stroke="#fff" stroke-width="2.5">
      <rect width="336" height="336" stroke="none"/>
      <rect x="1.25" y="1.25" width="333.5" height="333.5" fill="none"/>
    </g>
    <path id="Path_92" data-name="Path 92" d="M1319.219,951l146.811-32.424s205.378,314.13,207.848,383.578-207.848,57.293-207.848,57.293l-88.964-13.788L1307.842,951" transform="translate(0 20)"/>
    <g id="Layer_2" data-name="Layer 2" transform="translate(1387.859 980.984)">
      <g id="Objects" transform="translate(0.07 0.058)">
        <path id="Path_1" data-name="Path 1" d="M141.359,511.638l.536.536c.083.074,0,.194-.12.12l-.527-.545a.078.078,0,0,1,.111-.111Z" transform="translate(-10.834 -39.067)" fill="#432918"/>
        <path id="Path_2" data-name="Path 2" d="M141.338,280.989c.721,2.125,1.441,4.24,2.134,6.374-11.879-5.875-22.706-13.986-33.606-21.422-41.291-28.165-83.8-59.12-108.4-103.893-.36-.647-1.506-.185-1.219.517l.074.157h0Q1.576,165.7,3,168.6c-.185-.277-.36-.573-.545-.85a.794.794,0,0,0-1.367.794C13.861,192.411,29.842,217.084,52.1,233.2a.36.36,0,0,0-.12.212l-.573-.6c-.3-.314-.924.12-.61.471,13.6,17.708,31.01,32.627,47.961,47q27.583,23.389,55.757,46.113a.619.619,0,0,0,.3.129q.924,3.63,1.792,7.261c-9.468-7.621-19.583-14.447-29.015-22.17s-18.66-15.7-27.546-24.1a581.5,581.5,0,0,1-50.538-54.732c-.471-.573-1.469.2-1.025.785l.471.61a.508.508,0,0,0-.425.785c13.662,20.877,28.636,40.645,47.24,57.374,19.676,17.7,41.374,33.412,62.611,49.171q.61,2.688,1.192,5.376C117.6,314.6,73.9,280.822,47.329,234.026a.462.462,0,0,0-.841.351c.49,1.589,1.016,3.159,1.6,4.72a.36.36,0,0,0-.111.369c2.707,13.182,10.558,25.791,18.641,36.322A190.716,190.716,0,0,0,94.532,304.84a.527.527,0,0,0-.212.342,34.65,34.65,0,0,0,1.275,16.858c-3.538-4.471-6.947-9.1-10.161-13.9a.157.157,0,0,0-.092-.055q-.924-1.958-1.654-3.917a13.472,13.472,0,0,0-.6-1.626c-.342-.988-.665-1.977-.924-2.965a.36.36,0,0,0-.693.185A102.12,102.12,0,0,0,93.858,334.27c5.478,9.237,12.932,17.006,21.089,23.888s17.191,13.043,26,19.288c8.415,5.967,18.115,12.1,24.627,20.406a46.241,46.241,0,0,0-9.533-7.1,192.76,192.76,0,0,0-18.872-9.625c-12.932-5.921-27.25-11.759-36.719-22.78-.453-.527-1.238,0-1.09.637,3.205,13.533,18.881,20.073,30.345,25.043,3.4,1.478,6.808,2.91,10.161,4.379-12.369-3.538-25.5-6.106-34.659-14.244a.711.711,0,0,0-1.118.859c2.152,5.044,7.39,7.039,12.156,9q5.265,2.189,10.549,4.342c-7.436-2.513-14.78-5.238-21.246-9.745a.61.61,0,0,0-.924.527v.231a23.86,23.86,0,0,1-3.51-10.743.536.536,0,0,0-1.044-.148,15.085,15.085,0,0,0,.194,12.156,60.044,60.044,0,0,1-10.032-19.168.573.573,0,0,0-1.1,0,11.455,11.455,0,0,0,.268,6.8c.157.388.859.379.794-.111a24.4,24.4,0,0,1-.277-3.889A56.6,56.6,0,0,0,101.4,384.051c6.392,7.131,14.447,11.75,22.761,16.3a182.206,182.206,0,0,1,29.19,20.091c-7.5-5.644-15.8-10.411-23.454-14.946-16.627-9.838-33.92-21.246-41.735-39.619-.249-.6-1.2-.268-1.192.323a35.62,35.62,0,0,0,12.092,26.308c8.314,7.122,19.168,10.078,28.747,14.965,19.168,9.782,35.786,25.061,44.672,44.848q.065,2.919.129,5.866a88.836,88.836,0,0,0-28.11-35.915c-14.346-10.752-32.673-16.092-45.263-29.144-.4-.416-.979.12-.757.591,7.464,15.7,26.484,19.9,39.721,29.1a87.656,87.656,0,0,1,21.246,20.941c5.727,7.981,9.431,16.683,12.979,25.782a.24.24,0,0,0,.268.139q-.074,11.4-.61,22.807l-16.553-20.165c-5.33-6.466-10.8-12.932-11.842-21.579a.333.333,0,0,0-.665,0c.046,7.39,4.4,13.579,8.859,19.149,3.233,4.037,6.512,8.055,9.792,12.055-4.406-4.471-8.766-8.979-12.932-13.69-6.91-7.852-12.831-16.794-14.78-27.25,0-.157-.3-.12-.277,0,.868,9.866,5.82,18.115,12.009,25.652,7.815,9.505,16.868,18.068,25.449,26.881a.6.6,0,0,0,.8.092l-.222,4.083A217.9,217.9,0,0,1,150.243,475.1c-6.716-8.314-13.034-17.228-15.7-27.712-.083-.3-.5-.166-.453.129,1.617,9.986,7.39,18.327,13.524,26.16a157.347,157.347,0,0,0,23.722,24.673.36.36,0,0,0,.379.065c-.074,1.293-.157,2.586-.24,3.88a186.144,186.144,0,0,1-44.912-61.956c-.1-.24-.49-.12-.517.1-.157-.462-.333-.924-.49-1.395s-.924-.406-.868.12c1.986,20.563,14.983,36.737,28.775,51.73a149,149,0,0,0-20.322-14.161.351.351,0,0,0-.527.231,126.827,126.827,0,0,1-9.8-17.4c-.166-.36-.7-.092-.619.268,5.275,22.659,20.535,39.619,38.936,53.106a.25.25,0,0,0,.222,0l1.727,1.8a194.911,194.911,0,0,1-44.5-45.614.545.545,0,0,0-.924.554c9.69,21.856,28.239,39.582,47.739,53.18-6.734-2.559-12.129-6.789-17.9-11.464a130.083,130.083,0,0,0-19.4-13.016c-.416-.231-.924.342-.517.674,10.678,9.237,21.246,18.53,33.375,25.7a79.5,79.5,0,0,1-41.338-26.493.619.619,0,0,0-1.035.6c3.935,9.367,11.362,16.332,19.925,21.551a143.246,143.246,0,0,0,15.953,8.157c4.434,2,8.9,4.009,13.727,4.748h-.12c-16.978,2.864-36.95-11.7-52.515-.166-.545.406,0,1.321.545.924,16.11-10.568,34.908,3.473,52.173,0h.12v.074c-9.976,2.993-20.119,6.873-30.65,5.034-.61-.111-.878.776-.259.924,9.3,2.466,18.928-.647,27.888-3.907a52.791,52.791,0,0,0-6.466,7.178c-4.97,6.983-8.415,15.4-10.771,23.611-.166.573.73.97.979.406,2.485-5.542,4.452-11.371,7.3-16.8.647-1.238,7.279-11.963,10.9-14.641a37.393,37.393,0,0,0-7.27,16.988c-.111.721.924,1.053,1.118.3a53.136,53.136,0,0,1,6.965-16.831A523.762,523.762,0,0,1,145.864,629.4a.369.369,0,0,0-.554.139,5.8,5.8,0,0,0-.619,1.792l-.055.055a21.339,21.339,0,0,0-2.134,4.693c-.286.711.416,1.3,1.035,1.358a16.881,16.881,0,0,0,4.055-.12c2.928,1.035,5.653-1.136,7.713-3.076a.452.452,0,0,0,.129-.286l.471-.342c.443-.342-.129-1.044-.591-.767a17.4,17.4,0,0,1-8.064,2.522,3.436,3.436,0,0,1-1.081-2.771,3.647,3.647,0,0,1,.1-.517.979.979,0,0,0-.083-.6.517.517,0,0,0,.185-.231c11.741-31.121,19.279-63.738,23.565-96.771l.748-.268a.388.388,0,0,0-.2-.739l-.425.129q1.58-12.249,2.568-24.553a529.228,529.228,0,0,0,1.552-54.131.3.3,0,0,0,.1-.379,1,1,0,0,0-.12-.314q-.222-9.57-.785-19.131a.286.286,0,0,0,.24-.425c-.129-.185-.194-.259-.286-.4q-1.219-20.5-3.963-40.876l.379.222a.721.721,0,0,0,.721-1.247l-1.339-.785c-.111-.785-.231-1.57-.342-2.356a.388.388,0,0,0,.12-.721l-.24-.138a598.746,598.746,0,0,0-21.006-93.252h0c.268.12.517-.268.24-.416l-.462-.249-1.219-3.852c1.016.388,1.848-1.1.841-1.552l-1.57-.73-.194-.61C133.606,251.678,118,217.167,102.633,182.582q-4.619-10.392-9.071-20.821a.286.286,0,0,0,0-.48l-.24-.111c-11.658-27.435-22.271-55.175-30.835-83.82h0c12.794,38.5,29.9,75.479,46.935,112.235,4.619,9.939,9.237,19.879,13.782,29.837l-.083.49a.3.3,0,0,0,.453.333c11.288,24.7,22.17,49.577,31.574,75.082q6.873,18.687,12.378,37.8c0,.046-.083.1-.129.157a.406.406,0,0,0,.36.656,472.5,472.5,0,0,1,15.02,73.659c.277,2.346.545,4.693.785,7.039l-.065.092c-.055.065,0,.139.092.12a481.721,481.721,0,0,1-.684,106.628c-.48,4.064-1.044,8.12-1.644,12.156a.3.3,0,0,0-.249.342,2.161,2.161,0,0,0,.129.536,2.323,2.323,0,0,0,0,.25h0a.277.277,0,0,0-.046.434c-5.145,33.735-14.216,66.454-25.163,98.841-.055.176.231.3.3.129,13.108-30.835,21.44-63.951,26.382-97.252l.194.314A43.046,43.046,0,0,1,185.983,544a77.213,77.213,0,0,1,3.27,13.062c.185.97,1.847.739,1.727-.24a51.554,51.554,0,0,0-3.769-14.78,29.624,29.624,0,0,0-3.575-6.291s-.342-.425-.721-.868a.532.532,0,0,1,.046-.268c.314-.111.628-.2.924-.286,6.078,4.619,9.755,10.531,12.092,17.81,2.217,6.937,4.97,15.547,2.448,22.659-.333.924,1.09,1.266,1.46.4,3.205-7.649,0-17.477-2.587-24.941-2.18-6.365-5.81-12.988-11.861-16.332,6.549-1.284,12.554,1.423,16.8,7.159a.656.656,0,1,0,1.136-.656,14.374,14.374,0,0,0-13.145-8.341c1.081-.406,2.152-.841,3.215-1.321,11.833-1.663,23.666,3.981,34.918,8.97a.439.439,0,0,0,.443-.757C220,533.8,208.559,528.515,197.76,528.6A75.359,75.359,0,0,0,220.1,509.763c.314-.4-.212-.97-.582-.573a96.87,96.87,0,0,1-17.486,14.9,77.68,77.68,0,0,1-9.1,4.933,25.041,25.041,0,0,0-5.09,1.432,93.3,93.3,0,0,1,16.313-14.023.462.462,0,0,0-.462-.794,60.886,60.886,0,0,0-17.8,15.7l-.591.323c4.5-10.254,11.778-17.717,21.56-23.26,7.759-4.388,16.387-8.073,21.542-15.7.2-.3-.259-.647-.49-.379-4.037,4.914-9.191,8.111-14.577,11.03a81.353,81.353,0,0,0,11.307-9.93s0-.1-.055-.055a78.871,78.871,0,0,1-15.7,12.369c-1.848.97-3.695,1.958-5.478,3.021a95.338,95.338,0,0,1-13.431,5.542c-.268.083-.157.5.111.416a68.57,68.57,0,0,0,9.154-3.242,42.7,42.7,0,0,0-15.611,21.108v.129l-.462.3q1.552-11.085,2.642-22.234c.268-2.716.508-5.441.73-8.157,12.332-4.3,22.4-12.314,32.156-20.72a91.035,91.035,0,0,1-31.98,23.786c-.517.222-.065.924.443.748a100.3,100.3,0,0,0,29.31-18.928,95.572,95.572,0,0,0,11.168-12.341c2.152-2.845,4.619-6.069,6.66-9.394-.176.379-.342.767-.517,1.155a79.542,79.542,0,0,1-3.907,7.325,77.744,77.744,0,0,1-11.648,14.78c-8.776,8.748-19.269,14.78-30.844,19.011a.425.425,0,0,0-.157.711l-.988.231c-.416.083-.323.776.092.73,8.923-.924,17.6-6.78,24.83-11.722a136.6,136.6,0,0,0,21.459-18.65c.517-.536,1.848-2.6.924-1.173-.563.878-1.1,1.783-1.69,2.642a72.153,72.153,0,0,1-5.238,6.845,77.591,77.591,0,0,1-9.9,9.57c-7.529,6.134-15.953,10.734-24.682,14.919-.416.2-.111.924.323.748,17.625-6.753,33.864-19.1,42.668-36.026.157-.3-.249-.647-.48-.369a112.992,112.992,0,0,1-22.17,19.556l-.3.212a76.881,76.881,0,0,0,25.994-37.873c.129-.425-.554-.721-.73-.3-5.81,13.477-15.981,25.329-28.008,34.465A87.917,87.917,0,0,0,222.544,478.5h0a.8.8,0,0,1,.065-.092c.314-.416-.333-.831-.684-.527-7.455,6.669-15.048,13.293-23.648,18.475-1.931,1.164-3.907,2.272-5.94,3.261a21.133,21.133,0,0,1-3.695,1.681c-2.125.471-.185-.526.693-1.321,3.963-3.538,7.833-7.168,11.722-10.78,16.129-14.974,32.525-29.68,48.423-44.894.3-.286-.139-.721-.443-.453-21.477,18.475-42.418,37.975-62.464,57.993q.757-9.671,1.136-19.4A57.745,57.745,0,0,0,195.784,479c-2.716,2.088-5.376,4.231-7.935,6.466-.24.212.074.61.342.443,9.5-6,18.309-13.348,27.278-20.091,2.854-2.152,5.681-4.286,8.388-6.559-1.718,1.478-3.418,2.956-5.1,4.462-10.42,9.237-21.024,18.364-31.139,27.952-.388.36.175.924.563.573,10.669-8.979,20.923-18.475,31.315-27.786,8.517-7.639,16.784-15.778,25.532-23.214-5.542,5.94-11.085,11.805-16.627,17.754a.36.36,0,0,0-.092.176q-7.048,5.8-14.041,11.676c-9.681,8.129-18.807,16.193-26.622,26.188-.351.453.333.924.6.462,6.383-10.863,17.837-18.54,27.435-26.364,10.946-8.923,21.847-17.93,32.479-27.232.277-.24-.12-.619-.4-.4q-3.27,2.55-6.466,5.145c.8-.924,1.607-1.848,2.42-2.771.092-.1-.046-.24-.139-.148-1.617,1.69-3.381,3.316-4.96,5.053l-1.2.979a167.677,167.677,0,0,0,13.339-15.2c.379-.49-.24-1.173-.711-.7-3.889,3.926-7.99,7.667-12.166,11.344a45.448,45.448,0,0,0,9.57-26.789c0-.342-.434-.342-.545-.074-5.542,13.357-10.8,26.853-21.957,36.6-1.921,1.681-3.9,3.3-5.912,4.877,1.238-1.173,2.439-2.356,3.584-3.529a105.973,105.973,0,0,0,23.528-36.46c.1-.259-.333-.443-.453-.194l-.333.711a.36.36,0,0,0-.628-.083A216.08,216.08,0,0,1,218.5,454.237c-9.524,9.551-20.175,17.292-30.65,25.689,0-.841.046-1.681.074-2.531,15.972-15.888,32.276-31.213,49.614-45.614.259-.213-.065-.591-.342-.443a152.125,152.125,0,0,0-13.025,8.1c9-8.526,16.932-17.976,21.5-29.357.194-.48-.508-.665-.767-.323l-1.081,1.395a35.785,35.785,0,0,0,2.429-9.607c.065-.536-.73-.684-.97-.259a172.039,172.039,0,0,1-48.2,53.577c20.008-16.7,39.158-34.9,48.21-59.988.185-.5-.536-.73-.8-.342-13.5,20.147-27.712,40.414-46.806,55.729-1.561,1.256-3.446,2.42-5.2,3.7l1.044-1.035q7.316-6.993,14.318-14.318c9.321-9.764,18.309-19.851,26.789-30.354.36-.443-.12-1.266-.665-.868A158.459,158.459,0,0,0,206.176,433.8c-3.483,4.138-6.771,8.425-10.032,12.729l-2.032,2.707c.85-1.3,1.7-2.6,2.623-3.861,6.762-9.164,14.78-17.274,21.847-26.16,6.466-8.129,11.879-16.849,15.149-26.789,3.612-10.946,4.831-22.475,5.45-33.92a.213.213,0,0,0-.092-.2,65.937,65.937,0,0,0,.924-21.5l.185-.563c.12-.379-.453-.517-.591-.157a1.044,1.044,0,0,1-.046.12.342.342,0,0,0-.443.3c-.065.48-.148.924-.212,1.441-4.877,12.932-10.041,25.754-15.8,38.317-10.937,16.082-20.618,32.959-36.026,45.263,24.442-21.93,40.848-52.349,44.9-84.984v-.055c.36-1.035.721-2.069,1.053-3.1,2.282-6.937,4.4-14.1,3.852-21.477,0-.517-.868-.7-.97-.129a169.752,169.752,0,0,1-4.055,17.579,182.088,182.088,0,0,0,5.127-33.754.591.591,0,0,0-.693-.6,53,53,0,0,0-1.755-19.158.508.508,0,0,0-.591-.37,33.449,33.449,0,0,0-1.847-12.886.5.5,0,0,0-.924.129c-.767,25.736-4.517,50.806-12.637,75.341a251.687,251.687,0,0,1-15.316,36.174c-5.164,10.013-10.854,20.184-19.214,27.9-.185-1.423-.379-2.836-.573-4.249a.453.453,0,0,0,.24-.1c9.856-8.5,17.459-20.452,23.3-31.962a167.2,167.2,0,0,0,13.154-36.331c6.762-27.934,6.983-56.552,7.39-85.1,1.58,6.817,3.455,13.607,5.376,20.322.092.333.563.185.508-.139-1.663-8.813-3.455-17.708-5.81-26.364a.7.7,0,0,0-1.367.185c.259,29.8-.222,60.33-7.011,89.483A165.247,165.247,0,0,1,206,365.2c-6.014,11.87-13.856,21.763-22.622,31.684a2.177,2.177,0,0,0,0-.259c-.24-1.737-.508-3.455-.776-5.182,4.619-3.326,8.24-8.415,11.6-12.932a125.09,125.09,0,0,0,10.115-16.267,163.681,163.681,0,0,0,13.2-34.982c7.39-28.7,7.741-58.408,8.415-87.848a.471.471,0,0,0-.924,0c-.185,7.963-.388,15.953-.739,23.943a194.513,194.513,0,0,0-2.152-37.079.3.3,0,0,0,.083-.259,44.765,44.765,0,0,0-4.9-14.078,58.284,58.284,0,0,0-3.612-6c-.286-.406-.564-.822-.85-1.219a.556.556,0,0,0-.111-.1l-.268-.471c-.139-.351-.693-.222-.582.166a1.38,1.38,0,0,0,.1.369.36.36,0,0,0,0,.416,3.741,3.741,0,0,1,.194.323q1.478,5.238,2.771,10.512a200.674,200.674,0,0,1-4.332,74.934c-6.549,25.865-18.419,49.115-33.763,70.759l-.665-2.891c7.935-8.97,14.124-20.054,19.306-30.788a191.991,191.991,0,0,0,17.644-60.8c2.476-20.886,2.041-43.776-3.7-64.154-.2-.757-1.284-.434-1.155.314.711,3.981,1.395,7.935,2,11.889-1.386-7.233-4.111-14.115-9.127-19.528a.73.73,0,0,0-1.007,0,1.074,1.074,0,0,1,0-.166.563.563,0,0,0-.48-.416c-3.067-12.785-8.046-25.283-13.662-37.07-.268-.573-1.182-.157-1.007.425,1.395,4.794,2.771,9.635,4.2,14.484a.767.767,0,0,0-.49.85,234.161,234.161,0,0,1,.24,76.292c-4.083,24.83-12.655,47.8-23.186,70.519-.536-1.709-1.1-3.409-1.644-5.118,13.283-23.916,21.3-50.52,24.618-77.594s2.707-56.9-5.256-83.294a.637.637,0,0,0-.48-.462c-.074-.4-.139-.8-.212-1.2a.739.739,0,0,0-1.284-.314c-.434-.416-1.413-.157-1.349.563.425,4.813.859,9.607,1.238,14.4v.065c-.637,3.778-1.072,7.593-1.45,11.417-.1-15.436-4.776-31.352-11.14-44.792-.286-.61-1.118-.139-1.007.425q1,5.45,1.764,10.919c-1.589,9.755-1.792,19.851-3.178,29.661q-2.125,14.965-5.339,29.745c-4.3,19.685-10.863,38.529-16.563,57.8l-2.771-6.669a252.645,252.645,0,0,0,19.907-58.8c4.3-20.193,7.131-41.652,5.9-62.325a.591.591,0,0,0-1.173,0c-.924,21.135-2.208,41.8-6.679,62.556-4.258,19.74-10.743,38.7-18.475,57.272l-.665-1.552c7.455-25.578,8.683-52.025,8.9-78.518.2-25.431.684-51.416-9.579-75.184h0l-.065-.148c-.3-.693-1.21-.148-1.108.471.277,1.737.536,3.473.794,5.219a41.746,41.746,0,0,0-5-8.314.674.674,0,0,0-1.219.517c.259,1.229.508,2.448.757,3.695a55.739,55.739,0,0,0-7.251-12.175.665.665,0,0,0-.767-.231,8.314,8.314,0,0,0-5.339-5.1.813.813,0,0,0-.573.065q-.924-2.023-1.977-3.944A.3.3,0,0,0,118,79.52c0-.074,0-.139,0-.212a.924.924,0,0,0-1.607-.48,77.52,77.52,0,0,0-.721-8.037c-.129-.924-1.543-.813-1.737,0l-1.386,5.542a25.274,25.274,0,0,0-1.847-8.757.721.721,0,0,0-1.367,0,1.987,1.987,0,0,1-.129.5.813.813,0,0,0-1.312.333c-.61,1.755-1.2,3.51-1.792,5.265.757-3.418,1.506-6.845,2.189-10.281a.61.61,0,0,0-1.173-.323q-7.057,18.309-14.032,36.7c-2.235,5.884-4.332,11.805-6.466,17.736l-1.358,3.861a2.7,2.7,0,0,1,.065-.3c.342-1.367.721-2.771,1.1-4.083,6.189-21.671,16.951-42.224,17.662-65.152,0-.748-1.182-.924-1.33-.176-4.111,20.951-8.739,41.735-18.918,60.524A358.414,358.414,0,0,0,102.19,51.217a.748.748,0,0,0-1.016-.868,18.762,18.762,0,0,0-.074-2.679.767.767,0,0,0-1.5-.2c-.453,1.312-.924,2.623-1.33,3.926.065-1.958.139-3.917.111-5.875A.721.721,0,0,0,97,45.36l-.924,3.353c.36-1.977.693-3.963.924-5.967a.785.785,0,1,0-1.515-.416A407.161,407.161,0,0,1,77.526,90.993C84.2,73.3,93.516,56.27,93.885,37.028a.7.7,0,0,0-1.367-.185A308.531,308.531,0,0,1,73.2,87.511c4.877-15.759,12.138-30.788,14.78-47.185.157-.988-1.358-1.413-1.506-.416-2.928,18.355-11.648,35.038-16.2,52.949q-1.039-2.771-2.06-5.542A233.765,233.765,0,0,0,79.383,60.528q2.688-7.436,4.951-15.029c1.025-3.418,2-6.688.831-10.161a.628.628,0,0,0-1.1-.231l-.176.286a.785.785,0,0,0-1.33-.6A73.613,73.613,0,0,0,65.286,63.373c2.429-11.538,6.771-22.632,11.556-33.513.425-.924-.924-1.792-1.432-.841a120.484,120.484,0,0,0-10.8,25.939c2.568-12.581,6.2-24.941,9.653-37.319.231-.813-1.053-1.395-1.4-.591a.458.458,0,0,1-.074.185h0a164.632,164.632,0,0,0-7.547,21.81A293.534,293.534,0,0,0,63.947.7a.721.721,0,0,0-1.432,0q-.471,7.39-.841,14.826C60.6,9.981,58.9,4.078,54.46.392a.73.73,0,0,0-1.229.536V7.847c-1.256-2.882-2.947-6-5.071-6.318-1.672-.222-2.5.924-2.9,2.328A15.463,15.463,0,0,0,39.107.161a.684.684,0,0,0-.721,1.1A12.572,12.572,0,0,0,35.847.42a.739.739,0,0,0-.924.7,29.715,29.715,0,0,0,.554,3.556,21.921,21.921,0,0,0-3.935-2.263c-.628-.277-1.432.323-1.007,1.016l1.3,2.18c.2,7.177,2.041,14.623,3.75,21.551A165.435,165.435,0,0,0,42.3,48.141,159,159,0,0,0,63.744,86.55c.434,1.607.924,3.215,1.358,4.813-9-12.286-17.145-24.941-23.223-38.927A158.767,158.767,0,0,1,35.56,35.051a.563.563,0,0,0,0-.757c-.129-.166-.24-.333-.369-.49a238.474,238.474,0,0,1-5.469-23.4,22.4,22.4,0,0,1,2.5,7.833c.074.462.831.342.813-.111A20.322,20.322,0,0,0,29.131,7.256c-.314-.471-1.247-.36-1.182.314a128.866,128.866,0,0,0,3.917,21.246,50.557,50.557,0,0,1-3.75-7.99c-.24-.665-1.339-.61-1.3.176.73,13.542,6.041,26.715,12.665,38.391A179.965,179.965,0,0,0,62.82,91.326c-4.332-2.6-8.249-7-11.713-10.337-3.63-3.5-7.159-7.113-10.521-10.882a202.964,202.964,0,0,1-19.74-26.188.868.868,0,0,0-1.57.665c.924,6.078,4.434,12.055,7.445,17.339.831,1.469,1.69,2.91,2.6,4.342q-5.875-7.39-11.778-14.678a.767.767,0,0,0-1.284.342,18.475,18.475,0,0,0,.129,6.051,19.96,19.96,0,0,0-1.663-1.349.757.757,0,0,0-1.108.453,9.561,9.561,0,0,0,.249,3.954.61.61,0,0,0-.711.693,43.074,43.074,0,0,0,3.483,11.8.637.637,0,0,0-.462.757C19.432,86.642,30.424,97.838,40,105.69a169.793,169.793,0,0,0,37.809,22.872c.148.379.3.757.453,1.145C54.682,117.1,27.653,109.81,8.384,90.365c-.73-.757-1.718.166-1.339,1.025a29.855,29.855,0,0,0,3.307,5.487,6.808,6.808,0,0,0-1.718-.148.545.545,0,0,0-.379.924q3.741,4.619,7.722,9.016c-2.965-1.376-5.958-2.716-8.849-4.24-.462-.249-1.173.166-.924.73s.508,1.2.794,1.783a.628.628,0,0,0-.73.767c2.245,8.794,8.923,14.928,15.491,20.738a292.082,292.082,0,0,0,23.094,18.336c16.36,11.75,34.058,22.484,52.653,30.216h0c.619,1.395,1.238,2.771,1.847,4.175-17.5-9.995-34.982-19.916-51.868-30.955C32.54,138.446,13.455,127.9,6.721,110.346c-.249-.628-1.256-.37-1.025.277.406,1.136.859,2.235,1.349,3.316a.721.721,0,0,0-.767.924c2.374,8.619,10.161,14.124,16.711,19.537q11.6,9.561,23.86,18.253a366.23,366.23,0,0,0,54.335,32.331.49.49,0,0,0,.628-.194l1.617,3.63c-18.54-8.794-36.451-18.475-53.282-30.317C41.3,151.9,32.817,145.171,24.623,138.132,17.409,131.906,5,123.444,6.231,112.618c.065-.582-.924-.711-1.025-.139-1.506,9.644,7.113,16.766,13.533,22.678q2.993,2.771,6.069,5.422A119.514,119.514,0,0,1,3.146,122.012a.551.551,0,0,0-.924.545A57.461,57.461,0,0,0,3.7,128.211a.545.545,0,0,0-.342.674c.406,1.561.776,3.122,1.2,4.674a.739.739,0,0,0-.924.693.434.434,0,0,0,0,.157,12.175,12.175,0,0,0,1.506,6.651l-.388-.333a.721.721,0,0,0-1.192.7c.462,1.774.85,3.575,1.321,5.348l-.406-.3c-.369-.259-.767.314-.471.61.443.453.924.924,1.358,1.33.083.268.166.545.259.813-.739-.721-1.5-1.423-2.226-2.152-.4-.379-1.247-.129-1.173.49A53.577,53.577,0,0,0,4.3,157.724a.434.434,0,0,0-.222.757c.231.24.48.471.721.711s.249.693.388,1.044l-2.272-1.9c-.554-.453-1.33.277-.8.8,19.583,19.4,41.1,37.467,62.815,54.455,21.08,16.507,43.416,32.239,67.784,43.518.665,1.727,1.339,3.455,1.986,5.191a248.045,248.045,0,0,1-22.659-11.2c-7.99-4.489-15.223-9.976-22.937-14.854a.638.638,0,0,0-.536-.083C57.859,213.574,28.078,189.714,3.5,160.625a.61.61,0,0,0-.979.185c-.379-.49-.767-.979-1.145-1.478-.527-.674-1.69,0-1.173.684A347.871,347.871,0,0,0,25.87,191.8a422.993,422.993,0,0,0,54.7,50.806C99.391,257.156,119.658,271.086,141.338,280.989ZM54.589,79.1A188.231,188.231,0,0,1,41.518,59.761,104.438,104.438,0,0,1,28.882,25.7a54.74,54.74,0,0,0,4.055,6.873,174.477,174.477,0,0,0,7.048,19.4,164.813,164.813,0,0,0,14.6,27.13Zm171.142,378.55a57.41,57.41,0,0,0,8.665-9.45c5.164-7.27,8.674-15.584,11.667-23.934.157-.434.97-3.815.647-1.847-.176,1.1-.453,2.254-.656,3.372a52.847,52.847,0,0,1-8.988,21.246c-.2.3.111.563.388.508C233.574,450.948,229.639,454.292,225.731,457.655Zm9-157.877c-2.041,8.489-4.249,16.96-6.725,25.348a201.643,201.643,0,0,0,6.466-45.476A46.1,46.1,0,0,1,234.729,299.778ZM241.472,414.1a257.051,257.051,0,0,1-53.42,49.67q0-2.771,0-5.542c23.343-14.466,39.85-37.347,54.935-59.877-10.558,25.56-32.922,44.34-53.577,61.725-.379.323.12.924.527.684A173.239,173.239,0,0,0,244.8,404.105,37.347,37.347,0,0,1,241.472,414.1ZM187.895,476.25q.157-5.681.166-11.362a253.393,253.393,0,0,0,51.988-47.85.379.379,0,0,0,.656.055,30.637,30.637,0,0,0,1.626-2.845l.859-1.053c-7.972,15.362-21.736,27.186-35.047,38.492-2.845,2.374-5.653,4.794-8.452,7.261-.6.527-1.2,1.044-1.792,1.58s.222,1.136.721.721c6.9-5.893,14.42-11.787,21.514-18.124.527-.406,1.062-.822,1.6-1.219a130.765,130.765,0,0,1,11.926-7.981l.268-.166c-.111.092-.231.176-.36.268-1.413,1.081-2.827,2.171-4.222,3.27a319.824,319.824,0,0,0-41.458,38.954Zm-.111-28.091a.545.545,0,0,0,.406-.157,167.825,167.825,0,0,0,45.448-71.923,107.353,107.353,0,0,0,4.711-14.687c-1.847,18.336-5.672,36.026-16.526,51.434-9.829,13.912-22.114,25.615-30.77,40.386-.111.185.166.416.3.24,12.009-15.048,24.017-30.613,39.388-42.391-13.542,16.008-27.712,31.407-42.742,46.049q-.074-4.471-.231-8.951Zm6.346-7.7c10.854-13.93,21.246-28.211,29.68-43.785,1.746-3.224,3.483-6.549,5.127-9.949a177.858,177.858,0,0,1-34.816,53.734Zm-6.392,41.125a11.1,11.1,0,0,1,.046-1.238.221.221,0,0,0,.212,0c11.741-6.531,22.382-16.23,31.768-25.745a196.158,196.158,0,0,0,25.181-31.518,128.114,128.114,0,0,1-23.463,34.179,116.014,116.014,0,0,1-17.052,14.558c-5.339,3.676-11.122,6.494-16.7,9.764Zm-.794-50.1a.453.453,0,0,0,.2-.074c14.346-9.358,22.77-25.421,30.327-40.266a360.823,360.823,0,0,0,20.655-48.644A188.636,188.636,0,0,1,221.861,393.1c-8.794,17.967-20.535,33.763-34.049,48.45a.418.418,0,1,0,.591.591c27.537-26.243,45.319-63.461,50.917-100.974.527,19.768-8.009,39.1-17.357,56.1-9.672,17.551-21.653,33.948-34.234,49.55-.139-3.695-.333-7.455-.545-11.187,24.645-20.747,42.677-51.092,48.09-82.924.055-.333-.434-.48-.517-.139-7.639,31.8-23.5,59.711-47.656,81.77-.055-.979-.1-1.921-.166-2.864Zm-.647-8.415c8.314-4.434,14.5-12.3,19.934-19.787,4.554-6.291,9.09-12.738,13.246-19.4q-1.247,2.6-2.531,5.173c-7.732,15.463-16.156,30.705-30.068,41.458-.185-2.466-.379-4.961-.591-7.427Zm-.924-10.087.5-.573a.157.157,0,0,0,.194,0q4.2-4.5,8.083-9.237c15.648-17.856,27.343-39.509,34.576-62.408,2.771-7.944,5.044-16.036,7.094-24.267a57.391,57.391,0,0,1-1.709,9.995.1.1,0,0,0-.175,0q-2.023,6.845-4.268,13.6c-.277.739-.545,1.478-.822,2.208A267.878,267.878,0,0,1,216.928,369.5a299.755,299.755,0,0,1-31.047,48.441c-.139.185.157.406.3.24l1.626-1.847a16.444,16.444,0,0,0,2.956-3.381c17.911-21,32.331-45.984,39.97-72.616a148.205,148.205,0,0,1-44.589,81.012q-.369-4.175-.822-8.378Zm-.406-3.741c28.276-28.775,40.58-67.553,50.159-105.852a183.354,183.354,0,0,1-14.78,55.378c-8.8,19.593-20.877,36.608-35.213,52.413-.074-.647-.139-1.293-.212-1.949ZM196.2,394.776a135.871,135.871,0,0,1-8.674,10.752c.868-1.192,1.681-2.466,2.522-3.63,5.709-7.944,11.288-16,16.249-24.442a203.229,203.229,0,0,0,11.491-22.687,190.032,190.032,0,0,1-21.634,40.007Zm-12.009,8.388c8.877-7.085,14.54-16.932,19.74-26.89a244.192,244.192,0,0,0,15.26-35.823c7.916-23.712,12.674-49.162,12.932-74.251a36.95,36.95,0,0,1,.554,13c-.055.4.471.536.73.332a216.5,216.5,0,0,1-13.2,66.2c-8.452,22.613-21.144,43.111-35.352,62.519q-.351-2.55-.674-5.09Zm38.964-125.389q.527-4.933.813-9.884-.249,4.877-.591,9.745a.379.379,0,0,0-.222.139Zm-.3-25.735a157.415,157.415,0,0,0-7.741-40.6c-.074-.434-.148-.868-.231-1.3a122.384,122.384,0,0,1,6.466,15.371,243.027,243.027,0,0,1,1.506,26.53ZM181.687,386.286c12.849-14.53,22.65-32.026,29.754-50a187.766,187.766,0,0,0,7.861-24.775q-1.275,7.053-2.984,14.032a162.655,162.655,0,0,1-13.043,35.333,130.722,130.722,0,0,1-9.6,15.824c-3.455,4.868-7.806,9.062-11.288,13.856C182.168,389.141,181.927,387.718,181.687,386.286Zm-1.053-6.023c10.9-7.88,17.394-21.569,23.038-33.384a212.461,212.461,0,0,0,14.143-39.268q1.986-7.8,3.372-15.768c-.665,5.191-1.395,10.383-2.54,15.547A188.558,188.558,0,0,1,210.4,334.6c-7.1,18.3-17.191,34.723-28.932,50.353q-.406-2.356-.831-4.693Zm-2.4-12.3c8.378-9.08,14.955-20.369,20.526-31.3A193.126,193.126,0,0,0,212.7,300.914a194.91,194.91,0,0,0,6.7-37.772c.49-6.466.822-13.136.7-19.805,2.217,17.921,2.069,36.026-1.7,54.159a1.923,1.923,0,0,1-.1.443c-6,28.47-19.75,53.078-38.853,74.823a.242.242,0,0,0,.342.342c9.1-8.7,16.572-19.3,22.715-30.243a154.318,154.318,0,0,0,7.067-14.355q-3.048,8.314-6.762,16.313c-5.644,12.166-12.092,25.468-22.355,34.428-.693-3.806-1.441-7.547-2.217-11.288Zm-1.127-5.219a163.341,163.341,0,0,0,18.964-29.264c17.015-32.9,24.71-71.128,21.015-108.161.157.794.333,1.58.49,2.365.637,11.879,1.506,23.491.545,35.463a194.038,194.038,0,0,1-6.716,37.412,195.686,195.686,0,0,1-13.856,35.389c-5.616,11.03-12.637,20.867-19.5,31.075-.314-1.423-.628-2.854-.942-4.277Zm14.189-182.476q1.081,3.954,2.1,7.916-.083,5.441-.12,10.863-.591-9.431-1.977-18.78Zm3.409,3.021a.665.665,0,0,0-1.219.333h0c-1.653-5.875-3.362-11.722-5.081-17.551,2.365,5.663,4.416,11.4,6.3,17.219Zm15.233,54.732a216.6,216.6,0,0,1-2.928,23.038,157.453,157.453,0,0,0,1.155-32.165q0-4.083-.268-8.147a.527.527,0,0,0-.619-.5,120.9,120.9,0,0,0-4.5-20.212c7.371,10.817,7.99,25.311,7.159,37.984Zm-35.01,115.468c17.413-21.468,25.144-48.8,30.382-75.479,2.873-14.641,5.866-29.56,6.281-44.552a98.246,98.246,0,0,0-.37-12.166,169.355,169.355,0,0,1,1.626,23.2,194.717,194.717,0,0,1-4.462,40.451,192.333,192.333,0,0,1-12.775,38.631c-5.5,12.1-12.609,22.89-19.676,34.068-.323-1.432-.674-2.808-1.007-4.194Zm-1.256-5.136c8.739-8.628,13.265-20.11,17.736-31.324a277.942,277.942,0,0,0,11.15-33.634c-5.265,24.553-13.089,48.6-27.851,69.188C174.371,351.175,174.048,349.761,173.669,348.348Zm-1.755-6.679c3.113,1.2,5.071-2.623,6.466-4.96,3.058-5,5.838-10.161,8.406-15.427a202.844,202.844,0,0,0,12.267-31.638,230.513,230.513,0,0,0,7.233-32.839,179.816,179.816,0,0,1-3.344,19.62A281.476,281.476,0,0,1,191.35,313.92c-4.48,11.824-9.062,24.35-17.856,33.726-.508-2.014-1.035-4.009-1.561-5.977Zm-.924-3.519a.453.453,0,0,0,.794.092c7.39-9.866,12.748-21.606,17.329-32.978a201.167,201.167,0,0,0,10.734-36.2c4.4-22.327,5.8-47.111,1.2-69.669a122.756,122.756,0,0,1,5.773,28.636,223.214,223.214,0,0,1-7.159,54.5,209.747,209.747,0,0,1-10.512,29.56q-3.095,7.076-6.7,13.939c-1.617,3.076-6.466,15.149-10.743,14.78-.249-.868-.5-1.792-.739-2.66Zm-1.663-5.9a104.835,104.835,0,0,0,16.627-29.634c8-21.339,11.085-44.414,13.6-66.953a103.589,103.589,0,0,0-2.217-37.587q-1.109-4.406-2.3-8.785c-.074-1.848-.148-3.769-.24-5.644,1.644,5.1,3.15,10.263,4.619,15.482,1.321,10.928,2.568,21.726,2.466,32.811a204.387,204.387,0,0,1-3.852,37.328,201.938,201.938,0,0,1-10.161,34.954c-4.619,11.787-10.845,22.484-16.831,33.578a.416.416,0,0,0,0,.342q-.878-2.947-1.727-5.893Zm-1.847-6.337c6.725-8.508,11.39-19.029,15.131-29.116a183.434,183.434,0,0,0,8.868-34.419c3.529-21.745,4.4-44.34,3.834-66.51.813,3.538,1.58,7.085,2.254,10.623,2.993,15.916.24,32.2-2.023,48.035-3.852,27-10.023,54.418-26.493,76.671q-.8-2.623-1.617-5.284Zm-1.4-4.443C179.23,299.741,187,274.107,190.9,249.138q.822-5.238,1.395-10.531c-.49,7.538-1.247,15.066-2.439,22.595a193.062,193.062,0,0,1-8.194,33.162c-3.769,10.826-9.09,20.535-14.53,30.484C166.787,323.767,166.427,322.631,166.076,321.467ZM170.9,141.854a.656.656,0,0,0-.527-.249c-.129-.684-.259-1.367-.4-2.041A22.831,22.831,0,0,1,170.9,141.854Zm11.528,50c0,.822,0,1.644-.055,2.476a.822.822,0,0,0-.323.074c.12-.924.259-1.847.379-2.771Zm-20.71,116.235a.36.36,0,0,0,.536-.166c20.258-40.127,28.174-86.656,23.934-131.523,1.053,6.6,1.847,13.237,2.282,19.99a225.158,225.158,0,0,1-1.192,40.09c-3.215,27.149-11.491,53.383-23.472,77.909C163.12,312.276,162.418,310.179,161.716,308.091Zm-2.134-6.226c11.538-22.3,17.985-47.85,21.6-72.542a281.337,281.337,0,0,0,3.067-51.776c.046-.314.083-.637.12-.924,3.824,44.783-4.351,89.5-22.863,130.867C160.875,305.6,160.229,303.731,159.582,301.865Zm-3.316-9.237c10.355-15.768,15.417-34.243,18.844-52.653a196.837,196.837,0,0,0,6.522-29.643q-.785,10.013-2.291,19.971c-3.695,24.525-11.445,47.462-20.11,70.556q-1.45-4.129-2.965-8.24Zm-4.2-11.085a.369.369,0,0,0,.092-.111c9.561-17.172,16.3-36.22,21.311-55.184a285.029,285.029,0,0,0,6.152-29.273c.924-6.06,2-12.378,2.531-18.66,0,1.007.1,2.014.139,3.03-2.66,17.911-4.9,35.9-7.963,53.743-.074.443-.157.878-.24,1.321q-.739,2.716-1.552,5.413a263.788,263.788,0,0,1-18.4,44.016.36.36,0,0,0,.619.36A201.6,201.6,0,0,0,170.4,253.868,151.282,151.282,0,0,1,155.841,291.5c-.841-2.263-1.681-4.526-2.55-6.771C152.885,283.649,152.469,282.6,152.063,281.543Zm-2.7-6.817a.425.425,0,0,0,.259-.185c22.752-36.026,28.756-81.446,22.429-123.468-.231-2.984-.554-5.967-1-8.933a105.574,105.574,0,0,1,5.773,20.747c1.7,9.912,1.312,19.491,1.155,29.467a.416.416,0,0,0,.545.369c-.194,1.515-.4,3.021-.647,4.526q-2.272,14.05-5.866,27.842c-5.044,19.214-12.369,37.384-20.322,55.545Q150.557,277.673,149.365,274.726Zm-1.469-3.649v-.055c4.286-10.411,7.519-21.4,10.836-32.165s6.3-21.708,8.637-32.765a235.971,235.971,0,0,0,4.619-31.5c.924,34.391-5.8,68.422-23.02,99.238-.323-.924-.7-1.838-1.072-2.753Zm-3.131-7.639c8.748-18.115,14-38.345,18.235-57.928q3.131-14.54,5.118-29.292c.757-5.709,1.69-11.639,2.263-17.551a222.069,222.069,0,0,1-5.1,49.245c-2.319,10.8-5.21,21.477-8.314,32.063-3,10.1-6.688,20.045-9.394,30.216Q146.169,266.809,144.765,263.438ZM99.5,54.357C93.1,72.832,90.458,92.868,80.473,109.9l-.139.231c.268-.859.5-1.755.767-2.522l2.771-8.2q2.965-8.563,5.81-17.145c3.344-9.93,6.743-19.842,9.967-29.809-.055.471-.129.924-.222,1.423a.637.637,0,0,0,.083.48ZM137.227,245.72c5.339-9.164,5.7-20.442,6.651-30.77,1.21-12.932,1.847-25.985,1.912-39a455.7,455.7,0,0,0-4.111-63.664.527.527,0,0,0,.12-.508c-.111-.425-.24-.841-.37-1.256q-.37-2.771-.8-5.616c8.231,22.558,7.076,47.721,6.863,71.35-.231,25.375-1.164,51.175-7.5,75.876C139.075,249.988,138.16,247.854,137.227,245.72Zm-.1-1.792a573.793,573.793,0,0,0,5.136-72.634c.12-23.768-1.45-48.035-7.03-71.248a34.714,34.714,0,0,1,4.887,10.087,465.7,465.7,0,0,1,4.314,64.256q0,18.364-1.533,36.673c-.48,5.884-1.025,11.778-1.755,17.634C140.525,233.933,139.638,239.254,137.126,243.928Zm-3.621-6.716a.443.443,0,0,0,.277-.36c5.071-46.926,9.154-96.928-5.21-142.7A51.426,51.426,0,0,1,134.6,106.78a.693.693,0,0,0,.573.49,344.858,344.858,0,0,1,5.542,64.791c-.176,23.786-2.6,47.333-4.674,70.99Q134.8,240.132,133.5,237.213Zm-5.1-11.39a.286.286,0,0,0,0-.092,232.865,232.865,0,0,0,7.575-46.058c-.369,18.78-1.755,37.615-3.039,56.422Q130.734,230.94,128.406,225.823Zm-3.76-8.314c3.335-9.838,4.767-20.729,6.014-30.908a242.027,242.027,0,0,0,1.709-34.705,238.456,238.456,0,0,0-10.715-66.343c2.9,1.478,3.63,5.256,4.452,8.314a.545.545,0,0,0,.573.379q1.127,3.9,2.1,7.806a295.17,295.17,0,0,1,5.875,58.482c0,21.606-2.771,42.8-6.845,63.969Zm-3.5-7.686a.249.249,0,0,0,.092-.157c4.452-19.3,5.542-39.85,5.783-59.591a353.8,353.8,0,0,0-1.792-43.3,246.24,246.24,0,0,1,5.33,45.116,251,251,0,0,1-1.441,33.255c-1.136,10.337-3.556,20.369-5.3,30.557q-1.3-2.938-2.651-5.866Zm-4.111-8.97c4.619-15.149,6.873-31.149,7.907-46.917q.222-3.325.369-6.679v2.771c-.249,19.694-2.771,38.964-4.739,58.5q-1.737-3.8-3.519-7.658Zm-4.332-9.542c5.284-17.662,7.769-36.442,8.692-54.806a257.607,257.607,0,0,0-2.356-51.369v-.988a73.9,73.9,0,0,1,2.9,9.154.4.4,0,0,0,.194.24l.277,1.025q.545,5.9,1.035,11.787c-.139-.785-1.432-.591-1.376.185,1.081,15.63,2.18,30.964,1.247,46.649s-3.695,31.139-6.743,46.584Zm-4.767-10.374a185.045,185.045,0,0,0,11.9-52.062q-.083,3.436-.249,6.882c-.924,18.29-3.963,36.091-7.612,53.974q-2.041-4.388-4.083-8.794Zm-2.974-6.346c8.258-25.329,12.35-52.737,13.671-79.562q.333,3.8.582,7.6a.739.739,0,0,0-.831.776,242.341,242.341,0,0,1-2.282,39.915,244.791,244.791,0,0,1-8.794,36.386Q106.134,177.114,104.961,174.592Zm-4.323-9.505a318.111,318.111,0,0,0,15.621-64.847c-.693,9.709-1.709,19.4-3.141,29.043-2.2,14.78-5.542,29.227-8.859,43.767q-1.829-4-3.621-8.009Zm-3.695-8.314a.453.453,0,0,0,.721-.111c4.822-11.177,8.314-23.094,11.4-34.862,1.6-6.143,3.067-12.323,4.286-18.549l.055-.268a357.918,357.918,0,0,1-13.477,60.422c-1.081-2.235-2-4.443-3.03-6.66Zm-5.182-11.667A337.9,337.9,0,0,0,114.522,76.62c.157,2.4.175,4.8.111,7.205-3.519,10.161-6.531,20.535-9.672,30.816-3.6,11.8-7.344,23.639-10.161,35.657a.323.323,0,0,0,.619.166c4.166-11.621,7.529-23.565,11.085-35.379,2.162-7.113,4.434-14.207,6.6-21.329-.554,3.27-1.044,6.559-1.7,9.764-1.229,5.967-2.559,11.916-4.064,17.819-3.03,11.833-6.974,23.306-10.623,34.945a.314.314,0,0,0,0,.092q-2.485-5.653-5-11.3Zm-6-13.856a.407.407,0,0,0,.323-.231,368,368,0,0,0,20.239-51.73C101,99.048,94.754,118.511,89.184,138.224c-.12.434.508.582.674.176,8.914-21.847,14.946-45.125,20.322-68.1a29,29,0,0,1,.582,11.658.406.406,0,0,0,.249.434c-2.235,8.748-4.619,17.45-7.288,26.077-3.778,12.009-8.138,23.768-12.434,35.573q-2.845-6.4-5.579-12.868Zm-1.847-4.462a.314.314,0,0,0,.157-.231C87.761,115.907,92.38,105.551,96.4,95q4.9-12.979,9.755-25.994c-.4,2.633-.794,5.265-1.173,7.9-2.577,7.621-5.118,15.251-7.889,22.816-3.695,10.235-7.981,20.322-11.815,30.484-.49-1.155-.961-2.309-1.45-3.455Zm-3.233-7.713a.545.545,0,0,0,.573-.194,95.35,95.35,0,0,0,7.889-13.736,154.781,154.781,0,0,0-5.542,20.877c-1.062-2.346-2.041-4.665-3-6.983ZM78.533,113.8a.434.434,0,0,0,.6-.092c9.321-13.4,13.126-29.135,17.5-44.645A386.019,386.019,0,0,1,80.4,118.391c-.711-1.57-1.321-3.1-1.949-4.628Zm-2.356-5.875a.693.693,0,0,0,.508-.268c5.977-8.314,8.868-17.948,11.842-27.62Q93.146,65.1,97.312,50.044c.083,1.321.176,2.633.24,3.954-6.706,19.685-12.84,39.573-19.214,59.378a.259.259,0,0,0,0,.083c-.739-1.857-1.506-3.713-2.245-5.57ZM80.8,97.533c.628-1.552,1.247-3.122,1.847-4.683Q81.738,95.2,80.731,97.5Zm-6.947,4.545h0A417.677,417.677,0,0,0,93.4,54.237C89.442,72.3,82.579,89.561,75.614,106.7c-.637-1.607-1.229-3.131-1.829-4.656Zm-2.771-7.3a.564.564,0,0,0,.222-.24,333.76,333.76,0,0,0,20.72-51.277C89.608,63.207,78.708,81,73.055,100.166c-.7-1.8-1.386-3.612-2.069-5.422ZM34.184,5.658a.628.628,0,0,0-.453.249c-.194-.314-.379-.628-.573-.924A5.8,5.8,0,0,1,34.184,5.658Zm2.337,1.737c6.6,5.829,10.161,15.149,13.616,22.955a193.911,193.911,0,0,1,7.3,18.475,106.759,106.759,0,0,1,2.771,10.512c0,2.245-.055,4.5-.074,6.743-3.039-9.672-5.4-19.537-9.413-28.895A237.357,237.357,0,0,0,36.1,9.768c-.379-1.2-.767-2.411-1.155-3.612.434.323.859.647,1.266,1A.573.573,0,0,0,36.521,7.394ZM60.474,73.276c.111.508.231,1.016.351,1.524-1.33-2.041-2.115-4.84-2.9-6.651-1.395-3.178-2.771-6.337-4.138-9.533-2.337-5.542-4.619-11.15-6.753-16.794-3.205-8.415-6.051-16.877-8.822-25.477A219.66,219.66,0,0,1,49.065,37.379C53.684,47.817,55.91,59.1,60.095,69.645V71.04a.434.434,0,0,0,.416.462.462.462,0,0,0-.055.342c.074.342.148.674.231,1.016a.351.351,0,0,0-.212.416ZM51.236,21.749a215.135,215.135,0,0,1,9.237,25.089c-.055,1.847-.111,3.76-.157,5.644-2.365-8.138-5.893-16.11-9.237-23.509-3.538-7.9-7.15-17.126-13.856-22.918a35.7,35.7,0,0,1-.73-3.944c7.852,2.448,11.676,12.859,14.78,19.639Zm1.192-3.473c1.737,3.695,3.39,7.39,5.025,11.085.924,2.069,1.847,4.111,2.633,6.2.2,1.21.4,2.42.573,3.64-.055,1.635-.12,3.279-.166,4.924a126.958,126.958,0,0,0-9.237-25.689C48.613,12.891,45.6,5.621,40.114,2.175A17.44,17.44,0,0,1,44.936,5.8h0a.508.508,0,0,0,.536.536c3,3.409,5.016,7.778,6.993,11.944Zm4.3,3.362c.85,2.586,1.561,5.2,2.162,7.833-.083-.212-.176-.425-.259-.628-1.764-4.268-3.695-8.48-5.616-12.665-1.792-3.843-3.824-8-6.706-11.205.434-.656,1.339-.794,2.707-.4.48.8.924,1.626,1.386,2.448.785,1.441,1.524,2.9,2.235,4.379.222.48.434.924.647,1.432a5.175,5.175,0,0,0,.065,1,.462.462,0,0,0,.582.443,75.619,75.619,0,0,1,2.836,7.362Zm4.619.619q-.231,5.182-.434,10.383a80.366,80.366,0,0,0-6.124-20.858c-.083-.2-.185-.443-.286-.7.129-2.836.1-5.681.139-8.517,4.674,4.831,6.281,12.369,6.716,19.694Zm.249,43.564c.074.314.148.628.212.924a6.344,6.344,0,0,1-.139,1.312c-.111.637-.2,1.275-.3,1.912l-.166-.49q.194-1.811.4-3.658Zm2.429-21.994q-1.515,6.466-2.494,13.034.249-6.873.508-13.755a.342.342,0,0,0,.259-.314,15.011,15.011,0,0,0-.1-3.695q.545-13.856,1.219-27.712C64.039,22.174,63.891,32.991,64.021,43.827ZM62.413,61.794c-.065-.37-.12-.739-.185-1.118.656-4.961,1.478-9.912,2.531-14.78a.462.462,0,0,0,.259-.406v-.924a132.958,132.958,0,0,1,4.064-14.475,246,246,0,0,0-6.669,31.7Zm3.695,19.565a.443.443,0,0,0,.36-.333A218.048,218.048,0,0,1,81.433,40.381a.175.175,0,0,0,.1-.065c.988-1.108,1.9-2.272,2.771-3.455.73,4.157-1.3,8.665-2.55,12.544q-2,6.143-4.157,12.156c-2.984,8.194-6.466,16.11-9.949,24.119-.545-1.441-1.081-2.882-1.589-4.323ZM63.67,74.4A81.567,81.567,0,0,1,79.641,40.594a177.423,177.423,0,0,0-14,39.545c-.674-1.912-1.358-3.815-2.014-5.736Zm-1.321-3.381c.176-1.081.369-2.152.573-3.224a.462.462,0,0,0,.139-.36,2.268,2.268,0,0,1,0-.259c.48-2.457,1.025-4.9,1.653-7.325a78.639,78.639,0,0,0-1.5,11.787c-.055.3-.12.591-.176.924l-.36-1.035a1.007,1.007,0,0,0-.379-.508Zm.767,12.932A188.445,188.445,0,0,1,43.717,47a178.037,178.037,0,0,1-6.411-20.322c-1.469-5.829-2.245-11.75-3.325-17.625l.868,1.441A372.989,372.989,0,0,0,47.467,47.115q3.8,9.561,8.083,18.909c1.349,2.947,2.771,8.24,5.69,10.549q.878,3.732,1.829,7.4Zm-28.165.286.333.3a89.989,89.989,0,0,1-8.914-8.314,71.866,71.866,0,0,1-6.355-7.843c-1.847-2.633-4.739-6.291-4.933-9.764a13.856,13.856,0,0,1,1.931,1.737c2.744,9.367,11.4,18.041,17.893,23.906Zm30.807,9.108-.24-.3a.471.471,0,0,0-.277-.508l-.194-.092-.185-.231a.462.462,0,0,0,.49-.212c.083.471.24.915.36,1.367Zm1.46,4.776c-11.6-3.4-20.609-12.212-28.156-21.338a109.471,109.471,0,0,1-10.872-15.7,77.65,77.65,0,0,1-5.912-11.75A184.371,184.371,0,0,0,40.317,72.306,177.68,177.68,0,0,0,53.084,84.841c3.446,3.048,7.085,6.706,11.464,8.369.37.4.73.794,1.1,1.182a.286.286,0,0,0,.388.065c.37,1.229.757,2.457,1.136,3.686Zm1.164,3.695c-11.26-4.092-21.708-9.635-30.8-17.551A84.837,84.837,0,0,1,25.251,71.133a52.339,52.339,0,0,1-5.542-8.8.563.563,0,0,0-.055-.545c-.157-.249-.333-.462-.5-.7a18.475,18.475,0,0,1-1.46-6.863c4.48,5.644,9.1,11.371,13.662,16.988a.656.656,0,0,0,1.136-.185c1.681,2.4,3.464,4.748,5.33,7.011,7.8,9.45,17.551,19.1,29.892,21.883.194.647.416,1.284.647,1.931Zm3.446,10.272c-5.432-2.328-10.374-5.607-15.362-8.766-4.8-3.039-9.561-6.171-14.115-9.57A84.356,84.356,0,0,1,30.036,82.578q2.3,2.18,4.831,4.166a138.968,138.968,0,0,0,16.747,11.27c3.076,1.783,6.2,3.482,9.348,5.145,2.319,1.219,4.905,3.224,7.593,3.095a.065.065,0,0,0,.055-.092c-1.349-2.106-4.111-2.993-6.254-4.157-2.568-1.413-5.127-2.827-7.649-4.3a1.849,1.849,0,0,1-.231-.129,72.662,72.662,0,0,0,14.152,5.2c1.007,3.131,2.069,6.235,3.15,9.348Zm2,5.644a63.47,63.47,0,0,0-7.214-3.695c-3.362-1.69-6.716-3.4-10.013-5.219A125.906,125.906,0,0,1,36.955,95.834,68.884,68.884,0,0,1,15.266,64.787a40.47,40.47,0,0,0,3.8,5.773c4.5,9.81,13.274,17.893,21.588,24.322a175.834,175.834,0,0,0,14.78,10.161c5.33,3.316,10.826,7.39,16.969,8.988.471,1.219.933,2.476,1.386,3.732Zm3.547,9.487c-12.009-7.279-24.636-13.376-35.647-22.318A93.916,93.916,0,0,1,28.087,91.5a59.941,59.941,0,0,1-5.044-7.39,77.835,77.835,0,0,0,11.639,12.23,115.681,115.681,0,0,0,19.131,12.932c3.695,2.051,7.482,3.981,11.3,5.82,2.9,1.4,5.977,3.242,9.154,3.963q1.487,4.129,3.067,8.194ZM17.63,100.692c-.711-.5-1.423-.979-2.152-1.441a.462.462,0,0,0-.711.369,41.485,41.485,0,0,1-3.224-3.88C13.51,97.487,15.543,99.122,17.63,100.692Zm64.948,39.721A283.37,283.37,0,0,1,48.474,123c-5.6-3.409-11.085-7.057-16.36-10.9-4.351-3.159-8.443-6.91-12.785-10.161,17.939,12.812,39.841,19.648,59.572,29.338C80.1,134.317,81.341,137.356,82.579,140.413Zm5.681,13.514c-7.057-3.556-14.567-6.217-21.569-9.976a194.111,194.111,0,0,1-20.5-12.72,197.234,197.234,0,0,1-24.941-21.089.453.453,0,0,0,.286-.831c-.73-.379-1.46-.739-2.189-1.1-3.279-3.362-6.466-6.817-9.45-10.392a3.963,3.963,0,0,1,1.847.665c.443.517.924,1.035,1.358,1.533l.194.342a.342.342,0,0,0,.286.176c2.716,2.873,5.773,5.459,8.748,8.046,5.893,5.118,12.009,9.995,18.355,14.549A257.725,257.725,0,0,0,83.9,148.071c.878.4,1.644-.924.757-1.312a267.975,267.975,0,0,1-40.913-23.528q-9.755-6.836-18.9-14.475c1.8,1.321,3.6,2.6,5.33,3.87q8.5,6.235,17.551,11.667a211.6,211.6,0,0,0,35.361,17.283q2.531,6.226,5.173,12.332Zm2.633,6.06c-14.78-7.307-29.449-14.614-43.361-23.6S18.97,117.911,8.91,104.766c3.058,1.515,6.143,3.039,9.311,4.314A178.966,178.966,0,0,0,44.77,132.312a181.849,181.849,0,0,0,21.745,13.3c6.956,3.6,14.651,7.713,22.345,9.57.637,1.6,1.339,3.2,2.032,4.785Zm2.66,6.023a363.864,363.864,0,0,1-42.39-24.581c-4.055-2.771-8.037-5.616-12.009-8.554,1.69,1.164,3.381,2.309,5.1,3.427C59,145.956,74.829,154.916,91.382,161.078c.711,1.644,1.441,3.279,2.171,4.914Zm3.27,7.39C80.2,164.883,63.947,156.052,48.64,145.282q-12.175-8.563-23.565-18.17c-6.891-5.783-14.641-11.879-17.348-20.793a27.767,27.767,0,0,0,3.205,4.277.388.388,0,0,0,.092.259c5.265,6.568,12.849,12.009,19.4,17.209q9.413,7.51,19.4,14.253a294.228,294.228,0,0,0,44.229,24.821Zm4.72,10.614c-17.228-9.422-34.04-19.2-50.159-30.484C47.763,151,44.2,148.413,40.65,145.78l2.208,1.45c18.262,12.009,37.107,23.639,56.736,33.329a.545.545,0,0,0,.443,0c.5,1.182,1.007,2.346,1.506,3.446Zm-94.8-22.419a.527.527,0,0,0,.129-.323c1.293,1.238,2.6,2.476,3.907,3.695C9.437,163.83,8.088,162.722,6.739,161.595ZM4.726,135.841c.286.314.582.619.868.924a.416.416,0,0,0,.231.249,282.58,282.58,0,0,0,30.853,28.507q-4.933-3.455-9.921-6.8a.425.425,0,0,0-.453,0q-9.893-8.147-19.722-16.461a.453.453,0,0,0,.111-.628,12.009,12.009,0,0,1-1.968-5.792Zm101.981,59.785c-7.981-5.219-17.117-9.237-25.421-13.791-8.979-4.979-17.9-10.013-26.632-15.463-8.877-5.542-17.551-11.325-25.939-17.607-8.064-6.051-15.408-12.822-23.047-19.352-.517-1.515-1.062-3.021-1.57-4.545,7.03,8.027,15.7,15.2,25.412,19.694q7.39,6.161,15.223,11.833c18.336,13.348,38.308,25.061,59.415,33.458l1.016,2.291Zm2.6,5.884c-8.646-4.619-17.616-8.637-26.216-13.367Q69.406,180.624,56.3,172.218A471.787,471.787,0,0,1,6.037,134.723c-.176-.859-.379-1.709-.591-2.559.074.148.148.3.231.434a.485.485,0,1,0,.924-.3,178.305,178.305,0,0,0,20.193,17.08c8.508,6.466,17.376,12.443,26.465,18.059s18.475,10.983,27.888,16.082c8.5,4.619,17.191,10.06,26.244,13.561C108,198.609,108.656,200.041,109.3,201.51Zm2.707,6.124c-4.351-2.365-9.311-4.009-13.745-6.106q-7.335-3.464-14.5-7.279a316.658,316.658,0,0,1-27.8-16.784,319.372,319.372,0,0,1-42.021-34.1A407.433,407.433,0,0,0,54.83,173.262q13.736,8.794,28.128,16.5c8.7,4.619,17.607,9.478,26.881,12.932C110.559,204.355,111.289,206,112.009,207.634Zm3.621,8.314c-14.78-9.117-30.16-17.357-44.82-26.789l-3.233-2.125q8.1,4.905,16.526,9.3c4.8,2.5,9.672,4.877,14.623,7.085,4.4,1.977,9.145,4.48,13.856,5.644Q114.148,212.5,115.63,215.948Zm4.619,10.725c-3.917-3.224-8.7-5.7-12.932-8.425q-7.455-4.85-14.78-9.838Q77.489,198.249,62.885,187.46c-4.194-3.095-8.314-6.254-12.452-9.441,6.235,4.268,12.563,8.314,18.807,12.387,15.066,9.69,30.668,19.574,47.028,26.955q1.977,4.646,3.963,9.311Zm2.651,6.272c-10.244-6.632-21.024-12.424-31.241-19.131S71.6,200.05,61.9,192.744q-15.408-11.575-30.225-23.888c-8.406-6.937-16.48-14.447-25.2-20.923-.277-1.552-.637-3.095-1.007-4.619,17.45,16.045,36.275,30.807,55.3,44.9q15.186,11.251,30.853,21.819,7.39,4.97,14.863,9.755c4.619,2.938,9.376,6.6,14.512,8.6.6,1.515,1.247,3.03,1.866,4.554Zm2.864,6.882C82.911,213.9,42.368,184.753,6.305,149.919a.425.425,0,0,0,.323-.231c8.221,7.88,17.4,14.928,26.16,22.17,9.237,7.649,18.6,15.233,28.156,22.53q14.78,11.288,30.345,21.5c10.106,6.6,20.581,13.385,31.758,18.022a.286.286,0,0,0,.231,0c.822,1.968,1.654,3.935,2.466,5.921Zm3.27,8.074c-10.475-6.863-21.357-13.117-31.851-19.953S76.2,213.99,65.961,206.627c-20.738-14.9-40.072-31.407-59.766-47.564a62.225,62.225,0,0,1-2.383-9.6C40.04,185.391,81,217.555,126.327,241.249c.905,2.208,1.8,4.471,2.688,6.651Zm3.224,8.184a507.649,507.649,0,0,1-67.23-44.635c-12.1-9.542-23.639-19.74-35.185-29.911,11.085,9.043,22.484,17.607,33.948,25.865,10.6,7.676,21.412,15.076,32.451,22.087,10.762,6.826,21.708,13.782,33.181,19.4q1.413,3.6,2.817,7.2ZM138.29,272.2c-8.8-6.466-17.708-12.831-26.622-19.242a159.221,159.221,0,0,0,23.389,10.466q1.663,4.379,3.215,8.776Zm2.679,7.695c-11.288-6.771-22.715-13.265-33.717-20.526a421.94,421.94,0,0,1-57.364-45.356,416.806,416.806,0,0,1-33.781-36.192c14.641,15.547,32.082,28.932,48.478,42.03,23.694,18.881,48.035,37.495,73.789,53.577a.407.407,0,0,0,.333.055Q139.851,276.629,140.969,279.9Zm28.414,245.6q-.416,3.473-.868,6.956c-9.5-2.383-19.122-7.15-27.583-12.009-7.676-4.379-14.7-10.069-19.14-17.68a79.035,79.035,0,0,0,42.742,24.1c.61.12,1.044-.73.443-1.044-12.147-6.365-22.909-15.029-33.19-24.064a180.114,180.114,0,0,1,18.115,13.33c5.884,4.85,11.981,8.683,19.482,10.374Zm1.1-10.632h0c-.2,2.106-.406,4.212-.628,6.309-.111,1.035-.24,2.06-.351,3.095l-.693-.194c-18.142-14.521-36.211-28.756-47.462-49.282a207.122,207.122,0,0,0,19.066,22.1,236.139,236.139,0,0,0,27.278,22.66c.582.425,1.21-.48.748-.924-8.055-8.406-16.2-16.821-24.562-24.941a.2.2,0,0,0-.286.277c4.97,5.542,10.069,10.983,15.214,16.378-8.582-7.057-16.72-14.78-23.269-23.786A84.841,84.841,0,0,1,127,471.991a68.592,68.592,0,0,1-2.993-7.87c.286.563.6,1.118.85,1.635,9.856,20.276,26.327,37.495,45.624,49.069ZM133.237,478q15.149,16.433,31.537,31.666a122.366,122.366,0,0,1-31.537-31.7Zm20.747,14.512c2.217,1.921,4.388,3.9,6.466,5.93,3.427,3.7,6.79,7.261,9.939,10.882a.471.471,0,0,0,.563.148c-.1,1.284-.2,2.559-.323,3.843-6.559-5.921-13.043-11.907-19.343-18.1-1.69-1.663-16.544-17.745-17.385-17.135.924-.647,9.237,5.912,10.161,6.568,3.409,2.466,6.725,5.062,9.921,7.824ZM126.272,443.1a193.422,193.422,0,0,0,20.766,38.326c-9.644-11.3-17.847-23.389-20.8-38.363Zm45.263,59.618q-.194,2.771-.416,5.607c-.406-.5-.822-.988-1.238-1.478a.3.3,0,0,0,0-.462c-.924-.859-1.764-1.727-2.642-2.6-4.037-4.619-8.314-9.117-12.461-13.671-12.156-14.678-22.253-31.343-28.5-49.125a153.443,153.443,0,0,0,45.2,61.688Zm1.136-41.762v7.787c-3.695-17.32-15.851-33.458-29.56-44.21-7.057-5.542-14.955-9.376-22.872-13.5-7.177-3.7-14.318-8.055-19.011-14.678,11.362,10.263,25.5,15.962,38.3,24.276a85.806,85.806,0,0,1,32.858,40.026.582.582,0,0,0,.286.3Zm-43.8-54.5c-7.27-3.538-14.863-6.374-21.939-10.346-10.161-5.709-17-15.085-18.382-26.484,7.732,15.233,22.105,25.671,36.386,34.437Zm34.64-40.09a219.851,219.851,0,0,1-36.95-27.546,216.681,216.681,0,0,1-27.2-31.694c8.129,9.9,17.727,18.909,27.26,27.315a267.763,267.763,0,0,0,35.407,26.936.369.369,0,0,0,.453,0C162.834,363.036,163.157,364.689,163.508,366.361Zm.924,5.007a.406.406,0,0,0-.185-.259c-13.413-9.505-27.777-17.246-40.127-28.257-11.528-10.281-21.071-22.512-26.992-36.82,15.833,25.578,39.989,47.564,66.583,61.346.166,1.33.416,2.66.647,3.972Zm6.143,46.547c-1.847-2.143-3.3-4.822-5.081-6.974a65.3,65.3,0,0,0-6.632-7.02c-.286-.259-.582-.5-.868-.739l.074.046a44.5,44.5,0,0,1,7.279,6.6c1.931,2.2,3.621,5.81,5.219,7.981Zm1.053,13.93a112.882,112.882,0,0,0-32.414-28.922c-9.108-5.441-21.5-9.958-29.643-17.68a57,57,0,0,0,5.6,2.051,127.418,127.418,0,0,1,21.1,9.625A134.073,134.073,0,0,1,171.24,426.1q.139,2.882.314,5.746Zm.5,8.923a.451.451,0,0,0-.046-.148,54.407,54.407,0,0,0-8.027-10.817q3.991,3.695,7.916,7.639c-.018,1.108.028,2.263.083,3.325Zm-.711.231a.388.388,0,0,0,.711-.2q.222,4.563.379,9.117c-5.829-13.311-15.473-24.433-27.01-33.19q1.931,1.256,3.806,2.577A92.05,92.05,0,0,1,171.341,441Zm-39.481-40.525a125.97,125.97,0,0,1,39.776,32.645c.065,1.1.139,2.2.2,3.3-11.445-13.921-26.521-25.5-42.012-34.456-8.582-4.979-17.653-9.117-24.839-16.138-.85-.831-1.663-1.681-2.457-2.55a.333.333,0,0,0,0-.36,16.627,16.627,0,0,1-2.134-11.279c2.411,15.353,18.854,22.4,31.389,28.839Zm6.78-6.54c6.466,2.466,12.859,5.5,18.253,9.93s9.6,9.856,13.718,15.371c.166,1.912.323,3.815.462,5.727A122.8,122.8,0,0,0,142.456,399.2a127.662,127.662,0,0,0-18.29-9.838q-4.259-1.847-8.637-3.39c-3.095-1.081-7.926-2.078-9.237-5.542,9.995,6.272,21.3,9.3,32.35,13.505Zm11.491-.7a83.45,83.45,0,0,1,14.161,8.988,29.32,29.32,0,0,1,5.385,7.141v.148c.222,2.18.434,4.351.637,6.531-5.228-10.078-14.484-16.443-24.886-21.246-6.679-3.1-13.551-5.829-20.322-8.637-5.321-2.208-12.886-4.037-17.292-8.388,9.311,6.1,20.1,8.6,30.835,11.575a94.092,94.092,0,0,1,11.408,3.889Zm18.807,10.974a.425.425,0,0,0,.176.166c.12,1.025.24,2.051.351,3.076-.3-.536-.61-1.035-.924-1.533a.342.342,0,0,0,.406-.545,45.89,45.89,0,0,0-3.455-3.51,38.6,38.6,0,0,0-14.069-9.468c-5.385-2.827-11.085-5.191-16.535-7.529-12.009-5.1-27.823-10.826-33.393-23.583,9.237,8.628,19.814,14.4,31.324,19.75,12.341,5.746,28.6,10.993,36.044,23.177Zm-73.9-77.225c17.634,27.786,44.534,48.866,72.615,65.383.388,2.91.767,5.829,1.118,8.739-4.4-8.074-12.24-13.782-19.4-19.242-7.741-5.875-15.778-11.344-23.565-17.154-14.863-11.085-28.211-23.777-35.592-41.116-2-4.73-3.63-9.625-5.182-14.512-.24-.748-.434-1.561-.628-2.392A134.867,134.867,0,0,0,95,327.01ZM166,381.233c.314,2.051.619,4.092.924,6.143a223.944,223.944,0,0,1-30.142-19.98c-9.792-7.843-18.032-16.988-27.047-25.625-.323-.3-.924.1-.637.49,7.288,10.161,17.477,18.835,27.26,26.511a181.924,181.924,0,0,0,30.724,19.7c.1.693.2,1.386.3,2.078a253.864,253.864,0,0,1-48.958-37.07A175.51,175.51,0,0,1,97.47,328.4a153.349,153.349,0,0,1-10.5-16.951C105.525,341.531,133.745,366.731,166,381.233ZM95.1,308.258c9.995,32.331,40.58,54.7,70.131,68.246.212,1.275.416,2.559.619,3.843A221.181,221.181,0,0,1,99.2,326.539c-2.984-5.8-4.739-11.713-4.046-18.29Zm-42.492-59.12C62.395,268,78.477,284.157,93.442,298.29c11.408,10.752,23.149,21.154,34.89,31.537,9.949,8.794,20.091,19.768,32.83,24.433.416,2.1.841,4.185,1.238,6.281-11.953-8.96-23.786-17.93-34.982-27.851-10.909-9.672-20.775-20.322-31.25-30.41a.194.194,0,0,0-.166-.046l-.083-.129c-.369-.517-1.2-.055-.868.508.573.988,1.164,1.968,1.755,2.938-.268-.166-.7,0-.573.4,4.914,14.512,14.457,26.936,25.662,37.181a187.049,187.049,0,0,0,41.883,28.719.434.434,0,0,0,.637-.425c.222,1.3.462,2.6.674,3.917-15.075-8.877-30.3-17.209-43.2-29.255C110,335,100.509,321.384,95.714,305.773a.342.342,0,0,0,.314-.563c-9.81-9.459-19.574-18.844-27.879-29.661A130.158,130.158,0,0,1,56.8,258.209a96.656,96.656,0,0,1-4.222-9.053ZM159.859,348.9a.787.787,0,0,0,.194.1c.314,1.478.628,2.956.924,4.434-6.614-2.928-12.2-7.538-17.607-12.277-5.857-5.145-11.658-10.346-17.477-15.537-10.688-9.524-21.4-19.048-31.832-28.849A262.608,262.608,0,0,1,67.67,268.768a144.1,144.1,0,0,1-16.858-27.1c27.334,43.822,68.459,76.107,109,107.21Zm-2.91-13.792q.61,2.559,1.192,5.145c-20.128-16.249-41.208-31.463-60.6-48.6C79.6,275.8,64.52,257.175,51.356,237.24a449.8,449.8,0,0,0,47.49,51.517q13.856,12.988,28.738,24.886c9.358,7.482,18.955,15.371,29.329,21.44ZM150.1,308.784c-9.394-6.928-18.807-13.727-28.156-20.572a281.464,281.464,0,0,0,25.643,13.117.545.545,0,0,0,.314,0q1.1,3.7,2.162,7.427ZM99.289,278.569q3.519,2.854,7.03,5.672c14.78,11.852,30.068,23.389,46.187,33.31q.979,3.64,1.912,7.307c-17.819-15.26-36.026-30.1-53.919-45.263-.443-.342-.85-.7-1.266-1.053ZM53.518,235.051C66.21,246.662,79.5,257.6,93.036,268.232a.517.517,0,0,0,0,.73c3.538,3.409,7.972,6.041,12.009,8.757l.785.5c14.263,10.919,28.765,21.653,43.822,31.37a.406.406,0,0,0,.628-.194c.647,2.3,1.293,4.619,1.921,6.9-15.463-11.2-31-22.17-45.892-34.179s-28.784-25.264-43.416-37.633a.36.36,0,0,0-.3-.083Q57.979,239.8,53.518,235.051ZM17.861,192.559c1.229,1.635,2.476,3.261,3.741,4.85,16.082,20.165,36.026,37.014,56.219,52.875,21.089,16.553,43.222,33.153,67.9,44.007.434,1.395.878,2.771,1.3,4.175.166.563.333,1.127.508,1.69C138.3,295.538,129.2,290.6,120.314,285.3q-6.651-3.954-13.108-8.212l-1.164-.785q-3.011-2.3-6-4.619c-14.937-11.658-29.477-23.8-44.109-35.832a.36.36,0,0,0,.176-.647C44.1,226.5,34.091,215.5,25.362,203.588c-2.633-3.64-5.108-7.335-7.5-11.066Zm126.414,97.159c.4,1.21.785,2.429,1.164,3.64a417.95,417.95,0,0,1-37.356-22.7,569.94,569.94,0,0,1-62.131-49.069c-14.882-13.653-27.925-28.849-37.781-46.261A225.618,225.618,0,0,0,23.709,195.9c16.239,19.112,35.3,35.37,55.314,50.381,10.789,8.092,21.847,15.814,33,23.389C122.475,276.767,132.8,284.36,144.276,289.718Z" transform="translate(-0.07 -0.058)" fill="#fff"/>
        <path id="Path_3" data-name="Path 3" d="M136.174,457.788c17.274,13.357,31.407,29.735,41.208,49.088-5.7-7.787-12.323-14.78-20.987-19.445a.573.573,0,0,0-.813.425c-.693-1.441-1.349-2.91-1.949-4.415,0-.083-.176-.055-.148.046a63.47,63.47,0,0,0,27.952,34.871.665.665,0,0,0,.924-.924,135.3,135.3,0,0,0-21.726-26.271c8.462,5.746,14.6,14.346,20.156,22.89a.638.638,0,0,0,1.1-.647c-1.312-2.993-2.771-5.949-4.258-8.859q2.254,3.695,4.452,7.39a.434.434,0,0,0,.748-.434,258.918,258.918,0,0,0-17.274-27.638c.591.6,1.173,1.2,1.737,1.848a111.35,111.35,0,0,1,14.78,20.322c.212.388.767,0,.582-.342a85.577,85.577,0,0,0-14.05-20.387A153.634,153.634,0,0,0,155.1,471.45a88.449,88.449,0,0,0-18.179-14.586C136.322,456.531,135.638,457.372,136.174,457.788Zm43.305,57.752a68.552,68.552,0,0,1-23.657-27.149,153,153,0,0,1,23.657,27.149Z" transform="translate(-10.434 -34.886)" fill="#fff"/>
        <path id="Path_4" data-name="Path 4" d="M39.876,690.778a55.857,55.857,0,0,0,18.2,9.93,38.685,38.685,0,0,0,3.824.988,12.186,12.186,0,0,0,3.113.388q2.965-1.981,1.653-4.619c-.259-3.224-1.847-6.845-2.771-9.958a.656.656,0,0,1,.794-.794c13.293,2.069,22.6,13.782,35.435,17.265a51.249,51.249,0,0,0-3.067-13.117c-.379-.924.693-1.635,1.506-1.506a36.719,36.719,0,0,1,16.332,7.131q0-3.395,0-6.78a1.423,1.423,0,0,1,2.125-1.219,84.6,84.6,0,0,0,14.734,6.919,130.243,130.243,0,0,1-8.609-17.773c-.416-1.044.748-1.792,1.635-1.635A28.4,28.4,0,0,1,144.5,689.374c.637,1.053-.97,1.968-1.653.924a27.066,27.066,0,0,0-16.2-11.279,143.181,143.181,0,0,0,9.736,18.281,1.515,1.515,0,0,1-1.69,2.2,90.055,90.055,0,0,1-16.988-7.39c0,2.411,0,4.813,0,7.224a1.395,1.395,0,0,1-2.356.924,37.253,37.253,0,0,0-15.26-8.083,52.792,52.792,0,0,1,2.245,13.052,1.016,1.016,0,0,1-1.284.979c-13.062-3.51-22.678-13.856-35.527-17.967.721,2.448,1.46,4.887,2.171,7.335.453,1.561,1.57,3.695.924,5.4-.739,1.986-2.827,2.226-4.72,2.032-8.619-.924-18-6.383-24.433-11.889C39.128,690.981,39.571,690.566,39.876,690.778Z" transform="translate(-3.065 -51.601)" fill="#fff"/>
      </g>
    </g>
  </g>
</svg>
